<svg xmlns="http://www.w3.org/2000/svg" version="1.1" xmlns:xlink="http://www.w3.org/1999/xlink" xmlns:svgjs="http://svgjs.com/svgjs" width="1712.953" height="1712.953"><svg version="1.1" id="SvgjsSvg1000" xmlns="http://www.w3.org/2000/svg" xmlns:xlink="http://www.w3.org/1999/xlink" x="0px" y="0px" viewBox="0 0 1712.953 1712.953" style="enable-background:new 0 0 1712.953 1712.953;" xml:space="preserve">
<path style="fill:#F0E800;" d="M857.304,1714.606h-0.002C383.827,1714.606,0,1330.779,0,857.304v-0.002
	C0,383.827,383.827,0,857.302,0h0.002c473.475,0,857.302,383.827,857.302,857.302v0.002
	C1714.606,1330.779,1330.779,1714.606,857.304,1714.606z"></path>
<path d="M397.955,1161.223c15.018,36.586,35.186,46.654,74.958,46.441h768.78c39.772,0.213,59.94-9.855,74.957-46.441
	c65.695-160.033,132.68-319.534,199.196-479.228c5.199-18.434-3.074-23.347-19.822-19.753
	c-48.013,39.839-94.886,81.155-144.258,119.23c-132.51,102.191-242.969,108.741-336.145,19.011
	c-36.931-35.566-60.311-81.522-85.448-126.307c-20.279-36.13-41.664-101.654-55.956-149.934l-2.832-9.645
	c-3.061-4.61-8.289-7.656-14.237-7.656c-5.658,0-10.634,2.781-13.745,7.018l-3.247,11.055
	c-14.29,48.205-35.555,113.224-55.727,149.162c-25.136,44.785-48.516,90.74-85.447,126.307
	c-93.176,89.73-203.635,83.18-336.146-19.011c-49.372-38.074-96.244-79.391-144.257-119.23c-16.748-3.594-25.022,1.32-19.822,19.753
	C265.275,841.689,332.261,1001.19,397.955,1161.223z"></path>
</svg><style>@media (prefers-color-scheme: light) { :root { filter: none; } }
</style></svg>