<?xml version="1.0" encoding="iso-8859-1"?>
<!-- Generator: Adobe Illustrator 26.0.3, SVG Export Plug-In . SVG Version: 6.00 Build 0)  -->
<svg version="1.1" id="Layer_1" xmlns="http://www.w3.org/2000/svg" xmlns:xlink="http://www.w3.org/1999/xlink" x="0px" y="0px"
	 viewBox="0 0 789.013 789.013" style="enable-background:new 0 0 789.013 789.013;" xml:space="preserve">
<g>
	<g>
		<path d="M315.439,474.235c-24.704-0.036-44.974,20.078-45.044,44.695c-0.071,24.886,19.768,45.045,44.47,45.186
			c24.851,0.142,45.124-19.714,45.311-44.38C360.365,494.785,340.196,474.27,315.439,474.235z M602.323,474.299
			c-24.763-0.461-45.224,19.504-45.683,44.575c-0.444,24.29,19.475,44.798,43.951,45.251c25.136,0.465,45.295-18.984,45.83-44.216
			C646.944,495.331,627.053,474.76,602.323,474.299z M706.614,369.402c-13.204-22.993-27.905-44.985-44.708-65.496
			c-15.239-18.601-34.982-29.085-59.014-31.062c-13.989-1.151-28.029-0.732-42.044-0.664c-3.512,0.017-4.518-1.257-5.477-4.327
			c-7.065-22.615-22.277-36.327-45.755-39.826c-16.197-2.414-32.64-1.761-48.983-2.142c-21.65-0.505-47.472-0.793-74.285-0.815
			c0.144-0.125,0.22-0.19,0.22-0.19H138.445c-12.887-0.003-21.862,8.503-21.93,20.453c-0.068,12.117,8.61,20.482,21.64,20.603
			c13.03,0.12,26.062-0.042,39.092,0.054c11.989,0.088,21.001,8.676,21.201,19.993c0.21,11.871-8.371,20.702-20.675,21.048
			c-6.61,0.186-13.231-0.023-19.845,0.066c-13.433,0.18-22.302,8.509-22.234,20.782c0.066,11.955,8.89,20.185,21.977,20.398
			c7.215,0.117,14.447-0.18,21.644,0.215c8.879,0.487,14.981,5.266,17.986,13.612c5.003,13.898-5.2,27.288-21.024,27.384
			c-25.058,0.152-50.127,0.456-75.172-0.136c-12.062-0.285-20.474,3.768-25.347,14.845c0,4.013,0,8.026,0,12.039
			c5.506,11.238,14.636,14.812,26.852,14.529c25.046-0.58,50.115-0.253,75.173-0.135c11.884,0.056,20.668,8.912,20.683,20.412
			c0.014,11.428-8.844,20.33-20.641,20.545c-7.615,0.139-15.235,0.013-22.854,0.032c-13.765,0.035-22.856,8.357-22.759,20.809
			c0.094,12.104,9.141,20.19,22.702,20.205h93.464c0,0-0.156-2.977,0.596-10.245c8.406-35.019,44.857-58.089,80.293-50.129
			c28.909,6.494,49.255,28.284,53.512,57.719c0.598,4.138,1.715,5.483,6.166,5.357c37.061-1.05,102.903-1.599,139.968-0.148
			c3.304,0.129,4.452-0.598,4.94-4.096c3.823-27.426,18.788-46.665,44.64-56.032c25.92-9.392,49.722-3.896,70.135,14.682
			c12.07,10.985,18.57,25.11,20.952,41.155c20.554-4.04,38.837-24.414,40.961-45.999c2.384-24.23,2.731-48.564,2.716-72.89
			C713.25,383.926,710.635,376.403,706.614,369.402z M660.991,384.417c-16.194,0.151-32.39,0.04-48.586,0.045
			c-16.04,0.005-32.08-0.075-48.118,0.073c-3.198,0.03-4.541-0.344-4.47-4.153c0.472-25.407-0.422-50.804-1.05-76.2
			c-0.07-2.841,0.203-4.123,3.59-4.012c12.291,0.405,24.605,0.194,36.889,0.728c16.051,0.697,29.468,7.41,39.795,19.667
			c11.947,14.179,22.574,29.363,32.352,45.113C676.837,374.447,671.342,384.321,660.991,384.417z"/>
	</g>
</g>
</svg>
