<?xml version="1.0" encoding="iso-8859-1"?>
<!-- Generator: Adobe Illustrator 26.0.3, SVG Export Plug-In . SVG Version: 6.00 Build 0)  -->
<svg version="1.1" id="Layer_1" xmlns="http://www.w3.org/2000/svg" xmlns:xlink="http://www.w3.org/1999/xlink" x="0px" y="0px"
	 viewBox="0 0 789.013 789.013" style="enable-background:new 0 0 789.013 789.013;" xml:space="preserve">
<g>
	<path d="M200.261,681.603c-11.187-2.69-21.798-6.583-30.321-14.737c-12.456-11.919-18.698-26.494-17.504-43.729
		c1.939-27.978,4.287-55.929,6.529-83.886c2.891-36.054,5.847-72.104,8.777-108.155c3.337-41.064,6.675-82.127,10.014-123.191
		c2.022-24.87,4.028-49.741,6.079-74.609c1.063-12.888,9.095-20.484,22.005-20.565c18.383-0.115,36.768-0.153,55.149,0.061
		c4.174,0.049,5.524-0.841,5.594-5.356c0.932-60.185,42.178-108.493,101.288-118.947c66.276-11.721,131.812,37.481,139.103,104.482
		c0.543,4.991,1.066,10.033,0.933,15.034c-0.105,3.971,1.351,4.798,4.998,4.766c17.995-0.159,35.992-0.088,53.988-0.065
		c14.928,0.018,22.607,6.916,23.827,21.758c4.276,52.049,8.436,104.107,12.676,156.159c4.476,54.944,9.016,109.882,13.482,164.827
		c1.771,21.785,3.749,43.561,5.042,65.376c1.85,31.22-15.48,53.396-46.176,59.984c-0.539,0.116-1.016,0.522-1.522,0.793
		C449.568,681.603,324.914,681.603,200.261,681.603z M387.307,640.004c59.227,0,118.453,0.015,177.68-0.014
		c10.407-0.005,16.554-6.02,15.814-15.548c-1.857-23.918-3.82-47.828-5.772-71.738c-4.093-50.134-8.226-100.265-12.305-150.401
		c-3.907-48.015-7.809-96.03-11.562-144.056c-0.264-3.381-1.447-4.131-4.547-4.086c-10.643,0.155-21.31,0.452-31.927-0.096
		c-5.868-0.303-6.84,1.688-6.795,7.067c0.265,31.547,0.173,63.097,0.108,94.645c-0.026,12.764-8.649,21.821-20.574,21.906
		c-12.109,0.086-20.917-9.049-20.958-22.168c-0.098-31.355-0.167-62.712,0.091-94.065c0.046-5.555-0.928-7.443-7.101-7.403
		c-47.999,0.311-96.001,0.287-144,0.026c-6.02-0.033-7.623,1.461-7.56,7.524c0.324,31.158,0.198,62.322,0.125,93.484
		c-0.03,13.072-8.196,22.167-19.966,22.585c-12.233,0.434-21.532-8.658-21.567-21.455c-0.088-32.323-0.107-64.646,0.064-96.968
		c0.022-4.104-1.103-5.222-5.159-5.119c-11.025,0.28-22.066,0.251-33.093,0.011c-3.779-0.082-4.772,1.126-5.042,4.83
		c-1.803,24.698-3.87,49.376-5.886,74.058c-4.11,50.327-8.279,100.649-12.354,150.979c-3.684,45.51-7.212,91.032-10.942,136.538
		c-1.174,14.322,3.346,19.464,17.871,19.465C270.402,640.007,328.855,640.005,387.307,640.004z M387.128,212.7
		c24.576,0,49.152-0.081,73.726,0.08c4.048,0.027,5.698-0.645,5.681-5.297c-0.156-43.527-35.463-78.836-79.184-78.895
		c-43.731-0.059-79.152,35.145-79.386,78.668c-0.023,4.282,1.029,5.583,5.436,5.545C337.976,212.589,362.552,212.7,387.128,212.7z"
		/>
</g>
</svg>
