<?xml version="1.0" encoding="iso-8859-1"?>
<!-- Generator: Adobe Illustrator 26.0.3, SVG Export Plug-In . SVG Version: 6.00 Build 0)  -->
<svg version="1.1" id="Camada_1" xmlns="http://www.w3.org/2000/svg" xmlns:xlink="http://www.w3.org/1999/xlink" x="0px" y="0px"
	 viewBox="0 0 328.235 189.882" style="enable-background:new 0 0 328.235 189.882;" xml:space="preserve">
<g>
	<g>
		<path style="fill:#FFFFFF;" d="M110.897,51.392H4.647v-7.804c0-11.046,8.954-20,20-20h86.25V51.392z"/>
		<path d="M111.397,51.892H4.147v-8.304c0-11.304,9.196-20.5,20.5-20.5h86.75V51.892z M5.147,50.892h105.25V24.088h-85.75
			c-10.752,0-19.5,8.748-19.5,19.5V50.892z"/>
	</g>
	<g>
		<rect x="110.897" y="23.588" style="fill:#FFFFFF;" width="106.25" height="27.804"/>
		<path d="M217.647,51.892h-107.25V23.088h107.25V51.892z M111.397,50.892h105.25V24.088h-105.25V50.892z"/>
	</g>
	<g>
		<path style="fill:#FFFFFF;" d="M323.397,51.392h-106.25V23.588h86.25c11.046,0,20,8.954,20,20V51.392z"/>
		<path d="M323.897,51.892h-107.25V23.088h86.75c11.304,0,20.5,9.196,20.5,20.5V51.892z M217.647,50.892h105.25v-7.304
			c0-10.752-8.748-19.5-19.5-19.5h-85.75V50.892z"/>
	</g>
	<g>
		<g>
			<path style="fill:#010202;" d="M59.945,35.117c0,1.871-1.403,3.034-3.646,3.034h-1.691v2.315h-1.943v-8.396h3.634
				C58.542,32.071,59.945,33.234,59.945,35.117z M57.979,35.117c0-0.923-0.6-1.463-1.787-1.463h-1.583v2.914h1.583
				C57.379,36.568,57.979,36.029,57.979,35.117z"/>
		</g>
	</g>
	<g>
		<g>
			<path style="fill:#010202;" d="M140.559,37.911c0,1.619-1.307,2.651-2.975,2.651c-2.254,0-3.526-1.511-3.526-4.186
				c0-2.866,1.619-4.401,3.97-4.401c0.792,0,1.547,0.156,2.087,0.492l-0.456,0.936c-0.432-0.288-1.008-0.396-1.607-0.396
				c-1.703,0-2.794,1.067-2.794,3.167c0,0.096,0,0.192,0.012,0.3c0.479-0.72,1.367-1.104,2.411-1.104
				C139.347,35.369,140.559,36.365,140.559,37.911z M139.395,37.959c0-0.983-0.744-1.619-1.919-1.619
				c-1.139,0-1.931,0.708-1.931,1.631c0,0.863,0.695,1.619,1.991,1.619C138.628,39.591,139.395,38.955,139.395,37.959z"/>
		</g>
		<g>
			<path style="fill:#010202;" d="M147.411,36.16c0,2.867-1.619,4.402-3.97,4.402c-0.792,0-1.547-0.156-2.087-0.492l0.456-0.935
				c0.444,0.288,1.008,0.396,1.619,0.396c1.703,0,2.783-1.067,2.783-3.166v-0.3c-0.492,0.731-1.379,1.103-2.423,1.103
				c-1.667,0-2.866-0.995-2.866-2.542c0-1.619,1.295-2.65,2.962-2.65C146.139,31.975,147.411,33.486,147.411,36.16z M145.936,34.565
				c0-0.863-0.696-1.619-2.003-1.619c-1.091,0-1.847,0.636-1.847,1.631c0,0.983,0.732,1.619,1.907,1.619
				C145.144,36.197,145.936,35.489,145.936,34.565z"/>
		</g>
		<g>
			<path style="fill:#010202;" d="M151.302,36.676h3.226v0.996h-3.226V36.676z"/>
		</g>
		<g>
			<path style="fill:#010202;" d="M164.535,32.071v0.816l-3.394,7.58h-1.271l3.322-7.352h-3.838v1.499h-1.151v-2.542H164.535z"/>
		</g>
		<g>
			<path style="fill:#010202;" d="M168.016,32.071v8.396h-1.188v-7.352h-1.895v-1.043H168.016z"/>
		</g>
		<g>
			<path style="fill:#010202;" d="M172.41,37.288c0-1.895,1.403-3.238,3.358-3.238c1.14,0,2.087,0.468,2.591,1.355l-0.875,0.563
				c-0.408-0.624-1.032-0.912-1.727-0.912c-1.248,0-2.183,0.875-2.183,2.231c0,1.379,0.936,2.243,2.183,2.243
				c0.695,0,1.319-0.288,1.727-0.912l0.875,0.552c-0.504,0.888-1.451,1.367-2.591,1.367C173.813,40.538,172.41,39.183,172.41,37.288
				z"/>
		</g>
		<g>
			<path style="fill:#010202;" d="M190.104,36.808v3.658h-1.151V36.94c0-1.248-0.6-1.859-1.643-1.859
				c-1.151,0-1.907,0.732-1.907,2.111v3.274h-1.151V36.94c0-1.248-0.6-1.859-1.643-1.859c-1.151,0-1.907,0.732-1.907,2.111v3.274
				h-1.151V34.11h1.104v0.947c0.456-0.647,1.235-1.007,2.195-1.007c0.971,0,1.787,0.384,2.207,1.175
				c0.48-0.72,1.367-1.175,2.447-1.175C189.048,34.05,190.104,34.937,190.104,36.808z"/>
		</g>
	</g>
	<g>
		<g>
			<path style="fill:#010202;" d="M245.764,37.948c0,1.451-1.031,2.615-3.178,2.615c-1.188,0-2.363-0.384-3.082-1.02l0.551-0.948
				c0.564,0.528,1.5,0.899,2.52,0.899c1.271,0,1.99-0.587,1.99-1.499c0-0.947-0.6-1.535-2.542-1.535h-1.907l0.443-4.39h4.738v1.043
				h-3.73l-0.228,2.303h0.936C244.782,35.417,245.764,36.46,245.764,37.948z"/>
		</g>
		<g>
			<path style="fill:#010202;" d="M252.149,37.995c0,1.416-1.044,2.567-3.179,2.567c-1.199,0-2.374-0.384-3.082-1.02l0.552-0.948
				c0.563,0.528,1.499,0.899,2.53,0.899c1.259,0,1.979-0.576,1.979-1.487c0-0.888-0.637-1.463-2.075-1.463h-0.672v-0.839l2.11-2.591
				h-4.041v-1.043h5.541v0.816l-2.195,2.71C251.297,35.753,252.149,36.7,252.149,37.995z"/>
		</g>
		<g>
			<path style="fill:#010202;" d="M256.004,36.676h3.226v0.996h-3.226V36.676z"/>
		</g>
		<g>
			<path style="fill:#010202;" d="M269.008,37.948c0,1.451-1.031,2.615-3.178,2.615c-1.188,0-2.363-0.384-3.082-1.02l0.551-0.948
				c0.564,0.528,1.5,0.899,2.52,0.899c1.271,0,1.99-0.587,1.99-1.499c0-0.947-0.6-1.535-2.543-1.535h-1.906l0.443-4.39h4.737v1.043
				h-3.729l-0.229,2.303h0.936C268.025,35.417,269.008,36.46,269.008,37.948z"/>
		</g>
		<g>
			<path style="fill:#010202;" d="M275.537,37.948c0,1.451-1.031,2.615-3.179,2.615c-1.188,0-2.362-0.384-3.082-1.02l0.552-0.948
				c0.563,0.528,1.499,0.899,2.519,0.899c1.271,0,1.991-0.587,1.991-1.499c0-0.947-0.6-1.535-2.542-1.535h-1.908l0.444-4.39h4.737
				v1.043h-3.73l-0.227,2.303h0.935C274.553,35.417,275.537,36.46,275.537,37.948z"/>
		</g>
		<g>
			<path style="fill:#010202;" d="M279.092,37.288c0-1.895,1.402-3.238,3.357-3.238c1.14,0,2.087,0.468,2.591,1.355l-0.876,0.563
				c-0.408-0.624-1.031-0.912-1.727-0.912c-1.248,0-2.184,0.875-2.184,2.231c0,1.379,0.936,2.243,2.184,2.243
				c0.695,0,1.318-0.288,1.727-0.912l0.876,0.552c-0.504,0.888-1.451,1.367-2.591,1.367
				C280.495,40.538,279.092,39.183,279.092,37.288z"/>
		</g>
		<g>
			<path style="fill:#010202;" d="M296.786,36.808v3.658h-1.151V36.94c0-1.248-0.6-1.859-1.644-1.859
				c-1.15,0-1.906,0.732-1.906,2.111v3.274h-1.151V36.94c0-1.248-0.6-1.859-1.644-1.859c-1.15,0-1.906,0.732-1.906,2.111v3.274
				h-1.152V34.11h1.104v0.947c0.456-0.647,1.236-1.007,2.195-1.007c0.971,0,1.787,0.384,2.207,1.175
				c0.479-0.72,1.367-1.175,2.446-1.175C295.731,34.05,296.786,34.937,296.786,36.808z"/>
		</g>
	</g>
	<g>
		<g>
			<path style="fill:#010202;" d="M37.848,11.907v1.559h-6.5V5.071h6.344V6.63h-4.414v1.823h3.898v1.511h-3.898v1.943H37.848z"/>
		</g>
		<g>
			<path style="fill:#010202;" d="M43.045,13.154c-0.384,0.276-0.948,0.408-1.523,0.408c-1.523,0-2.411-0.78-2.411-2.315v-2.65
				h-0.996V7.158h0.996V5.586h1.871v1.571h1.607v1.439h-1.607v2.626c0,0.552,0.3,0.852,0.804,0.852c0.276,0,0.551-0.084,0.755-0.24
				L43.045,13.154z"/>
		</g>
		<g>
			<path style="fill:#010202;" d="M43.576,5.071c0-0.587,0.468-1.043,1.163-1.043c0.696,0,1.164,0.432,1.164,1.008
				c0,0.624-0.468,1.079-1.164,1.079C44.044,6.114,43.576,5.659,43.576,5.071z M43.803,7.014h1.871v6.453h-1.871V7.014z"/>
		</g>
		<g>
			<path style="fill:#010202;" d="M53.664,7.014v8.779h-1.871v-3.01c-0.468,0.528-1.14,0.78-1.931,0.78
				c-1.823,0-3.226-1.295-3.226-3.322s1.403-3.322,3.226-3.322c0.864,0,1.547,0.276,2.015,0.839V7.014H53.664z M51.829,10.24
				c0-1.116-0.72-1.787-1.643-1.787c-0.936,0-1.655,0.671-1.655,1.787c0,1.115,0.72,1.787,1.655,1.787
				C51.109,12.027,51.829,11.355,51.829,10.24z"/>
		</g>
		<g>
			<path style="fill:#010202;" d="M61.596,7.014v6.453h-1.775v-0.768c-0.492,0.563-1.211,0.864-2.003,0.864
				c-1.619,0-2.758-0.912-2.758-2.903V7.014h1.871v3.37c0,1.08,0.479,1.56,1.307,1.56c0.863,0,1.487-0.552,1.487-1.739v-3.19H61.596
				z"/>
		</g>
		<g>
			<path style="fill:#010202;" d="M69.324,10.767h-4.881c0.18,0.804,0.864,1.295,1.847,1.295c0.684,0,1.175-0.204,1.619-0.624
				l0.996,1.08c-0.6,0.684-1.5,1.043-2.663,1.043c-2.231,0-3.682-1.403-3.682-3.322c0-1.931,1.475-3.322,3.442-3.322
				c1.895,0,3.358,1.271,3.358,3.346C69.36,10.408,69.336,10.612,69.324,10.767z M64.419,9.676h3.178
				c-0.132-0.815-0.744-1.343-1.583-1.343C65.162,8.333,64.55,8.848,64.419,9.676z"/>
		</g>
		<g>
			<path style="fill:#010202;" d="M74.473,13.154c-0.384,0.276-0.948,0.408-1.523,0.408c-1.523,0-2.411-0.78-2.411-2.315v-2.65
				h-0.996V7.158h0.996V5.586h1.871v1.571h1.607v1.439H72.41v2.626c0,0.552,0.3,0.852,0.804,0.852c0.276,0,0.551-0.084,0.755-0.24
				L74.473,13.154z"/>
		</g>
		<g>
			<path style="fill:#010202;" d="M80.94,9.784v3.682h-1.751v-0.804c-0.348,0.588-1.02,0.9-1.967,0.9
				c-1.511,0-2.411-0.84-2.411-1.955c0-1.14,0.803-1.931,2.771-1.931h1.487c0-0.803-0.479-1.271-1.487-1.271
				c-0.684,0-1.391,0.228-1.859,0.6l-0.672-1.308c0.708-0.503,1.751-0.779,2.783-0.779C79.801,6.918,80.94,7.829,80.94,9.784z
				 M79.069,11.427v-0.66h-1.283c-0.875,0-1.151,0.324-1.151,0.756c0,0.468,0.396,0.779,1.056,0.779
				C78.314,12.303,78.853,12.015,79.069,11.427z"/>
		</g>
	</g>
	<g>
		<g>
			<path style="fill:#010202;" d="M120.564,9.268c0-2.531,1.943-4.342,4.558-4.342c1.451,0,2.663,0.528,3.454,1.487l-1.248,1.151
				c-0.563-0.647-1.271-0.983-2.111-0.983c-1.571,0-2.687,1.104-2.687,2.687s1.115,2.687,2.687,2.687
				c0.84,0,1.547-0.336,2.111-0.996l1.248,1.151c-0.792,0.972-2.003,1.5-3.466,1.5C122.507,13.61,120.564,11.799,120.564,9.268z"/>
		</g>
		<g>
			<path style="fill:#010202;" d="M128.748,10.24c0-1.943,1.499-3.322,3.55-3.322c2.051,0,3.538,1.379,3.538,3.322
				s-1.487,3.322-3.538,3.322C130.247,13.562,128.748,12.183,128.748,10.24z M133.941,10.24c0-1.116-0.708-1.787-1.643-1.787
				c-0.936,0-1.655,0.671-1.655,1.787c0,1.115,0.72,1.787,1.655,1.787C133.233,12.027,133.941,11.355,133.941,10.24z"/>
		</g>
		<g>
			<path style="fill:#010202;" d="M147.69,9.772v3.694h-1.871V10.06c0-1.043-0.468-1.523-1.223-1.523
				c-0.84,0-1.427,0.54-1.427,1.691v3.238h-1.871V10.06c0-1.043-0.444-1.523-1.223-1.523c-0.828,0-1.416,0.54-1.416,1.691v3.238
				h-1.871V7.014h1.787v0.744c0.48-0.552,1.2-0.839,2.027-0.839c0.9,0,1.667,0.348,2.123,1.055c0.516-0.66,1.355-1.055,2.327-1.055
				C146.586,6.918,147.69,7.806,147.69,9.772z"/>
		</g>
		<g>
			<path style="fill:#010202;" d="M156.104,10.24c0,2.027-1.403,3.322-3.214,3.322c-0.803,0-1.463-0.252-1.943-0.78v3.01h-1.871
				V7.014h1.787v0.744c0.468-0.563,1.164-0.839,2.027-0.839C154.7,6.918,156.104,8.213,156.104,10.24z M154.209,10.24
				c0-1.116-0.708-1.787-1.643-1.787s-1.643,0.671-1.643,1.787c0,1.115,0.708,1.787,1.643,1.787S154.209,11.355,154.209,10.24z"/>
		</g>
		<g>
			<path style="fill:#010202;" d="M161.061,6.918v1.727c-0.156-0.012-0.276-0.024-0.419-0.024c-1.032,0-1.715,0.563-1.715,1.799
				v3.046h-1.871V7.014h1.787v0.852C159.298,7.242,160.066,6.918,161.061,6.918z"/>
		</g>
		<g>
			<path style="fill:#010202;" d="M161.652,5.071c0-0.587,0.468-1.043,1.163-1.043c0.696,0,1.164,0.432,1.164,1.008
				c0,0.624-0.468,1.079-1.164,1.079C162.12,6.114,161.652,5.659,161.652,5.071z M161.879,7.014h1.871v6.453h-1.871V7.014z"/>
		</g>
		<g>
			<path style="fill:#010202;" d="M176.093,9.772v3.694h-1.871V10.06c0-1.043-0.468-1.523-1.223-1.523
				c-0.84,0-1.427,0.54-1.427,1.691v3.238h-1.871V10.06c0-1.043-0.444-1.523-1.223-1.523c-0.828,0-1.416,0.54-1.416,1.691v3.238
				h-1.871V7.014h1.787v0.744c0.48-0.552,1.2-0.839,2.027-0.839c0.9,0,1.667,0.348,2.123,1.055c0.516-0.66,1.355-1.055,2.327-1.055
				C174.99,6.918,176.093,7.806,176.093,9.772z"/>
		</g>
		<g>
			<path style="fill:#010202;" d="M183.836,10.767h-4.881c0.18,0.804,0.864,1.295,1.847,1.295c0.684,0,1.175-0.204,1.619-0.624
				l0.996,1.08c-0.6,0.684-1.5,1.043-2.663,1.043c-2.231,0-3.682-1.403-3.682-3.322c0-1.931,1.475-3.322,3.442-3.322
				c1.895,0,3.358,1.271,3.358,3.346C183.872,10.408,183.848,10.612,183.836,10.767z M178.93,9.676h3.178
				c-0.132-0.815-0.744-1.343-1.583-1.343C179.674,8.333,179.062,8.848,178.93,9.676z"/>
		</g>
		<g>
			<path style="fill:#010202;" d="M191.42,9.772v3.694h-1.871V10.06c0-1.043-0.479-1.523-1.307-1.523
				c-0.899,0-1.547,0.552-1.547,1.739v3.19h-1.871V7.014h1.787v0.756c0.504-0.552,1.259-0.852,2.135-0.852
				C190.268,6.918,191.42,7.806,191.42,9.772z"/>
		</g>
		<g>
			<path style="fill:#010202;" d="M196.977,13.154c-0.384,0.276-0.948,0.408-1.523,0.408c-1.523,0-2.411-0.78-2.411-2.315v-2.65
				h-0.996V7.158h0.996V5.586h1.871v1.571h1.607v1.439h-1.607v2.626c0,0.552,0.3,0.852,0.804,0.852c0.276,0,0.551-0.084,0.755-0.24
				L196.977,13.154z"/>
		</g>
		<g>
			<path style="fill:#010202;" d="M197.051,10.24c0-1.943,1.499-3.322,3.55-3.322c2.051,0,3.538,1.379,3.538,3.322
				s-1.487,3.322-3.538,3.322C198.55,13.562,197.051,12.183,197.051,10.24z M202.245,10.24c0-1.116-0.708-1.787-1.644-1.787
				c-0.935,0-1.655,0.671-1.655,1.787c0,1.115,0.72,1.787,1.655,1.787C201.537,12.027,202.245,11.355,202.245,10.24z"/>
		</g>
	</g>
	<g>
		<g>
			<path style="fill:#010202;" d="M245.996,5.071h1.942v6.812h4.21v1.583h-6.152V5.071z"/>
		</g>
		<g>
			<path style="fill:#010202;" d="M258.592,9.784v3.682h-1.751v-0.804c-0.348,0.588-1.02,0.9-1.967,0.9
				c-1.511,0-2.411-0.84-2.411-1.955c0-1.14,0.804-1.931,2.771-1.931h1.486c0-0.803-0.479-1.271-1.486-1.271
				c-0.684,0-1.392,0.228-1.859,0.6l-0.672-1.308c0.707-0.503,1.751-0.779,2.783-0.779C257.454,6.918,258.592,7.829,258.592,9.784z
				 M256.721,11.427v-0.66h-1.283c-0.875,0-1.151,0.324-1.151,0.756c0,0.468,0.396,0.779,1.056,0.779
				C255.965,12.303,256.505,12.015,256.721,11.427z"/>
		</g>
		<g>
			<path style="fill:#010202;" d="M263.993,6.918v1.727c-0.156-0.012-0.275-0.024-0.42-0.024c-1.031,0-1.715,0.563-1.715,1.799
				v3.046h-1.871V7.014h1.787v0.852C262.23,7.242,262.998,6.918,263.993,6.918z"/>
		</g>
		<g>
			<path style="fill:#010202;" d="M271.408,7.014v5.373c0,2.399-1.296,3.502-3.622,3.502c-1.224,0-2.41-0.3-3.166-0.888l0.743-1.343
				c0.552,0.444,1.451,0.731,2.278,0.731c1.32,0,1.896-0.6,1.896-1.763v-0.276c-0.491,0.54-1.199,0.803-2.039,0.803
				c-1.787,0-3.226-1.235-3.226-3.118s1.438-3.118,3.226-3.118c0.899,0,1.644,0.3,2.135,0.923V7.014H271.408z M269.561,10.036
				c0-0.947-0.708-1.583-1.691-1.583s-1.703,0.636-1.703,1.583c0,0.948,0.72,1.583,1.703,1.583S269.561,10.984,269.561,10.036z"/>
		</g>
		<g>
			<path style="fill:#010202;" d="M279.352,7.014v6.453h-1.775v-0.768c-0.492,0.563-1.211,0.864-2.003,0.864
				c-1.619,0-2.759-0.912-2.759-2.903V7.014h1.871v3.37c0,1.08,0.48,1.56,1.308,1.56c0.863,0,1.487-0.552,1.487-1.739v-3.19H279.352
				z"/>
		</g>
		<g>
			<path style="fill:#010202;" d="M284.801,6.918v1.727c-0.156-0.012-0.276-0.024-0.42-0.024c-1.031,0-1.715,0.563-1.715,1.799
				v3.046h-1.871V7.014h1.787v0.852C283.038,7.242,283.805,6.918,284.801,6.918z"/>
		</g>
		<g>
			<path style="fill:#010202;" d="M291.292,9.784v3.682h-1.75v-0.804c-0.348,0.588-1.02,0.9-1.967,0.9
				c-1.512,0-2.411-0.84-2.411-1.955c0-1.14,0.804-1.931,2.771-1.931h1.487c0-0.803-0.479-1.271-1.487-1.271
				c-0.684,0-1.392,0.228-1.859,0.6l-0.672-1.308c0.708-0.503,1.752-0.779,2.783-0.779C290.153,6.918,291.292,7.829,291.292,9.784z
				 M289.421,11.427v-0.66h-1.284c-0.875,0-1.15,0.324-1.15,0.756c0,0.468,0.396,0.779,1.055,0.779
				C288.666,12.303,289.206,12.015,289.421,11.427z"/>
		</g>
	</g>
	<g>
		<rect x="4.647" y="50.588" style="fill:#FFFFFF;" width="106.25" height="27.804"/>
		<path d="M111.397,78.892H4.147V50.088h107.25V78.892z M5.147,77.892h105.25V51.088H5.147V77.892z"/>
	</g>
	<g>
		<rect x="110.897" y="50.588" style="fill:#FFFFFF;" width="106.25" height="27.804"/>
		<path d="M217.647,78.892h-107.25V50.088h107.25V78.892z M111.397,77.892h105.25V51.088h-105.25V77.892z"/>
	</g>
	<g>
		<rect x="217.147" y="50.588" style="fill:#FFFFFF;" width="106.25" height="27.804"/>
		<path d="M323.897,78.892h-107.25V50.088h107.25V78.892z M217.647,77.892h105.25V51.088h-105.25V77.892z"/>
	</g>
	<g>
		<g>
			<path style="fill:#010202;" d="M58.967,67.466l-0.012-5.037l-2.47,4.149h-0.876l-2.458-4.042v4.929h-1.823v-8.396h1.607
				l3.142,5.217l3.095-5.217h1.595l0.024,8.396H58.967z"/>
		</g>
	</g>
	<g>
		<g>
			<path style="fill:#010202;" d="M140.607,59.071v0.816l-3.394,7.58h-1.271l3.322-7.352h-3.838v1.499h-1.151v-2.542H140.607z"/>
		</g>
		<g>
			<path style="fill:#010202;" d="M144.088,59.071v8.396h-1.188v-7.352h-1.895v-1.043H144.088z"/>
		</g>
		<g>
			<path style="fill:#010202;" d="M148.662,63.676h3.226v0.996h-3.226V63.676z"/>
		</g>
		<g>
			<path style="fill:#010202;" d="M161.895,59.071v0.816l-3.394,7.58h-1.271l3.322-7.352h-3.838v1.499h-1.151v-2.542H161.895z"/>
		</g>
		<g>
			<path style="fill:#010202;" d="M168.302,64.995c0,1.416-1.043,2.567-3.178,2.567c-1.199,0-2.375-0.384-3.082-1.02l0.552-0.948
				c0.563,0.528,1.499,0.899,2.53,0.899c1.259,0,1.979-0.576,1.979-1.487c0-0.888-0.636-1.463-2.075-1.463h-0.672v-0.839
				l2.111-2.591h-4.042v-1.043h5.541v0.816l-2.195,2.71C167.451,62.753,168.302,63.7,168.302,64.995z"/>
		</g>
		<g>
			<path style="fill:#010202;" d="M171.978,64.288c0-1.895,1.403-3.238,3.358-3.238c1.14,0,2.087,0.468,2.591,1.355l-0.875,0.563
				c-0.408-0.624-1.032-0.912-1.727-0.912c-1.248,0-2.183,0.875-2.183,2.231c0,1.379,0.936,2.243,2.183,2.243
				c0.695,0,1.319-0.288,1.727-0.912l0.875,0.552c-0.504,0.888-1.451,1.367-2.591,1.367
				C173.381,67.538,171.978,66.183,171.978,64.288z"/>
		</g>
		<g>
			<path style="fill:#010202;" d="M189.671,63.808v3.658h-1.151V63.94c0-1.248-0.6-1.859-1.643-1.859
				c-1.151,0-1.907,0.732-1.907,2.111v3.274h-1.151V63.94c0-1.248-0.6-1.859-1.643-1.859c-1.151,0-1.907,0.732-1.907,2.111v3.274
				h-1.151V61.11h1.104v0.947c0.456-0.647,1.235-1.007,2.195-1.007c0.971,0,1.787,0.384,2.207,1.175
				c0.48-0.72,1.368-1.175,2.447-1.175C188.616,61.05,189.671,61.937,189.671,63.808z"/>
		</g>
	</g>
	<g>
		<g>
			<path style="fill:#010202;" d="M245.657,64.948c0,1.451-1.031,2.615-3.178,2.615c-1.188,0-2.363-0.384-3.082-1.02l0.551-0.948
				c0.564,0.528,1.5,0.899,2.52,0.899c1.271,0,1.99-0.587,1.99-1.499c0-0.947-0.6-1.535-2.543-1.535h-1.906l0.443-4.39h4.737v1.043
				h-3.729l-0.229,2.303h0.936C244.673,62.417,245.657,63.46,245.657,64.948z"/>
		</g>
		<g>
			<path style="fill:#010202;" d="M252.184,64.948c0,1.451-1.031,2.615-3.178,2.615c-1.188,0-2.363-0.384-3.082-1.02l0.551-0.948
				c0.564,0.528,1.5,0.899,2.52,0.899c1.271,0,1.99-0.587,1.99-1.499c0-0.947-0.6-1.535-2.542-1.535h-1.907l0.443-4.39h4.738v1.043
				h-3.73l-0.228,2.303h0.936C251.202,62.417,252.184,63.46,252.184,64.948z"/>
		</g>
		<g>
			<path style="fill:#010202;" d="M255.921,63.676h3.226v0.996h-3.226V63.676z"/>
		</g>
		<g>
			<path style="fill:#010202;" d="M268.924,64.948c0,1.451-1.031,2.615-3.178,2.615c-1.188,0-2.363-0.384-3.082-1.02l0.551-0.948
				c0.564,0.528,1.5,0.899,2.52,0.899c1.271,0,1.99-0.587,1.99-1.499c0-0.947-0.6-1.535-2.543-1.535h-1.906l0.443-4.39h4.737v1.043
				h-3.729l-0.229,2.303h0.936C267.941,62.417,268.924,63.46,268.924,64.948z"/>
		</g>
		<g>
			<path style="fill:#010202;" d="M275.585,59.071v0.816l-3.395,7.58h-1.271l3.322-7.352h-3.838v1.499h-1.15v-2.542H275.585z"/>
		</g>
		<g>
			<path style="fill:#010202;" d="M279.2,64.288c0-1.895,1.403-3.238,3.358-3.238c1.14,0,2.087,0.468,2.591,1.355l-0.875,0.563
				c-0.408-0.624-1.032-0.912-1.728-0.912c-1.247,0-2.183,0.875-2.183,2.231c0,1.379,0.936,2.243,2.183,2.243
				c0.695,0,1.319-0.288,1.728-0.912l0.875,0.552c-0.504,0.888-1.451,1.367-2.591,1.367C280.603,67.538,279.2,66.183,279.2,64.288z"
				/>
		</g>
		<g>
			<path style="fill:#010202;" d="M296.893,63.808v3.658h-1.15V63.94c0-1.248-0.6-1.859-1.644-1.859
				c-1.151,0-1.907,0.732-1.907,2.111v3.274h-1.15V63.94c0-1.248-0.6-1.859-1.644-1.859c-1.151,0-1.907,0.732-1.907,2.111v3.274
				h-1.151V61.11h1.104v0.947c0.456-0.647,1.235-1.007,2.194-1.007c0.972,0,1.787,0.384,2.207,1.175
				c0.48-0.72,1.367-1.175,2.447-1.175C295.838,61.05,296.893,61.937,296.893,63.808z"/>
		</g>
	</g>
	<g>
		<rect x="4.647" y="77.588" style="fill:#FFFFFF;" width="106.25" height="27.804"/>
		<path d="M111.397,105.892H4.147V77.088h107.25V105.892z M5.147,104.892h105.25V78.088H5.147V104.892z"/>
	</g>
	<g>
		<rect x="110.897" y="77.588" style="fill:#FFFFFF;" width="106.25" height="27.804"/>
		<path d="M217.647,105.892h-107.25V77.088h107.25V105.892z M111.397,104.892h105.25V78.088h-105.25V104.892z"/>
	</g>
	<g>
		<rect x="217.147" y="77.588" style="fill:#FFFFFF;" width="106.25" height="27.804"/>
		<path d="M323.897,105.892h-107.25V77.088h107.25V105.892z M217.647,104.892h105.25V78.088h-105.25V104.892z"/>
	</g>
	<g>
		<g>
			<path style="fill:#010202;" d="M58.105,90.137h1.775v3.406c-0.923,0.695-2.195,1.067-3.394,1.067
				c-2.639,0-4.582-1.811-4.582-4.342s1.943-4.342,4.617-4.342c1.476,0,2.699,0.504,3.514,1.452l-1.247,1.151
				c-0.612-0.648-1.319-0.948-2.171-0.948c-1.631,0-2.747,1.091-2.747,2.687c0,1.571,1.115,2.687,2.723,2.687
				c0.528,0,1.02-0.096,1.511-0.36V90.137z"/>
		</g>
	</g>
	<g>
		<g>
			<path style="fill:#010202;" d="M139.551,86.071v0.816l-3.394,7.58h-1.271l3.322-7.352h-3.838v1.499h-1.151v-2.542H139.551z"/>
		</g>
		<g>
			<path style="fill:#010202;" d="M145.959,91.995c0,1.416-1.043,2.567-3.178,2.567c-1.199,0-2.375-0.384-3.082-1.02l0.552-0.948
				c0.563,0.528,1.499,0.899,2.53,0.899c1.259,0,1.979-0.576,1.979-1.487c0-0.888-0.636-1.463-2.075-1.463h-0.672v-0.839
				l2.111-2.591h-4.042v-1.043h5.541v0.816l-2.195,2.71C145.107,89.753,145.959,90.7,145.959,91.995z"/>
		</g>
		<g>
			<path style="fill:#010202;" d="M149.814,90.676h3.226v0.996h-3.226V90.676z"/>
		</g>
		<g>
			<path style="fill:#010202;" d="M163.046,86.071v0.816l-3.394,7.58h-1.271l3.322-7.352h-3.838v1.499h-1.151v-2.542H163.046z"/>
		</g>
		<g>
			<path style="fill:#010202;" d="M169.479,91.948c0,1.451-1.031,2.615-3.178,2.615c-1.188,0-2.363-0.384-3.082-1.02l0.551-0.948
				c0.564,0.528,1.5,0.899,2.519,0.899c1.271,0,1.991-0.587,1.991-1.499c0-0.947-0.6-1.535-2.542-1.535h-1.907l0.444-4.39h4.737
				v1.043h-3.73l-0.228,2.303h0.936C168.495,89.417,169.479,90.46,169.479,91.948z"/>
		</g>
		<g>
			<path style="fill:#010202;" d="M173.034,91.288c0-1.895,1.403-3.238,3.358-3.238c1.14,0,2.087,0.468,2.591,1.355l-0.875,0.563
				c-0.408-0.624-1.032-0.912-1.727-0.912c-1.248,0-2.183,0.875-2.183,2.231c0,1.379,0.936,2.243,2.183,2.243
				c0.695,0,1.319-0.288,1.727-0.912l0.875,0.552c-0.504,0.888-1.451,1.367-2.591,1.367
				C174.437,94.538,173.034,93.183,173.034,91.288z"/>
		</g>
		<g>
			<path style="fill:#010202;" d="M190.728,90.808v3.658h-1.151V90.94c0-1.248-0.6-1.859-1.643-1.859
				c-1.151,0-1.907,0.732-1.907,2.111v3.274h-1.151V90.94c0-1.248-0.6-1.859-1.643-1.859c-1.151,0-1.907,0.732-1.907,2.111v3.274
				h-1.151V88.11h1.104v0.947c0.456-0.647,1.235-1.007,2.195-1.007c0.971,0,1.787,0.384,2.207,1.175
				c0.48-0.72,1.367-1.175,2.447-1.175C189.672,88.05,190.728,88.937,190.728,90.808z"/>
		</g>
	</g>
	<g>
		<g>
			<path style="fill:#010202;" d="M245.207,91.948c0,1.451-1.031,2.615-3.179,2.615c-1.188,0-2.362-0.384-3.082-1.02l0.552-0.948
				c0.563,0.528,1.499,0.899,2.519,0.899c1.271,0,1.991-0.587,1.991-1.499c0-0.947-0.6-1.535-2.542-1.535h-1.908l0.444-4.39h4.737
				v1.043h-3.73l-0.227,2.303h0.935C244.223,89.417,245.207,90.46,245.207,91.948z"/>
		</g>
		<g>
			<path style="fill:#010202;" d="M251.867,86.071v0.816l-3.394,7.58h-1.271l3.322-7.352h-3.838v1.499h-1.152v-2.542H251.867z"/>
		</g>
		<g>
			<path style="fill:#010202;" d="M255.662,90.676h3.226v0.996h-3.226V90.676z"/>
		</g>
		<g>
			<path style="fill:#010202;" d="M268.667,91.948c0,1.451-1.031,2.615-3.178,2.615c-1.188,0-2.363-0.384-3.082-1.02l0.551-0.948
				c0.564,0.528,1.5,0.899,2.52,0.899c1.271,0,1.99-0.587,1.99-1.499c0-0.947-0.6-1.535-2.543-1.535h-1.906l0.443-4.39h4.737v1.043
				h-3.729l-0.229,2.303h0.936C267.683,89.417,268.667,90.46,268.667,91.948z"/>
		</g>
		<g>
			<path style="fill:#010202;" d="M275.986,92.092c0,1.523-1.295,2.471-3.346,2.471c-2.039,0-3.322-0.948-3.322-2.471
				c0-0.959,0.527-1.667,1.476-2.027c-0.768-0.36-1.176-0.984-1.176-1.811c0-1.403,1.211-2.279,3.022-2.279
				c1.823,0,3.046,0.875,3.046,2.279c0,0.827-0.42,1.451-1.188,1.811C275.459,90.436,275.986,91.132,275.986,92.092z
				 M274.787,92.056c0-0.923-0.815-1.499-2.146-1.499s-2.123,0.576-2.123,1.499c0,0.947,0.792,1.535,2.123,1.535
				S274.787,93.003,274.787,92.056z M270.805,88.302c0,0.828,0.684,1.343,1.835,1.343c1.163,0,1.87-0.516,1.87-1.343
				c0-0.84-0.743-1.355-1.87-1.355C271.512,86.946,270.805,87.462,270.805,88.302z"/>
		</g>
		<g>
			<path style="fill:#010202;" d="M279.65,91.288c0-1.895,1.403-3.238,3.358-3.238c1.139,0,2.086,0.468,2.59,1.355l-0.875,0.563
				c-0.408-0.624-1.031-0.912-1.727-0.912c-1.248,0-2.184,0.875-2.184,2.231c0,1.379,0.936,2.243,2.184,2.243
				c0.695,0,1.318-0.288,1.727-0.912l0.875,0.552c-0.504,0.888-1.451,1.367-2.59,1.367C281.053,94.538,279.65,93.183,279.65,91.288z
				"/>
		</g>
		<g>
			<path style="fill:#010202;" d="M297.343,90.808v3.658h-1.151V90.94c0-1.248-0.6-1.859-1.643-1.859
				c-1.152,0-1.907,0.732-1.907,2.111v3.274h-1.151V90.94c0-1.248-0.6-1.859-1.643-1.859c-1.152,0-1.908,0.732-1.908,2.111v3.274
				h-1.15V88.11h1.104v0.947c0.455-0.647,1.234-1.007,2.194-1.007c0.972,0,1.787,0.384,2.206,1.175
				c0.48-0.72,1.368-1.175,2.447-1.175C296.288,88.05,297.343,88.937,297.343,90.808z"/>
		</g>
	</g>
	<g>
		<rect x="4.647" y="104.588" style="fill:#FFFFFF;" width="106.25" height="27.804"/>
		<path d="M111.397,132.892H4.147v-28.804h107.25V132.892z M5.147,131.892h105.25v-26.804H5.147V131.892z"/>
	</g>
	<g>
		<rect x="110.897" y="104.588" style="fill:#FFFFFF;" width="106.25" height="27.804"/>
		<path d="M217.647,132.892h-107.25v-28.804h107.25V132.892z M111.397,131.892h105.25v-26.804h-105.25V131.892z"/>
	</g>
	<g>
		<rect x="217.147" y="104.588" style="fill:#FFFFFF;" width="106.25" height="27.804"/>
		<path d="M323.897,132.892h-107.25v-28.804h107.25V132.892z M217.647,131.892h105.25v-26.804h-105.25V131.892z"/>
	</g>
	<g>
		<g>
			<g>
				<path style="fill:#010202;" d="M53.629,117.137h1.775v3.406c-0.923,0.695-2.195,1.067-3.394,1.067
					c-2.639,0-4.582-1.811-4.582-4.342s1.943-4.342,4.618-4.342c1.475,0,2.698,0.504,3.514,1.452l-1.247,1.151
					c-0.612-0.648-1.319-0.948-2.171-0.948c-1.631,0-2.747,1.091-2.747,2.687c0,1.571,1.116,2.687,2.723,2.687
					c0.528,0,1.02-0.096,1.511-0.36V117.137z"/>
			</g>
			<g>
				<path style="fill:#010202;" d="M62.581,117.137h1.775v3.406c-0.923,0.695-2.195,1.067-3.394,1.067
					c-2.639,0-4.582-1.811-4.582-4.342s1.943-4.342,4.618-4.342c1.475,0,2.698,0.504,3.514,1.452l-1.247,1.151
					c-0.612-0.648-1.319-0.948-2.171-0.948c-1.631,0-2.747,1.091-2.747,2.687c0,1.571,1.116,2.687,2.723,2.687
					c0.528,0,1.02-0.096,1.511-0.36V117.137z"/>
			</g>
		</g>
	</g>
	<g>
		<g>
			<path style="fill:#010202;" d="M139.179,113.071v0.816l-3.394,7.58h-1.271l3.322-7.352h-3.838v1.499h-1.151v-2.542H139.179z"/>
		</g>
		<g>
			<path style="fill:#010202;" d="M145.611,118.948c0,1.451-1.031,2.615-3.178,2.615c-1.188,0-2.363-0.384-3.082-1.02l0.551-0.948
				c0.564,0.528,1.5,0.899,2.519,0.899c1.271,0,1.991-0.587,1.991-1.499c0-0.947-0.6-1.535-2.542-1.535h-1.907l0.444-4.39h4.737
				v1.043h-3.73l-0.228,2.303h0.935C144.628,116.417,145.611,117.46,145.611,118.948z"/>
		</g>
		<g>
			<path style="fill:#010202;" d="M149.346,117.676h3.226v0.996h-3.226V117.676z"/>
		</g>
		<g>
			<path style="fill:#010202;" d="M162.579,113.071v0.816l-3.394,7.58h-1.271l3.322-7.352h-3.838v1.499h-1.151v-2.542H162.579z"/>
		</g>
		<g>
			<path style="fill:#010202;" d="M169.742,119.092c0,1.523-1.295,2.471-3.346,2.471c-2.039,0-3.322-0.948-3.322-2.471
				c0-0.959,0.527-1.667,1.475-2.027c-0.768-0.36-1.175-0.984-1.175-1.811c0-1.403,1.211-2.279,3.022-2.279
				c1.823,0,3.046,0.875,3.046,2.279c0,0.827-0.419,1.451-1.187,1.811C169.214,117.436,169.742,118.132,169.742,119.092z
				 M168.543,119.056c0-0.923-0.815-1.499-2.146-1.499c-1.332,0-2.123,0.576-2.123,1.499c0,0.947,0.792,1.535,2.123,1.535
				C167.727,120.591,168.543,120.003,168.543,119.056z M164.561,115.302c0,0.828,0.684,1.343,1.835,1.343
				c1.163,0,1.871-0.516,1.871-1.343c0-0.84-0.744-1.355-1.871-1.355C165.269,113.946,164.561,114.462,164.561,115.302z"/>
		</g>
		<g>
			<path style="fill:#010202;" d="M173.406,118.288c0-1.895,1.403-3.238,3.358-3.238c1.14,0,2.087,0.468,2.591,1.355l-0.875,0.563
				c-0.408-0.624-1.032-0.912-1.727-0.912c-1.248,0-2.183,0.875-2.183,2.231c0,1.379,0.936,2.243,2.183,2.243
				c0.695,0,1.319-0.288,1.727-0.912l0.875,0.552c-0.504,0.888-1.451,1.367-2.591,1.367
				C174.809,121.538,173.406,120.183,173.406,118.288z"/>
		</g>
		<g>
			<path style="fill:#010202;" d="M191.1,117.808v3.658h-1.151v-3.526c0-1.248-0.6-1.859-1.643-1.859
				c-1.151,0-1.907,0.732-1.907,2.111v3.274h-1.151v-3.526c0-1.248-0.6-1.859-1.643-1.859c-1.151,0-1.907,0.732-1.907,2.111v3.274
				h-1.151v-6.356h1.104v0.947c0.456-0.647,1.235-1.007,2.195-1.007c0.971,0,1.787,0.384,2.207,1.175
				c0.48-0.72,1.367-1.175,2.447-1.175C190.045,115.05,191.1,115.937,191.1,117.808z"/>
		</g>
	</g>
	<g>
		<g>
			<path style="fill:#010202;" d="M244.457,118.948c0,1.451-1.031,2.615-3.179,2.615c-1.188,0-2.362-0.384-3.082-1.02l0.552-0.948
				c0.563,0.528,1.499,0.899,2.519,0.899c1.271,0,1.991-0.587,1.991-1.499c0-0.947-0.6-1.535-2.542-1.535h-1.908l0.444-4.39h4.737
				v1.043h-3.73l-0.227,2.303h0.935C243.473,116.417,244.457,117.46,244.457,118.948z"/>
		</g>
		<g>
			<path style="fill:#010202;" d="M251.776,119.092c0,1.523-1.295,2.471-3.346,2.471c-2.039,0-3.322-0.948-3.322-2.471
				c0-0.959,0.527-1.667,1.475-2.027c-0.768-0.36-1.175-0.984-1.175-1.811c0-1.403,1.212-2.279,3.022-2.279
				c1.822,0,3.046,0.875,3.046,2.279c0,0.827-0.419,1.451-1.187,1.811C251.249,117.436,251.776,118.132,251.776,119.092z
				 M250.577,119.056c0-0.923-0.815-1.499-2.146-1.499c-1.332,0-2.123,0.576-2.123,1.499c0,0.947,0.791,1.535,2.123,1.535
				C249.761,120.591,250.577,120.003,250.577,119.056z M246.595,115.302c0,0.828,0.684,1.343,1.835,1.343
				c1.163,0,1.871-0.516,1.871-1.343c0-0.84-0.744-1.355-1.871-1.355S246.595,114.462,246.595,115.302z"/>
		</g>
		<g>
			<path style="fill:#010202;" d="M255.62,117.676h3.227v0.996h-3.227V117.676z"/>
		</g>
		<g>
			<path style="fill:#010202;" d="M269.236,118.911c0,1.619-1.308,2.651-2.975,2.651c-2.255,0-3.526-1.511-3.526-4.186
				c0-2.866,1.619-4.401,3.971-4.401c0.791,0,1.547,0.156,2.086,0.492l-0.455,0.936c-0.432-0.288-1.008-0.396-1.607-0.396
				c-1.703,0-2.795,1.067-2.795,3.167c0,0.096,0,0.192,0.013,0.3c0.479-0.72,1.367-1.104,2.411-1.104
				C268.024,116.369,269.236,117.365,269.236,118.911z M268.073,118.959c0-0.983-0.744-1.619-1.92-1.619
				c-1.139,0-1.93,0.708-1.93,1.631c0,0.863,0.695,1.619,1.99,1.619C267.305,120.591,268.073,119.955,268.073,118.959z"/>
		</g>
		<g>
			<path style="fill:#010202;" d="M269.839,117.268c0-2.734,1.464-4.293,3.431-4.293c1.955,0,3.418,1.559,3.418,4.293
				s-1.463,4.294-3.418,4.294C271.303,121.562,269.839,120.003,269.839,117.268z M275.489,117.268c0-2.147-0.912-3.226-2.219-3.226
				c-1.32,0-2.231,1.079-2.231,3.226s0.911,3.226,2.231,3.226C274.577,120.494,275.489,119.415,275.489,117.268z"/>
		</g>
		<g>
			<path style="fill:#010202;" d="M280.399,118.288c0-1.895,1.403-3.238,3.358-3.238c1.14,0,2.087,0.468,2.591,1.355l-0.875,0.563
				c-0.408-0.624-1.032-0.912-1.728-0.912c-1.247,0-2.183,0.875-2.183,2.231c0,1.379,0.936,2.243,2.183,2.243
				c0.695,0,1.319-0.288,1.728-0.912l0.875,0.552c-0.504,0.888-1.451,1.367-2.591,1.367
				C281.802,121.538,280.399,120.183,280.399,118.288z"/>
		</g>
		<g>
			<path style="fill:#010202;" d="M298.093,117.808v3.658h-1.151v-3.526c0-1.248-0.6-1.859-1.643-1.859
				c-1.152,0-1.907,0.732-1.907,2.111v3.274h-1.151v-3.526c0-1.248-0.6-1.859-1.643-1.859c-1.152,0-1.908,0.732-1.908,2.111v3.274
				h-1.15v-6.356h1.104v0.947c0.455-0.647,1.234-1.007,2.194-1.007c0.972,0,1.787,0.384,2.206,1.175
				c0.48-0.72,1.368-1.175,2.447-1.175C297.038,115.05,298.093,115.937,298.093,117.808z"/>
		</g>
	</g>
	<g>
		<rect x="4.647" y="131.588" style="fill:#FFFFFF;" width="106.25" height="27.804"/>
		<path d="M111.397,159.892H4.147v-28.804h107.25V159.892z M5.147,158.892h105.25v-26.804H5.147V158.892z"/>
	</g>
	<g>
		<rect x="110.897" y="131.588" style="fill:#FFFFFF;" width="106.25" height="27.804"/>
		<path d="M217.647,159.892h-107.25v-28.804h107.25V159.892z M111.397,158.892h105.25v-26.804h-105.25V158.892z"/>
	</g>
	<g>
		<rect x="217.147" y="131.588" style="fill:#FFFFFF;" width="106.25" height="27.804"/>
		<path d="M323.897,159.892h-107.25v-28.804h107.25V159.892z M217.647,158.892h105.25v-26.804h-105.25V158.892z"/>
	</g>
	<g>
		<g>
			<g>
				<path style="fill:#010202;" d="M50.311,146.883v1.583h-6.344v-1.259l3.238-3.059c0.744-0.708,0.875-1.139,0.875-1.547
					c0-0.66-0.456-1.043-1.343-1.043c-0.72,0-1.332,0.276-1.739,0.839l-1.415-0.911c0.647-0.948,1.823-1.56,3.334-1.56
					c1.871,0,3.118,0.96,3.118,2.483c0,0.815-0.228,1.559-1.403,2.65l-1.931,1.823H50.311z"/>
			</g>
			<g>
				<path style="fill:#010202;" d="M57.019,144.137h1.775v3.406c-0.923,0.695-2.195,1.067-3.394,1.067
					c-2.639,0-4.582-1.811-4.582-4.342s1.943-4.342,4.617-4.342c1.476,0,2.699,0.504,3.514,1.452l-1.247,1.151
					c-0.612-0.648-1.319-0.948-2.171-0.948c-1.631,0-2.747,1.091-2.747,2.687c0,1.571,1.115,2.687,2.723,2.687
					c0.528,0,1.02-0.096,1.511-0.36V144.137z"/>
			</g>
			<g>
				<path style="fill:#010202;" d="M65.971,144.137h1.775v3.406c-0.923,0.695-2.195,1.067-3.394,1.067
					c-2.639,0-4.582-1.811-4.582-4.342s1.943-4.342,4.617-4.342c1.476,0,2.699,0.504,3.514,1.452l-1.247,1.151
					c-0.612-0.648-1.319-0.948-2.171-0.948c-1.631,0-2.747,1.091-2.747,2.687c0,1.571,1.115,2.687,2.723,2.687
					c0.528,0,1.02-0.096,1.511-0.36V144.137z"/>
			</g>
		</g>
	</g>
	<g>
		<g>
			<path style="fill:#010202;" d="M140.019,140.071v0.816l-3.394,7.58h-1.271l3.322-7.352h-3.838v1.499h-1.151v-2.542H140.019z"/>
		</g>
		<g>
			<path style="fill:#010202;" d="M147.182,146.092c0,1.523-1.295,2.471-3.346,2.471c-2.039,0-3.322-0.948-3.322-2.471
				c0-0.959,0.527-1.667,1.475-2.027c-0.768-0.36-1.175-0.984-1.175-1.811c0-1.403,1.211-2.279,3.022-2.279
				c1.823,0,3.046,0.875,3.046,2.279c0,0.827-0.419,1.451-1.187,1.811C146.655,144.436,147.182,145.132,147.182,146.092z
				 M145.983,146.056c0-0.923-0.815-1.499-2.146-1.499c-1.332,0-2.123,0.576-2.123,1.499c0,0.947,0.792,1.535,2.123,1.535
				C145.168,147.591,145.983,147.003,145.983,146.056z M142.002,142.302c0,0.828,0.684,1.343,1.835,1.343
				c1.163,0,1.871-0.516,1.871-1.343c0-0.84-0.744-1.355-1.871-1.355C142.709,140.946,142.002,141.462,142.002,142.302z"/>
		</g>
		<g>
			<path style="fill:#010202;" d="M151.026,144.676h3.226v0.996h-3.226V144.676z"/>
		</g>
		<g>
			<path style="fill:#010202;" d="M164.762,146.092c0,1.523-1.295,2.471-3.346,2.471c-2.039,0-3.322-0.948-3.322-2.471
				c0-0.959,0.528-1.667,1.475-2.027c-0.768-0.36-1.175-0.984-1.175-1.811c0-1.403,1.211-2.279,3.022-2.279
				c1.823,0,3.046,0.875,3.046,2.279c0,0.827-0.419,1.451-1.187,1.811C164.234,144.436,164.762,145.132,164.762,146.092z
				 M163.563,146.056c0-0.923-0.815-1.499-2.146-1.499c-1.332,0-2.123,0.576-2.123,1.499c0,0.947,0.792,1.535,2.123,1.535
				C162.747,147.591,163.563,147.003,163.563,146.056z M159.581,142.302c0,0.828,0.684,1.343,1.835,1.343
				c1.163,0,1.871-0.516,1.871-1.343c0-0.84-0.744-1.355-1.871-1.355C160.289,140.946,159.581,141.462,159.581,142.302z"/>
		</g>
		<g>
			<path style="fill:#010202;" d="M168.172,140.071v8.396h-1.188v-7.352h-1.895v-1.043H168.172z"/>
		</g>
		<g>
			<path style="fill:#010202;" d="M172.566,145.288c0-1.895,1.403-3.238,3.358-3.238c1.14,0,2.087,0.468,2.591,1.355l-0.875,0.563
				c-0.408-0.624-1.032-0.912-1.727-0.912c-1.248,0-2.183,0.875-2.183,2.231c0,1.379,0.936,2.243,2.183,2.243
				c0.695,0,1.319-0.288,1.727-0.912l0.875,0.552c-0.504,0.888-1.451,1.367-2.591,1.367
				C173.969,148.538,172.566,147.183,172.566,145.288z"/>
		</g>
		<g>
			<path style="fill:#010202;" d="M190.259,144.808v3.658h-1.151v-3.526c0-1.248-0.6-1.859-1.643-1.859
				c-1.151,0-1.907,0.732-1.907,2.111v3.274h-1.151v-3.526c0-1.248-0.6-1.859-1.643-1.859c-1.151,0-1.907,0.732-1.907,2.111v3.274
				h-1.151v-6.356h1.104v0.947c0.456-0.647,1.235-1.007,2.195-1.007c0.971,0,1.787,0.384,2.207,1.175
				c0.48-0.72,1.368-1.175,2.447-1.175C189.204,142.05,190.259,142.937,190.259,144.808z"/>
		</g>
	</g>
	<g>
		<g>
			<path style="fill:#010202;" d="M245.231,145.911c0,1.619-1.308,2.651-2.975,2.651c-2.255,0-3.526-1.511-3.526-4.186
				c0-2.866,1.619-4.401,3.97-4.401c0.791,0,1.547,0.156,2.087,0.492l-0.456,0.936c-0.432-0.288-1.008-0.396-1.607-0.396
				c-1.703,0-2.794,1.067-2.794,3.167c0,0.096,0,0.192,0.013,0.3c0.479-0.72,1.367-1.104,2.41-1.104
				C244.019,143.369,245.231,144.365,245.231,145.911z M244.067,145.959c0-0.983-0.744-1.619-1.919-1.619
				c-1.14,0-1.931,0.708-1.931,1.631c0,0.863,0.695,1.619,1.99,1.619C243.299,147.591,244.067,146.955,244.067,145.959z"/>
		</g>
		<g>
			<path style="fill:#010202;" d="M245.835,144.268c0-2.734,1.463-4.293,3.43-4.293c1.955,0,3.418,1.559,3.418,4.293
				s-1.463,4.294-3.418,4.294C247.297,148.562,245.835,147.003,245.835,144.268z M251.483,144.268c0-2.147-0.912-3.226-2.219-3.226
				c-1.319,0-2.23,1.079-2.23,3.226s0.911,3.226,2.23,3.226C250.571,147.494,251.483,146.415,251.483,144.268z"/>
		</g>
		<g>
			<path style="fill:#010202;" d="M256.574,144.676h3.226v0.996h-3.226V144.676z"/>
		</g>
		<g>
			<path style="fill:#010202;" d="M270.19,145.911c0,1.619-1.307,2.651-2.975,2.651c-2.254,0-3.525-1.511-3.525-4.186
				c0-2.866,1.619-4.401,3.969-4.401c0.792,0,1.548,0.156,2.088,0.492l-0.456,0.936c-0.433-0.288-1.008-0.396-1.607-0.396
				c-1.703,0-2.794,1.067-2.794,3.167c0,0.096,0,0.192,0.012,0.3c0.479-0.72,1.367-1.104,2.41-1.104
				C268.979,143.369,270.19,144.365,270.19,145.911z M269.026,145.959c0-0.983-0.743-1.619-1.918-1.619
				c-1.14,0-1.932,0.708-1.932,1.631c0,0.863,0.695,1.619,1.991,1.619C268.258,147.591,269.026,146.955,269.026,145.959z"/>
		</g>
		<g>
			<path style="fill:#010202;" d="M276.694,147.423v1.043h-6.032v-0.815l3.418-3.298c0.888-0.863,1.056-1.391,1.056-1.919
				c0-0.863-0.611-1.391-1.787-1.391c-0.899,0-1.631,0.288-2.146,0.912l-0.816-0.708c0.648-0.803,1.764-1.271,3.07-1.271
				c1.752,0,2.879,0.899,2.879,2.338c0,0.816-0.24,1.547-1.379,2.639l-2.566,2.471H276.694z"/>
		</g>
		<g>
			<path style="fill:#010202;" d="M280.238,145.288c0-1.895,1.403-3.238,3.358-3.238c1.139,0,2.086,0.468,2.59,1.355l-0.875,0.563
				c-0.408-0.624-1.031-0.912-1.727-0.912c-1.248,0-2.184,0.875-2.184,2.231c0,1.379,0.936,2.243,2.184,2.243
				c0.695,0,1.318-0.288,1.727-0.912l0.875,0.552c-0.504,0.888-1.451,1.367-2.59,1.367
				C281.641,148.538,280.238,147.183,280.238,145.288z"/>
		</g>
		<g>
			<path style="fill:#010202;" d="M297.931,144.808v3.658h-1.151v-3.526c0-1.248-0.6-1.859-1.643-1.859
				c-1.152,0-1.907,0.732-1.907,2.111v3.274h-1.151v-3.526c0-1.248-0.6-1.859-1.643-1.859c-1.152,0-1.908,0.732-1.908,2.111v3.274
				h-1.15v-6.356h1.104v0.947c0.455-0.647,1.234-1.007,2.194-1.007c0.972,0,1.787,0.384,2.206,1.175
				c0.48-0.72,1.368-1.175,2.447-1.175C296.876,142.05,297.931,142.937,297.931,144.808z"/>
		</g>
	</g>
	<g>
		<path style="fill:#FFFFFF;" d="M110.897,186.392h-86.25c-11.046,0-20-8.954-20-20v-7.804h106.25V186.392z"/>
		<path d="M111.397,186.892h-86.75c-11.304,0-20.5-9.196-20.5-20.5v-8.304h107.25V186.892z M5.147,159.088v7.304
			c0,10.752,8.748,19.5,19.5,19.5h85.75v-26.804H5.147z"/>
	</g>
	<g>
		<rect x="110.897" y="158.588" style="fill:#FFFFFF;" width="106.25" height="27.804"/>
		<path d="M217.647,186.892h-107.25v-28.804h107.25V186.892z M111.397,185.892h105.25v-26.804h-105.25V185.892z"/>
	</g>
	<g>
		<path style="fill:#FFFFFF;" d="M303.397,186.392h-86.25v-27.804h106.25v7.804C323.397,177.438,314.443,186.392,303.397,186.392z"
			/>
		<path d="M303.397,186.892h-86.75v-28.804h107.25v8.304C323.897,177.696,314.701,186.892,303.397,186.892z M217.647,185.892h85.75
			c10.752,0,19.5-8.748,19.5-19.5v-7.304h-105.25V185.892z"/>
	</g>
	<g>
		<g>
			<path style="fill:#010202;" d="M50.227,172.9c0,1.415-1.091,2.71-3.478,2.71c-1.176,0-2.387-0.324-3.203-0.899l0.756-1.487
				c0.636,0.479,1.523,0.755,2.398,0.755c0.972,0,1.571-0.396,1.571-1.079c0-0.636-0.468-1.032-1.571-1.032h-0.887v-1.283
				l1.727-1.955h-3.574v-1.559h5.877v1.259l-1.895,2.159C49.459,170.729,50.227,171.664,50.227,172.9z"/>
		</g>
		<g>
			<path style="fill:#010202;" d="M57.03,171.137h1.775v3.406c-0.923,0.695-2.195,1.067-3.394,1.067
				c-2.639,0-4.582-1.811-4.582-4.342s1.943-4.342,4.617-4.342c1.476,0,2.699,0.504,3.514,1.452l-1.247,1.151
				c-0.612-0.648-1.319-0.948-2.171-0.948c-1.631,0-2.747,1.091-2.747,2.687c0,1.571,1.115,2.687,2.723,2.687
				c0.528,0,1.02-0.096,1.511-0.36V171.137z"/>
		</g>
		<g>
			<path style="fill:#010202;" d="M65.983,171.137h1.775v3.406c-0.923,0.695-2.195,1.067-3.394,1.067
				c-2.639,0-4.582-1.811-4.582-4.342s1.943-4.342,4.617-4.342c1.476,0,2.699,0.504,3.514,1.452l-1.247,1.151
				c-0.612-0.648-1.319-0.948-2.171-0.948c-1.631,0-2.747,1.091-2.747,2.687c0,1.571,1.115,2.687,2.723,2.687
				c0.528,0,1.02-0.096,1.511-0.36V171.137z"/>
		</g>
	</g>
	<g>
		<g>
			<path style="fill:#010202;" d="M140.571,173.092c0,1.523-1.295,2.471-3.346,2.471c-2.039,0-3.322-0.948-3.322-2.471
				c0-0.959,0.528-1.667,1.475-2.027c-0.768-0.36-1.175-0.984-1.175-1.811c0-1.403,1.211-2.279,3.022-2.279
				c1.823,0,3.046,0.875,3.046,2.279c0,0.827-0.419,1.451-1.187,1.811C140.043,171.436,140.571,172.132,140.571,173.092z
				 M139.371,173.056c0-0.923-0.815-1.499-2.146-1.499c-1.332,0-2.123,0.576-2.123,1.499c0,0.947,0.792,1.535,2.123,1.535
				C138.556,174.591,139.371,174.003,139.371,173.056z M135.389,169.302c0,0.828,0.684,1.343,1.835,1.343
				c1.163,0,1.871-0.516,1.871-1.343c0-0.84-0.744-1.355-1.871-1.355C136.097,167.946,135.389,168.462,135.389,169.302z"/>
		</g>
		<g>
			<path style="fill:#010202;" d="M143.981,167.071v8.396h-1.188v-7.352h-1.895v-1.043H143.981z"/>
		</g>
		<g>
			<path style="fill:#010202;" d="M148.554,171.676h3.226v0.996h-3.226V171.676z"/>
		</g>
		<g>
			<path style="fill:#010202;" d="M162.291,173.092c0,1.523-1.295,2.471-3.346,2.471c-2.039,0-3.322-0.948-3.322-2.471
				c0-0.959,0.528-1.667,1.475-2.027c-0.768-0.36-1.175-0.984-1.175-1.811c0-1.403,1.211-2.279,3.022-2.279
				c1.823,0,3.046,0.875,3.046,2.279c0,0.827-0.419,1.451-1.187,1.811C161.763,171.436,162.291,172.132,162.291,173.092z
				 M161.091,173.056c0-0.923-0.815-1.499-2.146-1.499c-1.332,0-2.123,0.576-2.123,1.499c0,0.947,0.792,1.535,2.123,1.535
				C160.275,174.591,161.091,174.003,161.091,173.056z M157.109,169.302c0,0.828,0.684,1.343,1.835,1.343
				c1.163,0,1.871-0.516,1.871-1.343c0-0.84-0.744-1.355-1.871-1.355C157.817,167.946,157.109,168.462,157.109,169.302z"/>
		</g>
		<g>
			<path style="fill:#010202;" d="M168.843,172.995c0,1.416-1.043,2.567-3.178,2.567c-1.199,0-2.375-0.384-3.082-1.02l0.552-0.948
				c0.563,0.528,1.499,0.899,2.53,0.899c1.259,0,1.979-0.576,1.979-1.487c0-0.888-0.636-1.463-2.075-1.463h-0.672v-0.839
				l2.111-2.591h-4.042v-1.043h5.541v0.816l-2.195,2.71C167.992,170.753,168.843,171.7,168.843,172.995z"/>
		</g>
		<g>
			<path style="fill:#010202;" d="M172.518,172.288c0-1.895,1.403-3.238,3.358-3.238c1.14,0,2.087,0.468,2.591,1.355l-0.875,0.563
				c-0.408-0.624-1.032-0.912-1.727-0.912c-1.248,0-2.183,0.875-2.183,2.231c0,1.379,0.936,2.243,2.183,2.243
				c0.695,0,1.319-0.288,1.727-0.912l0.875,0.552c-0.504,0.888-1.451,1.367-2.591,1.367
				C173.921,175.538,172.518,174.183,172.518,172.288z"/>
		</g>
		<g>
			<path style="fill:#010202;" d="M190.212,171.808v3.658h-1.151v-3.526c0-1.248-0.6-1.859-1.643-1.859
				c-1.151,0-1.907,0.732-1.907,2.111v3.274h-1.151v-3.526c0-1.248-0.6-1.859-1.643-1.859c-1.151,0-1.907,0.732-1.907,2.111v3.274
				h-1.151v-6.356h1.104v0.947c0.456-0.647,1.235-1.007,2.195-1.007c0.971,0,1.787,0.384,2.207,1.175
				c0.48-0.72,1.368-1.175,2.447-1.175C189.156,169.05,190.212,169.937,190.212,171.808z"/>
		</g>
	</g>
	<g>
		<g>
			<path style="fill:#010202;" d="M245.219,172.911c0,1.619-1.308,2.651-2.975,2.651c-2.255,0-3.526-1.511-3.526-4.186
				c0-2.866,1.619-4.401,3.97-4.401c0.791,0,1.547,0.156,2.087,0.492l-0.456,0.936c-0.432-0.288-1.008-0.396-1.607-0.396
				c-1.703,0-2.794,1.067-2.794,3.167c0,0.096,0,0.192,0.013,0.3c0.479-0.72,1.367-1.104,2.41-1.104
				C244.007,170.369,245.219,171.365,245.219,172.911z M244.055,172.959c0-0.983-0.744-1.619-1.919-1.619
				c-1.14,0-1.931,0.708-1.931,1.631c0,0.863,0.695,1.619,1.99,1.619C243.288,174.591,244.055,173.955,244.055,172.959z"/>
		</g>
		<g>
			<path style="fill:#010202;" d="M251.723,174.423v1.043h-6.033v-0.815l3.418-3.298c0.889-0.863,1.057-1.391,1.057-1.919
				c0-0.863-0.612-1.391-1.787-1.391c-0.9,0-1.632,0.288-2.147,0.912l-0.815-0.708c0.647-0.803,1.764-1.271,3.07-1.271
				c1.751,0,2.879,0.899,2.879,2.338c0,0.816-0.24,1.547-1.38,2.639l-2.566,2.471H251.723z"/>
		</g>
		<g>
			<path style="fill:#010202;" d="M255.446,171.676h3.227v0.996h-3.227V171.676z"/>
		</g>
		<g>
			<path style="fill:#010202;" d="M269.063,172.911c0,1.619-1.308,2.651-2.975,2.651c-2.255,0-3.526-1.511-3.526-4.186
				c0-2.866,1.619-4.401,3.97-4.401c0.791,0,1.547,0.156,2.087,0.492l-0.456,0.936c-0.432-0.288-1.008-0.396-1.607-0.396
				c-1.703,0-2.794,1.067-2.794,3.167c0,0.096,0,0.192,0.013,0.3c0.479-0.72,1.367-1.104,2.41-1.104
				C267.851,170.369,269.063,171.365,269.063,172.911z M267.899,172.959c0-0.983-0.744-1.619-1.919-1.619
				c-1.14,0-1.931,0.708-1.931,1.631c0,0.863,0.695,1.619,1.99,1.619C267.131,174.591,267.899,173.955,267.899,172.959z"/>
		</g>
		<g>
			<path style="fill:#010202;" d="M276.969,173.403h-1.595v2.063h-1.163v-2.063h-4.666v-0.839l4.294-5.493h1.295l-4.113,5.301h3.226
				v-1.823h1.128v1.823h1.595V173.403z"/>
		</g>
		<g>
			<path style="fill:#010202;" d="M280.251,172.288c0-1.895,1.402-3.238,3.357-3.238c1.14,0,2.087,0.468,2.591,1.355l-0.876,0.563
				c-0.408-0.624-1.031-0.912-1.727-0.912c-1.248,0-2.184,0.875-2.184,2.231c0,1.379,0.936,2.243,2.184,2.243
				c0.695,0,1.318-0.288,1.727-0.912l0.876,0.552c-0.504,0.888-1.451,1.367-2.591,1.367
				C281.653,175.538,280.251,174.183,280.251,172.288z"/>
		</g>
		<g>
			<path style="fill:#010202;" d="M297.944,171.808v3.658h-1.152v-3.526c0-1.248-0.6-1.859-1.643-1.859
				c-1.151,0-1.906,0.732-1.906,2.111v3.274h-1.152v-3.526c0-1.248-0.6-1.859-1.643-1.859c-1.151,0-1.907,0.732-1.907,2.111v3.274
				h-1.151v-6.356h1.104v0.947c0.455-0.647,1.235-1.007,2.195-1.007c0.971,0,1.787,0.384,2.206,1.175
				c0.479-0.72,1.367-1.175,2.446-1.175C296.888,169.05,297.944,169.937,297.944,171.808z"/>
		</g>
	</g>
</g>
</svg>