<svg xmlns="http://www.w3.org/2000/svg" viewBox="0 0 3694.54 279.63"><defs><style>.cls-1{fill:#f7f7f7;}.cls-2{fill:#f29100;}.cls-12,.cls-13,.cls-14,.cls-2,.cls-3,.cls-5,.cls-6,.cls-7{fill-rule:evenodd;}.cls-3{fill:#005ca9;}.cls-4{fill:#7a8899;}.cls-5{fill:#ff5f00;}.cls-6{fill:#eb001b;}.cls-7{fill:#f79e1b;}.cls-8{fill:#2566af;}.cls-9{fill:#2a3375;}.cls-10{fill:#40b398;}.cls-11{fill:#fff;}.cls-12{fill:#009ee3;}.cls-13{fill:#113984;}.cls-14{fill:#172c70;}.cls-15{fill:#00bcff;}.cls-16{fill:#0a0080;}.cls-17{fill:#96969a;}.cls-18{fill:#4ab7a8;}.cls-19{fill:#016fd0;}</style></defs><g id="Camada_2" data-name="Camada 2"><g id="Camada_1-2" data-name="Camada 1"><rect class="cls-1" x="1399" y="4.5" width="430.54" height="270.63" rx="50"/><path class="cls-2" d="M1615.23,147.46h19.27l21.13-21.12h-19.28Zm44.39-44.39-8.35,8.35,6.5,12.77,21.13-21.12Z"/><path class="cls-3" d="M1605.51,103.07h16.13l-7,44.39h-16.13Zm-28.68,28.34-.79-8.14c-.18-1.92-.1-4.8-.06-6.86h-.66l-5.52,15Zm-13.35,16.05h-17l22.45-44.39h17.84l8.83,44.39h-17.09l-.61-5.54h-12.19Zm64.26-44.4H1647l10.76,21.13H1638.5Zm69.66,28.35-.8-8.14c-.18-1.92-.1-4.8-.06-6.86h-.66l-5.53,15ZM1684,147.46h-17l22.45-44.39h17.84l8.83,44.39H1699l-.61-5.54h-12.18ZM1548.91,121c-2.18-2.39-5.11-4.46-8.75-4.46a10.59,10.59,0,0,0-10.15,8.64c-.76,4.9,2.82,8.65,7.65,8.65,3.71,0,6.89-1.57,9.9-4.1l-3.11,16.62c-2.21,1-6.47,1.5-9.59,1.68h-4c-11.61-.91-19.06-10.38-17.15-22.41,2-13,13.85-23.32,26.84-23.35h.22a31.91,31.91,0,0,1,10.37,1.83Zm93.95,18.06,12.77-12.76,10.76,21.12h-19.27Z"/><path class="cls-4" d="M1520,177.31a6.56,6.56,0,0,0,5.7-3.08l-1.86-1a4.57,4.57,0,0,1-3.84,2.12,5.6,5.6,0,0,1,0-11.18,4.57,4.57,0,0,1,3.84,2.12l1.86-1a6.55,6.55,0,0,0-5.7-3.07,7.53,7.53,0,1,0,0,15.06Zm11-.26,1.18-3h7l1.18,3h2.49L1537,162.48h-2.74l-5.78,14.57Zm7.51-5h-5.7l2.84-7.39,2.86,7.38Zm10.42,5v-5.61h2.73l3.47,5.62h2.53l-3.73-5.84a4,4,0,0,0,3.62-4.25,4.34,4.34,0,0,0-4.67-4.48h-6.14v14.57h2.19Zm3.66-7.53h-3.66v-5.11h3.66a2.56,2.56,0,1,1,0,5.11Zm15.36,7.53V164.41h4.5v-1.92h-11.21v1.92h4.52v12.64Zm14.43-15.74c1.41,0,2.18-1.18,2.18-2.93h-1.11c0,1.2-.44,1.73-1,1.73s-.7-.37-1-.79a1.93,1.93,0,0,0-1.63-1.07c-1.42,0-2.19,1.18-2.19,2.93h1.12c0-1.21.45-1.73,1-1.73s.68.37,1,.79a2,2,0,0,0,1.64,1.07Zm-5.94,15.74,1.18-3h7l1.18,3h2.49l-5.78-14.57h-2.73l-5.79,14.57Zm7.51-5h-5.7l2.84-7.38Zm14.17,5.22a7.53,7.53,0,1,0-7.33-7.53,7.16,7.16,0,0,0,7.33,7.53Zm0-1.94c-3.12,0-5.08-2.4-5.08-5.59s2-5.59,5.08-5.59,5.09,2.38,5.09,5.59S1601.15,175.37,1598.07,175.37Zm27,1.68,5.79-14.56h-2.49l-4.67,12.18L1619,162.49h-2.5l5.79,14.56Zm11.9,0V162.48h-2.18v14.57Zm7.62,0v-5.61h2.73l3.48,5.61h2.53l-3.73-5.83a4.07,4.07,0,0,0,3.62-4.26,4.34,4.34,0,0,0-4.67-4.47h-6.14v14.56Zm3.67-7.53h-3.67v-5.11h3.67a2.56,2.56,0,1,1,0,5.11Zm15.35,7.53V164.41h4.5v-1.92h-11.2v1.92h4.52v12.64Zm15.09.26c4.08,0,6.12-2.36,6.12-6v-8.85h-2.21v8.81c0,2.49-1.35,4.08-3.91,4.08s-3.93-1.59-3.93-4.08v-8.81h-2.2v8.87c0,3.58,2,6,6.13,6Zm11.92-.26,1.18-3h7l1.18,3h2.49l-5.79-14.56h-2.73l-5.78,14.56Zm7.51-5h-5.69l2.83-7.39,2.86,7.38Zm17,5v-1.92h-6.62V162.49h-2.18v14.56Z"/><rect class="cls-1" x="468" y="4.5" width="430.54" height="270.63" rx="50"/><g id="Components---Sprint-3"><g id="assets-_-logo-_-mastercard-_-symbol" data-name="assets-/-logo-/-mastercard-/-symbol"><polygon id="Fill-1" class="cls-5" points="658.59 185.08 708.68 185.08 708.68 94.67 658.59 94.67 658.59 185.08"/><path id="Fill-2" class="cls-6" d="M661.77,139.88a57.5,57.5,0,0,1,21.86-45.21A57.19,57.19,0,0,0,591,139.88a57.18,57.18,0,0,0,92.61,45.2,57.49,57.49,0,0,1-21.86-45.2"/><path id="Fill-4" class="cls-7" d="M774.46,175.51v-2.23h-.58l-.66,1.53-.67-1.53H772v2.23h.41v-1.69l.62,1.45h.43l.62-1.45v1.69Zm-3.67,0v-1.85h.74v-.38h-1.89v.38h.74v1.85Zm5.46-35.63a57.19,57.19,0,0,1-92.62,45.2,57.65,57.65,0,0,0,0-90.41,57.2,57.2,0,0,1,92.62,45.21Z"/></g></g><rect class="cls-1" y="4.5" width="430.54" height="270.63" rx="50"/><path class="cls-8" d="M199.9,176.06H181l11.79-72.45h18.86Zm-34.73-72.45-18,49.83-2.12-10.73h0l-6.35-32.59s-.77-6.52-9-6.52H100l-.35,1.23a70.53,70.53,0,0,1,19.73,8.28l16.39,62.95h19.66l30-72.46Zm148.37,72.45h17.32l-15.1-72.45H300.6c-7,0-8.71,5.4-8.71,5.4l-28.14,67.05h19.67l3.93-10.76h24l2.21,10.76Zm-20.76-25.63,9.92-27.11,5.57,27.11ZM265.23,121l2.69-15.56a54.47,54.47,0,0,0-17-3.16c-9.36,0-31.59,4.1-31.59,24,0,18.72,26.09,19,26.09,28.78s-23.4,8.07-31.12,1.87l-2.81,16.27s8.43,4.09,21.3,4.09,32.29-6.66,32.29-24.8c0-18.84-26.33-20.6-26.33-28.79s18.38-7.14,26.45-2.69Z"/><path class="cls-8" d="M145.06,142.71l-6.35-32.58s-.77-6.52-9-6.52H100l-.35,1.22a73.07,73.07,0,0,1,28,14.06A56.6,56.6,0,0,1,145.06,142.71Z"/><rect class="cls-1" x="2333" y="2" width="430.54" height="270.63" rx="50"/><path class="cls-9" d="M2508.43,135.76c.18-19.53-23.92-35.66-53.84-35.94s-54.33,15.4-54.52,34.93v2.07c-.21,20.71,20.85,37.68,53.82,38,33.18.32,54.34-16.26,54.53-37,0-.72,0-1.14,0-2.08"/><path class="cls-10" d="M2506.36,135.73c-.17,18.4-23.63,33.1-52.4,32.83s-51.95-15.41-51.78-33.81,23.64-33.11,52.39-32.84,52,15.41,51.79,33.82"/><path class="cls-11" d="M2437.06,124.56s-.54.59-.21,1c.82,1,3.35,1.68,5.92,1.13,1.53-.33,3.51-1.87,5.41-3.35,2.07-1.62,4.14-3.24,6.21-3.87a7,7,0,0,1,4.47-.08,14,14,0,0,1,4.07,2.43c3.54,2.71,17.75,15.37,20.21,17.55a122.6,122.6,0,0,1,23-7.16c-1-6.44-4.83-12.35-10.71-17.21-8.3,3.39-18.41,5.1-28.23.19a27.13,27.13,0,0,0-10.63-2.52c-7.83.11-11.25,3.47-14.87,7Z"/><path class="cls-11" d="M2482.54,140.74c-.16-.15-16.72-14.91-20.47-17.78-2.17-1.67-3.39-2.09-4.66-2.27a6.47,6.47,0,0,0-2.23.19,20.22,20.22,0,0,0-6.12,3.58c-2.14,1.66-4.16,3.23-6,3.62a9.63,9.63,0,0,1-6.55-1,2.76,2.76,0,0,1-1.08-1.21,2,2,0,0,1,.59-2.17l4.64-4.94c.55-.52,1.08-1,1.65-1.58a30,30,0,0,0-4.22.91,18.81,18.81,0,0,1-4.91.87,48.79,48.79,0,0,1-5-.83,73.82,73.82,0,0,1-13.24-4.93c-6.59,4.81-11,10.86-12.35,17.56.94.26,2.45.73,3.09.88,14.78,3.42,19.35,6.86,20.19,7.58a4.9,4.9,0,0,1,6.92-.36,5.28,5.28,0,0,1,.76.88,5.68,5.68,0,0,1,3.54-1.21,6.78,6.78,0,0,1,2.12.4,4.85,4.85,0,0,1,2.95,2.72,4.94,4.94,0,0,1,2.06-.42,6.28,6.28,0,0,1,2.47.57c2.72,1.19,3.13,3.88,2.86,5.9a5.41,5.41,0,0,1,.59,0,5.88,5.88,0,0,1,5.08,8.7,9.29,9.29,0,0,0,5.09,1.41,3.23,3.23,0,0,0,2.39-1c.15-.21.31-.46.17-.62l-4.14-4.69s-.68-.65-.45-.91.66.12,1,.38q2.43,2.15,4.68,4.5s.21.37,1.17.55a4.35,4.35,0,0,0,3.31-.74,5,5,0,0,0,.73-.73s0,0,0,0a2.23,2.23,0,0,0-.1-2.75l-4.82-5.53s-.7-.65-.46-.91.65.13,1,.38c1.54,1.31,3.7,3.52,5.77,5.59a4,4,0,0,0,4.68-.12,3.37,3.37,0,0,0,1.77-3,3.43,3.43,0,0,0-1-2.06l-6.6-6.76s-.69-.61-.44-.91.65.12,1,.38c2.11,1.79,7.8,7.11,7.8,7.11a4,4,0,0,0,4.52,0,3,3,0,0,0,1.51-2.38,3.55,3.55,0,0,0-1.1-2.73"/><path class="cls-11" d="M2450.14,148.93a16.63,16.63,0,0,0-2.33.49c-.08,0,.07-.47.16-.71s1.51-4.32-1.79-5.77a3.89,3.89,0,0,0-4.64.65c-.15.13-.2.13-.22-.06a3.6,3.6,0,0,0-2.53-3.42,5,5,0,0,0-5.68,2,3.7,3.7,0,1,0-3.92,4.06h.29a3.56,3.56,0,0,0,2.52-1s0,.05,0,.12a4.79,4.79,0,0,0,2.93,5.53,3.55,3.55,0,0,0,3.51-.51c.28-.21.34-.11.29.15-.12.85,0,2.64,2.54,3.7a3.25,3.25,0,0,0,3.8-.68c.32-.29.4-.24.43.21a4.57,4.57,0,1,0,4.62-4.73"/><path class="cls-9" d="M2483.19,139c-5.09-4.53-16.86-15-20.06-17.41a14.37,14.37,0,0,0-4.18-2.48,6.59,6.59,0,0,0-2.06-.34,9,9,0,0,0-2.61.42c-2.08.63-4.18,2.27-6.19,3.83l-.1.09c-1.88,1.46-3.83,3-5.3,3.29a8.32,8.32,0,0,1-1.93.19,5,5,0,0,1-3.66-1.2c-.07-.12,0-.3.19-.57l0,0,4.55-4.82c3.58-3.52,7-6.84,14.66-6.94h.38a27.33,27.33,0,0,1,10.1,2.5,31.34,31.34,0,0,0,13.76,3.43,35.76,35.76,0,0,0,15.18-3.49c-.58-.5-1.19-1-1.81-1.46a33.23,33.23,0,0,1-13.32,2.89,29.19,29.19,0,0,1-12.88-3.23,29.53,29.53,0,0,0-11-2.71h-.44a19.14,19.14,0,0,0-12.6,4.35,25.22,25.22,0,0,0-6.28,1.09,16.58,16.58,0,0,1-4.42.8c-.57,0-1.59-.06-1.68-.07-1.58-.06-9.52-2.09-15.83-4.54-.65.45-1.29.91-1.89,1.39,6.59,2.77,14.62,5,17.16,5.14.71.05,1.46.14,2.21.15a19.17,19.17,0,0,0,5-.88c1-.26,2-.54,3.13-.75l-.89.88-4.63,4.93a2.27,2.27,0,0,0-.66,2.53,3.11,3.11,0,0,0,1.19,1.35,9.56,9.56,0,0,0,4.87,1.28,8.63,8.63,0,0,0,1.94-.19c1.93-.41,4-2,6.13-3.68,1.71-1.34,4.14-3,6-3.52A6.84,6.84,0,0,1,2457,121a2,2,0,0,1,.43,0c1.22.15,2.4.58,4.5,2.2,3.75,2.86,20.3,17.62,20.46,17.76a3.21,3.21,0,0,1,1,2.46,2.66,2.66,0,0,1-1.35,2.12,4.12,4.12,0,0,1-2.2.67,3.77,3.77,0,0,1-1.93-.58c-.07-.06-5.73-5.35-7.82-7.13a1.71,1.71,0,0,0-1-.54.54.54,0,0,0-.44.2c-.34.41,0,1,.46,1.35l6.61,6.78a3.16,3.16,0,0,1,.92,1.81,3.07,3.07,0,0,1-1.62,2.76,4.27,4.27,0,0,1-2.37.75,3.39,3.39,0,0,1-1.9-.59l-.95-.95c-1.73-1.75-3.53-3.54-4.84-4.66a1.8,1.8,0,0,0-1-.53.69.69,0,0,0-.43.18c-.14.17-.25.47.12,1a3,3,0,0,0,.33.38l4.82,5.52a1.87,1.87,0,0,1,.09,2.34l-.17.21a3.54,3.54,0,0,1-2.85,1.18,4.62,4.62,0,0,1-.65-.07,1.59,1.59,0,0,1-1-.42l-.07-.05q-2.25-2.37-4.71-4.53a1.66,1.66,0,0,0-.94-.51.53.53,0,0,0-.44.19c-.41.43.19,1.1.44,1.35l4.11,4.61a.83.83,0,0,1-.16.29c-.14.2-.66.7-2.17.87a3.26,3.26,0,0,1-.54,0,9.59,9.59,0,0,1-4.07-1.24,6.19,6.19,0,0,0-2.89-8.28,6.3,6.3,0,0,0-2.63-.61h-.22a5.5,5.5,0,0,0-3.09-5.85,6.46,6.46,0,0,0-2.59-.6,5.16,5.16,0,0,0-1.91.33,5.17,5.17,0,0,0-3-2.61,6.76,6.76,0,0,0-2.22-.41,5.89,5.89,0,0,0-3.49,1.08,5.2,5.2,0,0,0-4-2,5.26,5.26,0,0,0-3.73,1.5c-1.27-1-6.38-4.32-20.08-7.57-1.05-.27-2.09-.56-3.12-.88-.16.74-.29,1.5-.38,2.24l3.05.76c14,3.24,18.6,6.52,19.36,7.15a5.55,5.55,0,0,0-.41,2,5.24,5.24,0,0,0,5.18,5.31,4.73,4.73,0,0,0,1-.08,6.09,6.09,0,0,0,3.92,4.62,5.08,5.08,0,0,0,1.87.38,5.38,5.38,0,0,0,1.2-.13,5.52,5.52,0,0,0,3.23,3.08,5.34,5.34,0,0,0,2.06.44,4.48,4.48,0,0,0,1.62-.27,6.16,6.16,0,0,0,10.15,2.06,11.61,11.61,0,0,0,5.23,1.62,6.74,6.74,0,0,0,.79,0c2.13-.25,3.13-1.07,3.58-1.72a2,2,0,0,0,.22-.34,6.16,6.16,0,0,0,1.68.27,5.66,5.66,0,0,0,3.41-1.18,4.57,4.57,0,0,0,2-2.89.05.05,0,0,0,0,0,6.11,6.11,0,0,0,1.13.13,6.3,6.3,0,0,0,3.5-1.08,5,5,0,0,0,2.54-4.45,5.63,5.63,0,0,0,1.15.13,6.07,6.07,0,0,0,3.28-1,4.74,4.74,0,0,0,2.29-3.67,4.91,4.91,0,0,0-.68-3,133.6,133.6,0,0,1,21.7-6.57,21.27,21.27,0,0,0-.28-2.25,124.73,124.73,0,0,0-22.88,7.18m-33.14,18.76a4.21,4.21,0,0,1-4.2-4.09c0-.19,0-.71-.46-.72a.76.76,0,0,0-.52.27,3,3,0,0,1-2.1.92,3.55,3.55,0,0,1-1.35-.31c-2.41-1-2.44-2.67-2.33-3.34a.59.59,0,0,0-.08-.5l-.15-.14h-.15a.74.74,0,0,0-.42.17,3.66,3.66,0,0,1-2.06.71,3,3,0,0,1-1.15-.24,4.44,4.44,0,0,1-2.73-5.17.42.42,0,0,0-.13-.42l-.22-.19-.22.2a3.27,3.27,0,0,1-2.28.91,3.31,3.31,0,1,1,3.29-3.7l.1.89.49-.75a4.89,4.89,0,0,1,3.87-2.08,5,5,0,0,1,1.45.25,3.34,3.34,0,0,1,2.3,3.13c0,.44.34.46.39.46a.55.55,0,0,0,.4-.2,3.38,3.38,0,0,1,2.44-1,4.76,4.76,0,0,1,1.82.43c3.09,1.36,1.64,5.3,1.62,5.34-.26.65-.29.94,0,1.12l.13.06h.08a3.68,3.68,0,0,0,.61-.21,5.46,5.46,0,0,1,1.66-.41,4.31,4.31,0,0,1-.07,8.61"/><path class="cls-10" d="M2612.56,137.84s-6.17-.72-6.22,4.25l-.06,6.58a7.45,7.45,0,0,0-2.65-2.61,7.63,7.63,0,0,0-3.76-1,8.94,8.94,0,0,0-7.38,3.35c-1.85,2.27-2.8,5.55-2.84,9.53a12.76,12.76,0,0,0,2.71,8.51c1.84,2.22,5.48,3.22,8.73,3.25,11.3.11,11.26-9.58,11.26-9.58Zm-7.6,25a4.48,4.48,0,0,1-3.95,1.89,4.31,4.31,0,0,1-3.84-2,9.85,9.85,0,0,1-1.22-5.34,9.42,9.42,0,0,1,1.3-5,4.28,4.28,0,0,1,3.94-2,4.63,4.63,0,0,1,3.07,1.14c1.43,1.24,2.13,3.45,2.1,6.31a8.44,8.44,0,0,1-1.4,5m56.85-13.48q-2.92-3.74-8.93-3.79c-4,0-7,1.17-9,3.62a14.47,14.47,0,0,0-.16,17.51q2.93,3.67,8.93,3.73t9-3.56a14.47,14.47,0,0,0,.16-17.51m-5,14.09a5.38,5.38,0,0,1-8.22-.08,10.79,10.79,0,0,1,.09-10.79,5.42,5.42,0,0,1,8.23.08,10.89,10.89,0,0,1-.1,10.79m-120.51-13.72a4,4,0,0,1,3.36,1.45,5.19,5.19,0,0,1,.9,2.36l6.58.06c-.33-3.32-1.46-5.66-3.42-7a13.38,13.38,0,0,0-7.55-2,11,11,0,0,0-8.56,3.26q-3.13,3.32-3.18,9.31a12.9,12.9,0,0,0,2.72,8.68q2.78,3.36,8.69,3.42t9-3.92a10,10,0,0,0,2.17-5.24l-6.56-.06a5.51,5.51,0,0,1-1.19,3,3.91,3.91,0,0,1-3.21,1.13,4.31,4.31,0,0,1-4.32-2.95,11.28,11.28,0,0,1-.6-4.12,12.45,12.45,0,0,1,.68-4.31,4.43,4.43,0,0,1,4.48-3m25.93-4.65c-13.53-.12-12.85,11.86-12.85,11.86l-.11,12.17,6.13,0,.11-11.41a9.4,9.4,0,0,1,.74-4.15c.86-1.58,2.51-2.36,5-2.35l.72,0c.34,0,.69,0,1,.1l.05-6.26a3,3,0,0,1-.52,0h-.28M2580,162.76a4.71,4.71,0,0,1-.85.92,5.22,5.22,0,0,1-3.44.89,5.82,5.82,0,0,1-3.26-.81c-1.52-.95-2.36-2.56-2.44-4.9l17,.16a30.19,30.19,0,0,0-.16-4.63,11.58,11.58,0,0,0-1.81-4.84,9.46,9.46,0,0,0-4-3.49,13.3,13.3,0,0,0-5.47-1.14,11.23,11.23,0,0,0-8.37,3.16q-3.24,3.19-3.3,9.25-.06,6.46,3.47,9.37a12.69,12.69,0,0,0,8.18,3q5.64,0,8.81-3.32a8.19,8.19,0,0,0,2.16-3.52Zm-8.14-11.51a4.83,4.83,0,0,1,3.65-1.3,5.4,5.4,0,0,1,3.62,1.3,5.12,5.12,0,0,1,1.58,3.69l-10.5-.1a6.4,6.4,0,0,1,1.65-3.59m45.54-13.12,6.17.06,0,6.11-6.17-.06Zm5.87,31.54-6.17,0,.21-23.32,6.18.06Zm12.54-19.88h-.66l-.13,13.7c0,1,.59,1.59,1.81,1.61h1.92l0,4.73a34.43,34.43,0,0,1-6.54-.11c-2.34-.26-3.45-1.72-3.37-4.48l.24-27,3.23,0a3.14,3.14,0,0,1,3,3.16l0,3.93,3.74,0v1.36a3,3,0,0,1-3,3h-.14m-57.44-6.91-5.34,0,1.41-4.42,5.34.05Z"/><path class="cls-9" d="M2693.62,113.79c-1.95-2.49-4.92-3.74-8.92-3.79s-7,1.17-9,3.62a14.47,14.47,0,0,0-.16,17.51q2.92,3.68,8.93,3.72t9-3.55a14.47,14.47,0,0,0,.16-17.51m-5,14.1a5.38,5.38,0,0,1-8.21-.08,10.81,10.81,0,0,1,.09-10.8,5.41,5.41,0,0,1,8.22.08,10.85,10.85,0,0,1-.1,10.8m-45.27-16.63a14.87,14.87,0,0,0-6.84-1.59c-3.94,0-6.74,1-8.39,3a9.06,9.06,0,0,0-1.77,5l5.91.05a4.48,4.48,0,0,1,.88-2.13,3.87,3.87,0,0,1,3.13-1,6.12,6.12,0,0,1,3,.58,2,2,0,0,1,1,2,1.85,1.85,0,0,1-1.34,1.72,10,10,0,0,1-2.45.52l-2.1.23a15.14,15.14,0,0,0-5.41,1.45,6.68,6.68,0,0,0-3.42,6.22,6.45,6.45,0,0,0,2,5.15,8.27,8.27,0,0,0,5.26,1.87c13.34.72,13.27-6.91,13.41-8.5l.07-8.78c0-2.82-1-4.75-2.94-5.78m-3.21,13.3q-.11,3.06-1.8,4.2a6.29,6.29,0,0,1-3.7,1.13,3.32,3.32,0,0,1-2.14-.72,2.72,2.72,0,0,1-.86-2.28,2.77,2.77,0,0,1,1.46-2.57,8.85,8.85,0,0,1,2.82-.81l1.4-.24a13.35,13.35,0,0,0,1.64-.41,6.24,6.24,0,0,0,1.19-.58Zm-27.26-9.88a4,4,0,0,1,3.36,1.44,5.19,5.19,0,0,1,.9,2.36l6.59.07q-.49-5-3.42-7a13.37,13.37,0,0,0-7.56-2,11.05,11.05,0,0,0-8.56,3.25c-2.08,2.21-3.15,5.31-3.18,9.32a13,13,0,0,0,2.72,8.67c1.84,2.24,4.75,3.39,8.7,3.42s7-1.26,9-3.91a9.93,9.93,0,0,0,2.17-5.24L2617,125a5.61,5.61,0,0,1-1.18,3,3.93,3.93,0,0,1-3.21,1.12,4.27,4.27,0,0,1-4.32-2.95,11,11,0,0,1-.6-4.12,12,12,0,0,1,.68-4.3,4.39,4.39,0,0,1,4.47-3m-13.52-5.29c-13.52-.12-12.83,11.86-12.83,11.86l-.12,12.17,6.15.06.1-11.42a9.21,9.21,0,0,1,.74-4.14c.85-1.58,2.5-2.37,5-2.35l.74,0c.29,0,.63.05,1,.1l0-6.25c-.26,0-.45,0-.52,0l-.29,0M2576.64,127a4.62,4.62,0,0,1-.85.92,5.22,5.22,0,0,1-3.43.89,5.79,5.79,0,0,1-3.27-.81,5.55,5.55,0,0,1-2.44-4.9l17,.16a30.19,30.19,0,0,0-.16-4.63,11.49,11.49,0,0,0-1.81-4.83,9.61,9.61,0,0,0-4-3.5,13.28,13.28,0,0,0-5.46-1.14,11.22,11.22,0,0,0-8.37,3.16q-3.26,3.19-3.31,9.26-.06,6.46,3.48,9.36a12.62,12.62,0,0,0,8.18,3q5.64.06,8.8-3.32a8.14,8.14,0,0,0,2.16-3.52Zm-8.14-11.51a4.8,4.8,0,0,1,3.65-1.29,5.31,5.31,0,0,1,3.6,1.29,5.08,5.08,0,0,1,1.59,3.69l-10.5-.1a6.28,6.28,0,0,1,1.66-3.59m-10.56,17.69-5.6-.06.13-14.11c0-1.29-.37-4.37-4.08-4.4a4.12,4.12,0,0,0-4.29,4.32L2544,133l-5.62,0,.14-14.12c0-1.29-.34-4.36-4-4.38a4.09,4.09,0,0,0-4.29,4.31l-.14,14.12-5.6-.06.13-14c0-5.83,4-10.2,9.95-10.14a8.64,8.64,0,0,1,6.95,3.31,9,9,0,0,1,7-3.19c6.13.07,9.7,4.32,9.64,10.34ZM2671,102.7s-6.17-.73-6.22,4.24l-.07,6.58a7.34,7.34,0,0,0-2.65-2.6,7.69,7.69,0,0,0-3.75-1,9,9,0,0,0-7.38,3.36c-1.86,2.27-2.8,5.55-2.84,9.53a12.7,12.7,0,0,0,2.72,8.51c1.83,2.22,5.48,3.22,8.72,3.25,11.29.1,11.26-9.59,11.26-9.59Zm-7.6,25a4.47,4.47,0,0,1-4,1.89,4.27,4.27,0,0,1-3.84-2,9.84,9.84,0,0,1-1.22-5.33,9.4,9.4,0,0,1,1.29-5,4.31,4.31,0,0,1,3.94-2,4.81,4.81,0,0,1,3.09,1.14c1.42,1.24,2.12,3.46,2.08,6.31a8.44,8.44,0,0,1-1.39,5"/><rect class="cls-1" x="2801" y="5" width="430.54" height="270.63" rx="50"/><path class="cls-12" d="M2888.5,120.47h21.16c11.36,0,15.64,5.75,15,14.2-1.1,13.94-9.53,21.66-20.71,21.66h-5.65c-1.54,0-2.57,1-3,3.77l-2.4,16a1.74,1.74,0,0,1-1.52,1.71h-13.29c-1.25,0-1.7-.95-1.37-3l8.11-51.29c.31-2,1.44-3,3.67-3Z"/><path class="cls-13" d="M2980.35,119.52c7.13,0,13.72,3.87,12.82,13.52-1.09,11.46-7.24,17.81-16.93,17.83h-8.47c-1.22,0-1.81,1-2.12,3L2964,164.33c-.25,1.57-1.06,2.34-2.25,2.34h-7.88c-1.26,0-1.69-.8-1.41-2.6l6.5-41.74c.32-2,1.09-2.81,2.5-2.81Zm-12.84,22.34h6.42c4-.15,6.67-2.93,7-7.94.16-3.1-1.93-5.31-5.26-5.3l-6,0-2.07,13.21Zm47.08,21.62c.72-.66,1.45-1,1.35-.19l-.26,1.93c-.13,1,.27,1.55,1.21,1.55h7c1.17,0,1.75-.48,2-2.3l4.31-27.07c.22-1.36-.11-2-1.14-2h-7.71c-.69,0-1,.39-1.21,1.45l-.28,1.66c-.14.87-.55,1-.92.15-1.3-3.09-4.63-4.48-9.28-4.37-10.8.23-18.08,8.42-18.86,18.93-.6,8.13,5.22,14.5,12.9,14.5,5.57,0,8.06-1.64,10.86-4.2Zm-5.87-4.17a7,7,0,0,1-7.22-8.25,10.08,10.08,0,0,1,9.68-8.26,7,7,0,0,1,7.21,8.26A10,10,0,0,1,3008.72,159.31Zm35.23-24h-7.1c-1.47,0-2.07,1.09-1.6,2.44l8.81,25.8-8.64,12.29c-.73,1-.16,2,.86,2h8a2.43,2.43,0,0,0,2.36-1.16l27.11-38.88c.84-1.2.44-2.46-.93-2.46h-7.55c-1.29,0-1.81.51-2.55,1.59l-11.31,16.38-5-16.42a2.16,2.16,0,0,0-2.39-1.54Z"/><path class="cls-12" d="M3101.93,119.52c7.14,0,13.72,3.87,12.82,13.52-1.09,11.46-7.23,17.81-16.92,17.83h-8.47c-1.21,0-1.81,1-2.12,3l-1.64,10.42c-.24,1.57-1.06,2.34-2.25,2.34h-7.88c-1.25,0-1.69-.8-1.41-2.6l6.52-41.74c.32-2.06,1.09-2.82,2.49-2.82h18.86Zm-12.83,22.34h6.41c4-.15,6.68-2.93,6.95-7.94.16-3.1-1.93-5.31-5.25-5.3l-6,0Zm47.08,21.62c.71-.66,1.45-1,1.35-.19l-.26,1.93c-.13,1,.27,1.55,1.21,1.55h7c1.19,0,1.76-.48,2.05-2.3l4.31-27.07c.22-1.36-.11-2-1.14-2H3143c-.7,0-1,.39-1.22,1.45l-.28,1.66c-.15.87-.55,1-.92.15-1.3-3.09-4.63-4.48-9.28-4.37-10.8.23-18.08,8.42-18.86,18.93-.6,8.13,5.22,14.5,12.9,14.5,5.57,0,8.06-1.64,10.87-4.2Zm-5.86-4.17a7,7,0,0,1-7.22-8.25,10.06,10.06,0,0,1,9.67-8.26,7,7,0,0,1,7.21,8.26A10,10,0,0,1,3130.32,159.31Zm32.29,7.5h-8.08a.94.94,0,0,1-.76-.31,1,1,0,0,1-.24-.78l7.1-45a1.39,1.39,0,0,1,1.35-1.09h8.08a.9.9,0,0,1,.75.31.93.93,0,0,1,.24.78l-7.1,45a1.4,1.4,0,0,1-1.34,1.11Z"/><path class="cls-13" d="M2875.27,102.81h21.18c6,0,13,.19,17.76,4.37a14.34,14.34,0,0,1,4.44,12c-1.3,16.17-11,25.22-23.94,25.22h-10.44c-1.79,0-3,1.18-3.46,4.37l-2.91,18.57c-.2,1.2-.72,1.91-1.64,2h-13.08c-1.45,0-2-1.09-1.58-3.51l9.4-59.52C2871.38,104,2872.69,102.81,2875.27,102.81Z"/><path class="cls-14" d="M2881.11,146.91l3.7-23.41c.33-2,1.45-3,3.69-3h21.16a20.69,20.69,0,0,1,8.56,1.56c-2.13,14.4-11.44,22.39-23.63,22.39h-10.43C2882.76,144.41,2881.73,145.11,2881.11,146.91Z"/><rect class="cls-1" x="1865" width="430.54" height="270.63" rx="50"/><path class="cls-15" d="M1985.93,99.22c-29.36,0-53.17,15.22-53.17,34s23.81,35.48,53.17,35.48,53.17-16.7,53.17-35.48-23.81-34-53.17-34Z"/><path class="cls-11" d="M1968.64,122.73s-.55.59-.21,1c.82,1.05,3.36,1.65,5.93,1.08,1.53-.34,3.48-1.91,5.39-3.41a21.46,21.46,0,0,1,6.15-3.92,7,7,0,0,1,4.48-.12,13.9,13.9,0,0,1,4.09,2.39c3.56,2.68,17.89,15.19,20.37,17.35a137.65,137.65,0,0,1,23.54-7.39c-1.05-6.43-4.91-12.55-10.83-17.36-8.26,3.47-19,5.54-28.9.73a27.25,27.25,0,0,0-10.66-2.43c-7.82.18-11.22,3.58-14.81,7.16l-4.54,4.9Z"/><path class="cls-11" d="M2014.25,138.48c-.17-.15-16.85-14.75-20.63-17.6a9.27,9.27,0,0,0-4.68-2.22,7,7,0,0,0-2.23.21,20.42,20.42,0,0,0-6.1,3.64c-2.11,1.68-4.11,3.27-5.95,3.68a9.67,9.67,0,0,1-6.57-1A2.93,2.93,0,0,1,1967,124a2,2,0,0,1,.56-2.18l4.61-5c.53-.53,1.07-1.07,1.62-1.59a30.32,30.32,0,0,0-4.2.94,18.13,18.13,0,0,1-4.89.91,46.81,46.81,0,0,1-5-.78,82.61,82.61,0,0,1-14.36-4.79c-6.53,4.86-10.8,10.85-12.06,17.56.94.25,3.41.81,4,1,14.82,3.29,19.43,6.68,20.26,7.39a4.9,4.9,0,0,1,7.69.46,5.62,5.62,0,0,1,3.54-1.25,6.66,6.66,0,0,1,2.11.38,4.87,4.87,0,0,1,3,2.69,5.05,5.05,0,0,1,2.06-.44,6.35,6.35,0,0,1,2.47.55,5.25,5.25,0,0,1,2.91,5.87,5.89,5.89,0,0,1,5.76,8.62,9.42,9.42,0,0,0,5.1,1.37,3.28,3.28,0,0,0,2.38-1.05c.15-.21.3-.45.16-.62l-4.18-4.64s-.69-.66-.46-.91.66.11,1,.37c2.12,1.77,4.71,4.45,4.71,4.45s.22.38,1.18.54a4.31,4.31,0,0,0,3.3-.76,5.74,5.74,0,0,0,.73-.75l0,0a2.21,2.21,0,0,0-.11-2.75l-4.88-5.48s-.7-.65-.47-.9.66.11,1,.36c1.55,1.3,3.73,3.48,5.82,5.54A4,4,0,0,0,2007,149a3.33,3.33,0,0,0,1.73-3.05,3.44,3.44,0,0,0-1-2l-6.67-6.7s-.71-.61-.45-.91.66.12,1,.36q4,3.48,7.86,7a4,4,0,0,0,4.53-.09,3,3,0,0,0,1.22-3.87A3.55,3.55,0,0,0,2014.25,138.48Z"/><path class="cls-11" d="M1981.93,147a14.12,14.12,0,0,0-2.32.51c-.08,0,.07-.47.16-.71s1.46-4.34-1.85-5.75a3.91,3.91,0,0,0-4.63.69c-.14.14-.2.13-.21-.05a3.65,3.65,0,0,0-2.58-3.4,5,5,0,0,0-5.66,2,3.61,3.61,0,1,0-1.07,3.09s0,0,0,.11a4.79,4.79,0,0,0,3,5.51,3.59,3.59,0,0,0,3.51-.54c.29-.21.33-.12.29.15-.12.84,0,2.64,2.56,3.66a3.24,3.24,0,0,0,3.8-.71c.32-.29.41-.24.43.22a4.57,4.57,0,1,0,4.57-4.79Z"/><path class="cls-16" d="M1985.92,97.82c-29.92,0-54.18,15.91-54.18,35.43v2.08c0,20.72,21.2,37.48,54.18,37.48,33.17,0,54.18-16.76,54.18-37.48v-2.08C2040.1,113.73,2015.84,97.82,1985.92,97.82Zm51.74,31.51a123.72,123.72,0,0,0-22.76,7.39c-5.14-4.48-17-14.81-20.24-17.22a13.87,13.87,0,0,0-4.19-2.44,6.87,6.87,0,0,0-2.06-.32,8.61,8.61,0,0,0-2.61.44,21.16,21.16,0,0,0-6.16,3.9l-.1.08c-1.86,1.48-3.8,3-5.25,3.34a9.17,9.17,0,0,1-2,.21,5,5,0,0,1-3.66-1.17c-.09-.12,0-.31.19-.57l0,0,4.52-4.88c3.55-3.53,6.89-6.88,14.59-7.06h.39a27.47,27.47,0,0,1,10.12,2.4,31.32,31.32,0,0,0,13.8,3.3,36,36,0,0,0,15.1-3.61C2032.91,117.7,2036.55,123.26,2037.66,129.33Zm-51.73-29.42c15.89,0,30.1,4.55,39.65,11.72a33.38,33.38,0,0,1-13.26,3,29.37,29.37,0,0,1-12.91-3.11,29.16,29.16,0,0,0-11-2.6H1988a19.16,19.16,0,0,0-12.55,4.46,24.69,24.69,0,0,0-6.27,1.15,17.12,17.12,0,0,1-4.42.85c-.56,0-1.59-.06-1.68-.06a85.89,85.89,0,0,1-15.82-4.38C1956.74,104.17,1970.56,99.91,1985.93,99.91Zm-40.6,12.46c6.61,2.7,14.62,4.78,17.16,4.95.71,0,1.46.12,2.21.12a18.79,18.79,0,0,0,5-.92c1-.27,2-.57,3.13-.77l-.89.88-4.59,5a2.28,2.28,0,0,0-.63,2.53,3.08,3.08,0,0,0,1.21,1.34,9.43,9.43,0,0,0,4.87,1.24,8.5,8.5,0,0,0,2-.2c1.93-.43,4-2,6.08-3.74a20,20,0,0,1,6-3.58,7.14,7.14,0,0,1,1.66-.23,3,3,0,0,1,.43,0,9,9,0,0,1,4.53,2.16c3.77,2.83,20.46,17.43,20.62,17.57a3.22,3.22,0,0,1,1,2.45,2.65,2.65,0,0,1-1.34,2.13,4,4,0,0,1-2.18.68,3.67,3.67,0,0,1-1.94-.55c-.06-.06-5.78-5.3-7.88-7.06a1.71,1.71,0,0,0-1-.52.54.54,0,0,0-.44.2c-.33.41,0,1,.48,1.34l6.68,6.72a3.13,3.13,0,0,1,.92,1.81,3.07,3.07,0,0,1-1.58,2.77,4.38,4.38,0,0,1-2.37.78,3.43,3.43,0,0,1-1.91-.58l-1-.94c-1.57-1.6-3.2-3.13-4.89-4.61a1.71,1.71,0,0,0-1-.52.56.56,0,0,0-.42.18c-.15.17-.26.47.12,1a2.41,2.41,0,0,0,.34.37l4.87,5.48a1.87,1.87,0,0,1,.11,2.34l-.18.21a4.67,4.67,0,0,1-.45.44,3.88,3.88,0,0,1-3,.7,1.71,1.71,0,0,1-1-.4L1996,153c-.26-.27-2.72-2.78-4.75-4.48a1.76,1.76,0,0,0-1-.5.6.6,0,0,0-.44.19c-.4.44.2,1.1.46,1.34l4.15,4.59a1.08,1.08,0,0,1-.15.28,3,3,0,0,1-2.16.9l-.55,0a9.61,9.61,0,0,1-4.08-1.21,6.21,6.21,0,0,0-5.82-8.84,5.5,5.5,0,0,0-3.15-5.81A6.44,6.44,0,0,0,1976,139a5.12,5.12,0,0,0-1.9.35,5.22,5.22,0,0,0-3-2.58,6.8,6.8,0,0,0-2.23-.39,5.83,5.83,0,0,0-3.47,1.11,5.22,5.22,0,0,0-7.34-.83,5.34,5.34,0,0,0-.44.39c-1.29-1-6.43-4.25-20.16-7.37-1-.26-2.07-.54-3.09-.85C1935.59,122.62,1939.51,117,1945.33,112.37Zm25.49,35.75-.15-.14h-.15a.83.83,0,0,0-.42.18,3.54,3.54,0,0,1-2,.72,3,3,0,0,1-1.15-.22,4.46,4.46,0,0,1-2.78-5.15.44.44,0,0,0-.13-.42l-.23-.18-.21.2a3.3,3.3,0,1,1,1-2.8l.11.89.49-.75a4.58,4.58,0,0,1,5.28-1.88,3.31,3.31,0,0,1,2.34,3.1c0,.44.35.46.41.46a.53.53,0,0,0,.38-.2,3.32,3.32,0,0,1,2.43-1,5,5,0,0,1,1.83.41c3.11,1.34,1.7,5.29,1.68,5.33-.26.66-.28,1,0,1.12l.12.05h.1a2.11,2.11,0,0,0,.6-.15,5.26,5.26,0,0,1,1.66-.37,4.25,4.25,0,1,1-4.24,4.44c0-.19,0-.71-.46-.71a.83.83,0,0,0-.52.27,3,3,0,0,1-2.08.94,3.59,3.59,0,0,1-1.37-.3c-2.42-1-2.45-2.64-2.35-3.3A.65.65,0,0,0,1970.82,148.12Zm15.12,18.44c-28.77,0-52.1-14.92-52.1-33.33,0-.73.05-1.47.12-2.2l3,.71c14,3.11,18.67,6.36,19.46,7a5.25,5.25,0,0,0,2.81,6.87,5.32,5.32,0,0,0,3,.33,6.16,6.16,0,0,0,4,4.58,5.07,5.07,0,0,0,3.08.21,6.08,6.08,0,0,0,5.33,3.48,4.58,4.58,0,0,0,1.6-.29,6.19,6.19,0,0,0,8.07,3.39,6.28,6.28,0,0,0,2.11-1.42,11.57,11.57,0,0,0,5.25,1.56,5.24,5.24,0,0,0,.79,0,4.79,4.79,0,0,0,3.56-1.74,3.13,3.13,0,0,0,.22-.36,6,6,0,0,0,1.68.27,5.63,5.63,0,0,0,3.39-1.21,4.64,4.64,0,0,0,2-3,6.1,6.1,0,0,0,1.13.11,6.31,6.31,0,0,0,3.49-1.11,5,5,0,0,0,2.5-4.47,5.72,5.72,0,0,0,4.42-.89,4.8,4.8,0,0,0,2.27-3.7,5.11,5.11,0,0,0-.72-3,133.56,133.56,0,0,1,21.6-6.76c0,.55.07,1.1.07,1.66,0,18.4-23.32,33.32-52.1,33.32Zm239.91-57.84q-2.94-3.69-9-3.69t-9,3.69a14.47,14.47,0,0,0,0,17.51q3,3.64,9,3.65t9-3.65a14.49,14.49,0,0,0,0-17.51ZM2221,122.87a5.41,5.41,0,0,1-7.62.61,7,7,0,0,1-.61-.61,8.86,8.86,0,0,1-1.44-5.41,8.72,8.72,0,0,1,1.45-5.39,5.41,5.41,0,0,1,7.63-.59,5.48,5.48,0,0,1,.59.59,8.77,8.77,0,0,1,1.43,5.39,8.87,8.87,0,0,1-1.43,5.41Zm-45.42-16.21a15,15,0,0,0-6.85-1.52q-5.92,0-8.36,3.09a9,9,0,0,0-1.73,5h5.9a4.4,4.4,0,0,1,.88-2.15,3.86,3.86,0,0,1,3.1-1.07,6.44,6.44,0,0,1,3,.54,2.06,2.06,0,0,1,1,2,1.83,1.83,0,0,1-1.31,1.74,9.84,9.84,0,0,1-2.45.53l-2.09.26a14.87,14.87,0,0,0-5.41,1.5,6.64,6.64,0,0,0-3.34,6.25A6.43,6.43,0,0,0,2160,128a8.21,8.21,0,0,0,5.27,1.81c13.35.6,13.2-7,13.32-8.62v-8.78Q2178.55,108.2,2175.56,106.66Zm-3.1,13.33a4.92,4.92,0,0,1-1.75,4.23,6.41,6.41,0,0,1-3.69,1.16,3.42,3.42,0,0,1-2.15-.7,2.73,2.73,0,0,1-.88-2.27,2.79,2.79,0,0,1,1.44-2.59,8.75,8.75,0,0,1,2.81-.83l1.39-.27a9.51,9.51,0,0,0,1.65-.42,5.92,5.92,0,0,0,1.18-.59Zm-27.33-9.62a4,4,0,0,1,3.38,1.42,5.27,5.27,0,0,1,.92,2.35H2156q-.54-5-3.48-7a13.37,13.37,0,0,0-7.57-2,11.06,11.06,0,0,0-8.54,3.34,13.22,13.22,0,0,0-3.09,9.33,13,13,0,0,0,2.8,8.66c1.86,2.22,4.78,3.33,8.73,3.33a10.51,10.51,0,0,0,9-4,9.8,9.8,0,0,0,2.12-5.26h-6.56a5.58,5.58,0,0,1-1.15,3,4,4,0,0,1-3.21,1.15,4.29,4.29,0,0,1-4.34-2.91,11.1,11.1,0,0,1-.63-4.12,11.93,11.93,0,0,1,.63-4.31,4.42,4.42,0,0,1,4.45-3.06Zm-13.56-5.16c-13.53,0-12.72,12-12.72,12v12.16H2125V117.94a9.36,9.36,0,0,1,.71-4.15q1.26-2.4,4.94-2.4a14.68,14.68,0,0,1,1.75.11v-6.24l-.52,0Zm-17.64,4.54a9.57,9.57,0,0,0-4-3.45,13.41,13.41,0,0,0-5.48-1.09,11.26,11.26,0,0,0-8.34,3.23q-3.21,3.24-3.22,9.29c0,4.32,1.19,7.42,3.57,9.34a12.76,12.76,0,0,0,8.21,2.87,11.3,11.3,0,0,0,8.77-3.41,8.15,8.15,0,0,0,2.12-3.53H2109a4.89,4.89,0,0,1-.84.92,5.23,5.23,0,0,1-3.43.93,5.77,5.77,0,0,1-3.27-.78,5.52,5.52,0,0,1-2.49-4.87h17a29.85,29.85,0,0,0-.2-4.63A11.56,11.56,0,0,0,2113.93,109.75Zm-14.78,5.42a6.38,6.38,0,0,1,1.63-3.6,4.85,4.85,0,0,1,3.64-1.34,5.33,5.33,0,0,1,3.61,1.26,5.05,5.05,0,0,1,1.63,3.68h-10.51Zm-18.48-10a8.92,8.92,0,0,0-7,3.25,8.63,8.63,0,0,0-7-3.25c-6,0-9.85,4.41-9.85,10.24v14h5.6V115.23a4.1,4.1,0,0,1,3.86-4.35h.39a3.91,3.91,0,0,1,4.11,3.69,3.8,3.8,0,0,1,0,.67v14.11h5.61V115.23a4.15,4.15,0,0,1,3.92-4.36h.33a3.94,3.94,0,0,1,4.14,3.73,4.42,4.42,0,0,1,0,.63v14.11h5.6v-14c0-6-3.61-10.23-9.73-10.23Zm116.31-3v6.57a7.18,7.18,0,0,0-2.67-2.58,7.4,7.4,0,0,0-3.77-.93,8.92,8.92,0,0,0-7.34,3.42,15.05,15.05,0,0,0-2.75,9.55,12.67,12.67,0,0,0,2.79,8.48c1.87,2.19,5.51,3.16,8.75,3.16,11.31,0,11.17-9.68,11.17-9.68V97.84s-6.17-.66-6.17,4.31Zm-1.18,20.76a4.48,4.48,0,0,1-3.94,1.92,4.32,4.32,0,0,1-3.86-1.94,9.89,9.89,0,0,1-1.27-5.32,9.42,9.42,0,0,1,1.25-5,4.3,4.3,0,0,1,3.92-2,4.66,4.66,0,0,1,3.08,1.11c1.45,1.24,2.16,3.43,2.16,6.28a8.51,8.51,0,0,1-1.34,5Zm-126,15.81c-5.05-.24-7.61,1-9.27,2.23-2.3,1.75-3.69,4.35-3.69,8.5v21.32h3A3.18,3.18,0,0,0,2062,170a2.87,2.87,0,0,0,1-2.21v-8a6.81,6.81,0,0,0,2.9,2.75,9.28,9.28,0,0,0,4,.81,8.5,8.5,0,0,0,6.95-3.39,14.37,14.37,0,0,0,2.7-9.08,13.09,13.09,0,0,0-2.9-8.89,9.27,9.27,0,0,0-6.77-3.27Zm2.09,17.49a4.33,4.33,0,0,1-3.7,1.88,4.49,4.49,0,0,1-3.87-1.88,8,8,0,0,1-1.36-5.07,9.09,9.09,0,0,1,1.26-5.34,4.43,4.43,0,0,1,3.8-1.87,4.48,4.48,0,0,1,3.87,1.87,8.93,8.93,0,0,1,1.36,5.34,8.42,8.42,0,0,1-1.36,5.07Zm50.62-15.29a11.22,11.22,0,0,0-7.88-2.3c-3.73.1-6.43,1.14-8.11,3.42A14.7,14.7,0,0,0,2104,151a13.64,13.64,0,0,0,1.89,7.61,10,10,0,0,0,4.57,3.95,8.72,8.72,0,0,0,5.36.45,6.76,6.76,0,0,0,4.3-3.11v1.51a7.36,7.36,0,0,1-1.37,4.27,4.85,4.85,0,0,1-2.67,1.73,4.93,4.93,0,0,1-5.09-2.26h-6.46c1.67,5,4.68,7.26,10.1,7.65,8.73.62,11.51-6.78,11.51-10.77V149.47c0-4.15-1.35-6.81-3.63-8.54ZM2120,153.26a6.55,6.55,0,0,1-1.16,3.06q-1.68,2.31-5.22,1.64c-2.36-.44-3.55-2.71-3.55-6.8a11.67,11.67,0,0,1,1.07-5.07,4.08,4.08,0,0,1,4.07-2.22,3.91,3.91,0,0,1,3.37,1.6,8.09,8.09,0,0,1,1.46,3.65,13.07,13.07,0,0,1,0,4.14Zm-21.19-12.95a15,15,0,0,0-6.85-1.52c-4,0-6.74,1-8.35,3.09a8.88,8.88,0,0,0-1.73,5h5.9a4.3,4.3,0,0,1,.87-2.14,3.9,3.9,0,0,1,3.1-1.08,6.38,6.38,0,0,1,3,.55,2.06,2.06,0,0,1,1,2,1.83,1.83,0,0,1-1.31,1.74,9.76,9.76,0,0,1-2.45.54l-2.09.25a15,15,0,0,0-5.4,1.51,6.65,6.65,0,0,0-3.35,6.24,6.42,6.42,0,0,0,2.08,5.13,8.24,8.24,0,0,0,5.28,1.82c13.34.6,13.19-7,13.31-8.62v-8.78c0-2.82-1-4.73-3-5.75Zm-3.1,13.33a4.88,4.88,0,0,1-1.75,4.22,6.41,6.41,0,0,1-3.69,1.16,3.4,3.4,0,0,1-2.15-.7,2.69,2.69,0,0,1-.88-2.27,2.77,2.77,0,0,1,1.44-2.59,9,9,0,0,1,2.81-.83l1.39-.26a9,9,0,0,0,1.64-.43,5.25,5.25,0,0,0,1.19-.58Zm53.71-11.39c-2-2.47-5-3.7-9-3.7s-7,1.23-8.95,3.7a14.45,14.45,0,0,0,0,17.5q3,3.65,8.95,3.65t9-3.65a14.49,14.49,0,0,0,0-17.5Zm-4.88,14.13a5.39,5.39,0,0,1-7.6.61,6,6,0,0,1-.62-.61,10.83,10.83,0,0,1,0-10.79,5.42,5.42,0,0,1,7.63-.59,5.48,5.48,0,0,1,.59.59,10.89,10.89,0,0,1,0,10.79Z"/><rect class="cls-1" x="3264" y="9" width="430.54" height="270.63" rx="50"/><g id="surface1"><path class="cls-17" d="M3453.2,187.53a2.34,2.34,0,0,1-.7-.12,2.57,2.57,0,0,1-.57-.4,2.32,2.32,0,0,1-.37-.57,1.72,1.72,0,0,1-.15-.69v-55.3a21.4,21.4,0,0,1,6.1-14.95,20.55,20.55,0,0,1,14.7-6.22h16.87a20.67,20.67,0,0,1,14.66,6.22,21.44,21.44,0,0,1,6.09,14.9v14.37a21.37,21.37,0,0,1-6.09,15A20.72,20.72,0,0,1,3489,166h-26.5a1.7,1.7,0,0,1-1.24-.55,1.82,1.82,0,0,1-.52-1.26,1.86,1.86,0,0,1,.52-1.26,1.75,1.75,0,0,1,1.24-.52H3489a17.16,17.16,0,0,0,12.21-5.15,17.82,17.82,0,0,0,5.05-12.41V130.45a17.73,17.73,0,0,0-5-12.4,17,17,0,0,0-12.18-5.15h-16.87a17.05,17.05,0,0,0-12.18,5.15,17.77,17.77,0,0,0-5.07,12.4v55.32a1.9,1.9,0,0,1-.13.67,2,2,0,0,1-.39.59,2.46,2.46,0,0,1-.57.38A1.79,1.79,0,0,1,3453.2,187.53Z"/><path class="cls-17" d="M3527.9,166.23a1.71,1.71,0,0,1-1.23-.52,1.73,1.73,0,0,1-.52-1.26V119a6.18,6.18,0,0,0-1.79-4.36,6,6,0,0,0-4.28-1.81h-7.31a1.8,1.8,0,0,1,0-3.59h7.31a9.39,9.39,0,0,1,3.66.74,9.94,9.94,0,0,1,3.12,2.11,10,10,0,0,1,2.83,6.91v45.41a1.72,1.72,0,0,1-.15.69,1.45,1.45,0,0,1-.37.57,1.86,1.86,0,0,1-.6.4A2.2,2.2,0,0,1,3527.9,166.23Z"/><path class="cls-18" d="M3532.63,98.31,3529.32,95a2.08,2.08,0,0,0-3,0L3523,98.31a2.16,2.16,0,0,0,0,3l3.32,3.4a2.1,2.1,0,0,0,3,0l3.31-3.4A2.16,2.16,0,0,0,3532.63,98.31Z"/><path class="cls-17" d="M3549.1,166h-7.23a1.68,1.68,0,0,1-1.24-.55,1.82,1.82,0,0,1-.52-1.26,1.86,1.86,0,0,1,.52-1.26,1.73,1.73,0,0,1,1.24-.52h7.23a12.4,12.4,0,0,0,4.73-1,12.63,12.63,0,0,0,4-2.72l17-17a7.3,7.3,0,0,1,8-1.63,7.62,7.62,0,0,1,2.4,1.63l16.91,16.89a12.2,12.2,0,0,0,4,2.72,11.39,11.39,0,0,0,4.73.94h5.89a1.7,1.7,0,0,1,1.24.55,1.82,1.82,0,0,1,.52,1.26,1.86,1.86,0,0,1-.52,1.26,1.79,1.79,0,0,1-1.24.52h-5.89a15.41,15.41,0,0,1-6.07-1.21,15.9,15.9,0,0,1-5.15-3.52l-16.91-16.88a4,4,0,0,0-1.24-.85,4,4,0,0,0-1.49-.29,3.9,3.9,0,0,0-1.48.29,4.49,4.49,0,0,0-1.27.85l-17,17a15,15,0,0,1-5.12,3.49A15.43,15.43,0,0,1,3549.1,166Z"/><path class="cls-17" d="M3549.1,109.28h-7.23a1.69,1.69,0,0,0-1.24.52,1.8,1.8,0,0,0,0,2.53,1.69,1.69,0,0,0,1.24.52h7.23a12,12,0,0,1,4.73,1,11.89,11.89,0,0,1,4,2.73l17,17a7.5,7.5,0,0,0,2.4,1.63,7.29,7.29,0,0,0,5.65,0,8,8,0,0,0,2.4-1.63l16.91-16.89a12.27,12.27,0,0,1,8.72-3.69h5.89a1.67,1.67,0,0,0,1.24-.52,1.79,1.79,0,0,0,0-2.52,1.67,1.67,0,0,0-1.24-.52h-5.89a14.8,14.8,0,0,0-6.07,1.21,15.9,15.9,0,0,0-5.15,3.52L3582.75,131a3.85,3.85,0,0,1-5.47,0l-17-17a15.5,15.5,0,0,0-11.19-4.73Z"/><path class="cls-18" d="M3360.47,172.13a13.62,13.62,0,0,0,9.63-4.06L3384,153.88a2.72,2.72,0,0,1,1.84-.74,2.6,2.6,0,0,1,1.83.74l14,14.24a13.62,13.62,0,0,0,4.41,3,13.11,13.11,0,0,0,5.22,1.07h2.75l-17.63,17.92a13.93,13.93,0,0,1-15.38,3.12,13.44,13.44,0,0,1-4.55-3.12l-17.73-18Z"/><path class="cls-18" d="M3411.3,122a13,13,0,0,0-5.2,1.07,13.37,13.37,0,0,0-4.43,3l-13.94,14.23a2.61,2.61,0,0,1-1.83.77,2.51,2.51,0,0,1-1.84-.77l-13.91-14.16a13.57,13.57,0,0,0-4.44-3,13,13,0,0,0-5.22-1h-1.73l17.73-18a13.9,13.9,0,0,1,19.93,0L3414.05,122Z"/><path class="cls-18" d="M3344.17,136.94l10.53-10.72h5.77a9.44,9.44,0,0,1,6.73,2.82l13.94,14.17a6.55,6.55,0,0,0,2.16,1.48,6.56,6.56,0,0,0,5.12,0,6.64,6.64,0,0,0,2.18-1.48l14-14.22a9.69,9.69,0,0,1,6.76-2.85h6.83l10.57,10.78a14.51,14.51,0,0,1,0,20.3L3418.16,168h-6.86a9.56,9.56,0,0,1-6.73-2.85l-14-14.21a6.79,6.79,0,0,0-9.48,0l-13.92,14.16a9.45,9.45,0,0,1-6.73,2.83h-5.77l-10.53-10.7a14.54,14.54,0,0,1-3.07-4.65,14.48,14.48,0,0,1,3.07-15.63Z"/><path class="cls-17" d="M3460.8,187.08v-8.29h.64l0,.37a13.4,13.4,0,0,1,2.9-.52,2.64,2.64,0,0,1,1.91.62,3.71,3.71,0,0,1,.69,1.19,3.22,3.22,0,0,1,.15,1.38,3,3,0,0,1-.25,1.49,3.32,3.32,0,0,1-.94,1.19,4.49,4.49,0,0,1-2.18.57,7.67,7.67,0,0,1-2.18-.37v2.42Zm3.49-7.65a11.15,11.15,0,0,0-2.7.47v4a5.28,5.28,0,0,0,2.08.37c1.81,0,2.63-.67,2.63-2.43S3465.6,179.43,3464.29,179.43Z"/><path class="cls-17" d="M3473.82,184.38a4.69,4.69,0,0,1-2.42.65,4.86,4.86,0,0,1-2.43-.65,3.15,3.15,0,0,1-1-2.55,3.08,3.08,0,0,1,1-2.55,3.81,3.81,0,0,1,2.45-.64,3.66,3.66,0,0,1,2.4.64,3.78,3.78,0,0,1,0,5.1Zm-2.4-5c-1.81,0-2.57.62-2.57,2.37s.76,2.51,2.57,2.51,2.55-.62,2.55-2.41S3473.18,179.41,3471.42,179.41Z"/><path class="cls-17" d="M3482.19,184.88l-2-4.9h-.05l-2,4.9h-.74l-2.23-6.09h.87l1.76,5h.07l1.93-5h.74l2,5h0l1.74-5h.79l-2.23,6.09Z"/><path class="cls-17" d="M3488.66,185a2.93,2.93,0,0,1-2.23-.67,4,4,0,0,1,.17-5.1,3.4,3.4,0,0,1,2.13-.6,2.75,2.75,0,0,1,3.12,3.4h-5.42c0,1.19.39,2.2,2.35,2.2a12.63,12.63,0,0,0,2.8-.35v.75A15.15,15.15,0,0,1,3488.66,185Zm.05-5.65c-1.64,0-2.18.79-2.31,2H3491c-.05-1.33-.65-2-2.3-2Z"/><path class="cls-17" d="M3493.11,184.88v-6.09h.67l0,.37a7.9,7.9,0,0,1,2.65-.52h.1v.82h-.22a7.16,7.16,0,0,0-2.45.44v5Z"/><path class="cls-17" d="M3500.15,185a2.91,2.91,0,0,1-2.23-.67,3.43,3.43,0,0,1-.7-1.16,3.73,3.73,0,0,1-.14-1.37,3.26,3.26,0,0,1,.22-1.41,2.56,2.56,0,0,1,2.9-1.78,3.42,3.42,0,0,1,2.17.57c.82.59,1,1.63,1,2.82h-5.43c0,1.19.4,2.23,2.35,2.23a15.33,15.33,0,0,0,2.8-.37v.77A17.86,17.86,0,0,1,3500.15,185Zm0-5.65c-1.64,0-2.21.79-2.33,2h4.63c-.05-1.33-.65-2-2.33-2Z"/><path class="cls-17" d="M3509.9,184.88l-.05-.37a11.32,11.32,0,0,1-2.89.52,2.7,2.7,0,0,1-1.91-.62,3.49,3.49,0,0,1-.67-1.19,3.64,3.64,0,0,1-.17-1.39,3.07,3.07,0,0,1,.27-1.48,2.86,2.86,0,0,1,.92-1.17,4.14,4.14,0,0,1,2.2-.57,6.37,6.37,0,0,1,2.15.38v-2.75h.8v8.61Zm-.15-5.1a5.5,5.5,0,0,0-2.08-.4c-1.8,0-2.62.7-2.62,2.45s.69,2.38,2,2.38a10.55,10.55,0,0,0,2.67-.42Z"/><path class="cls-17" d="M3521.19,184.51a4.49,4.49,0,0,1-2.18.57,7.63,7.63,0,0,1-2.4-.47l0,.29H3516v-8.66h.79v2.89a12,12,0,0,1,2.8-.49,2.6,2.6,0,0,1,1.88.62,3.1,3.1,0,0,1,.69,1.19,3.22,3.22,0,0,1,.15,1.38,3,3,0,0,1-1.14,2.68Zm-1.68-5.08a11.08,11.08,0,0,0-2.67.47v4a5.28,5.28,0,0,0,2.08.4c1.8,0,2.62-.69,2.62-2.43S3520.85,179.43,3519.51,179.43Z"/><path class="cls-17" d="M3522.93,187.21v-.8a4,4,0,0,0,.79.08c.77,0,1.21-.25,1.61-1.16l.17-.45-2.82-6.09h.92l2.3,5.1h0l2.18-5.1h.86l-3,6.76c-.54,1.26-1.16,1.71-2.28,1.71C3523.47,187.26,3523.17,187.23,3522.93,187.21Z"/><path class="cls-17" d="M3540.38,184.29c-.76.56-1.68.56-3.39.56h-3.17v-8.22h3.1c1.46,0,2.35,0,3.09.55a2,2,0,0,1,.72,1.83,1.94,1.94,0,0,1-.35,1,2.14,2.14,0,0,1-.76.64v0a2.32,2.32,0,0,1,1,.57,2.06,2.06,0,0,1,.52,1,2.22,2.22,0,0,1-.07,1.14,1.87,1.87,0,0,1-.67.92Zm-3.24-6.32h-1.68v2.13h1.7c1.42,0,2-.2,2-1.09S3538.43,178,3537.14,178Zm.4,3.44h-2.08v2.13h2.08c1.43,0,2-.2,2-1.09S3538.77,181.41,3537.54,181.41Z"/><path class="cls-17" d="M3547.39,184.88l0-.37a11.63,11.63,0,0,1-2.93.52,2.5,2.5,0,0,1-1.61-.42,1.78,1.78,0,0,1-.47-.67,2.62,2.62,0,0,1-.14-.82,2,2,0,0,1,.22-.94,1.64,1.64,0,0,1,.69-.69,4.2,4.2,0,0,1,2-.32c.57,0,1.31,0,2,.07v-.1c0-1-.57-1.26-2.08-1.26a17,17,0,0,0-2,.1v-1.22c.74-.07,1.58-.12,2.3-.12a3.91,3.91,0,0,1,2.48.57,2.42,2.42,0,0,1,.74,2.08v3.59Zm-.3-2.55a15.5,15.5,0,0,0-1.93-.1c-1.11,0-1.48.25-1.48.82s.32.81,1.16.81a9.62,9.62,0,0,0,2.23-.37Z"/><path class="cls-17" d="M3555.14,184.88v-3.37c0-1.09-.49-1.48-1.39-1.48a7.54,7.54,0,0,0-2.17.37v4.48h-1.51v-6.09h1.21l.07.39a11.53,11.53,0,0,1,2.85-.57,2.2,2.2,0,0,1,1,.1,2.08,2.08,0,0,1,.84.55,2.34,2.34,0,0,1,.49.87,1.92,1.92,0,0,1,.08,1v3.71Z"/><path class="cls-17" d="M3560.56,185a2.86,2.86,0,0,1-2-.62,3.36,3.36,0,0,1-.84-2.58,2.91,2.91,0,0,1,.24-1.43,3.45,3.45,0,0,1,.87-1.17,3.83,3.83,0,0,1,2.35-.59,16.67,16.67,0,0,1,1.89.12v1.29a13.55,13.55,0,0,0-1.71-.1c-1.41,0-2.08.5-2.08,1.88s.49,1.89,1.66,1.89a9.94,9.94,0,0,0,2.25-.33v1.24A12,12,0,0,1,3560.56,185Z"/><path class="cls-17" d="M3570.05,184.41a5.72,5.72,0,0,1-5.18,0,3.84,3.84,0,0,1,0-5.15,5.72,5.72,0,0,1,5.18,0,3,3,0,0,1,1,2.57A3.12,3.12,0,0,1,3570.05,184.41Zm-2.58-4.51c-1.43,0-2,.52-2,1.88s.62,2,2,2,2-.5,2-1.89S3568.88,179.9,3567.47,179.9Z"/><path class="cls-17" d="M3579.28,185a3.57,3.57,0,0,1-2.6-.84,4.61,4.61,0,0,1-1.11-3.45,4.22,4.22,0,0,1,1.46-3.49,5.17,5.17,0,0,1,3.1-.79c.81,0,1.63.07,2.52.15v1.48c-.77-.07-1.71-.12-2.47-.12-2.06,0-2.95.87-2.95,2.77s.82,2.8,2.35,2.8a15,15,0,0,0,3.25-.49v1.48A15.67,15.67,0,0,1,3579.28,185Z"/><path class="cls-17" d="M3586.74,185a3,3,0,0,1-2.28-.67,3.25,3.25,0,0,1-.69-1.16,3.81,3.81,0,0,1-.18-1.37,3.21,3.21,0,0,1,.23-1.38,3.35,3.35,0,0,1,.79-1.19,3.62,3.62,0,0,1,2.35-.62,3.77,3.77,0,0,1,2.33.59c.86.7.94,1.76.94,3h-5.1c0,.94.47,1.54,2,1.54a16.06,16.06,0,0,0,2.85-.33v1.19A18.06,18.06,0,0,1,3586.74,185Zm.22-5.33c-1.24,0-1.71.52-1.81,1.44h3.62C3588.69,180.15,3588.2,179.7,3587,179.7Z"/><path class="cls-17" d="M3596.52,184.88v-3.37c0-1.09-.5-1.48-1.39-1.48a7.92,7.92,0,0,0-2.2.37v4.48h-1.49v-6.09h1.22l0,.39a12,12,0,0,1,2.88-.57,2.12,2.12,0,0,1,1.85.65,2.23,2.23,0,0,1,.5.87,2.28,2.28,0,0,1,.07,1v3.71Z"/><path class="cls-17" d="M3602,185a1.68,1.68,0,0,1-1-.18,2,2,0,0,1-.77-.66,3.74,3.74,0,0,1-.39-1.86v-2.25h-1.09v-1.29h1.09L3600,177h1.34v1.83h2.1v1.26h-2.1v2a2.79,2.79,0,0,0,.15,1.14.76.76,0,0,0,.39.44.94.94,0,0,0,.57.13,4.75,4.75,0,0,0,1.07-.13v1.22A8.79,8.79,0,0,1,3602,185Z"/><path class="cls-17" d="M3604.59,184.88v-6.09h1.21l0,.39a9,9,0,0,1,2.65-.57h.2v1.49h-.52a6.82,6.82,0,0,0-2.1.32v4.48Z"/><path class="cls-17" d="M3614.25,184.88l-.05-.37a11.55,11.55,0,0,1-2.92.52,2.48,2.48,0,0,1-1.61-.42,1.68,1.68,0,0,1-.47-.67,2,2,0,0,1-.13-.82,1.89,1.89,0,0,1,.2-1,1.78,1.78,0,0,1,.69-.67,4.26,4.26,0,0,1,2-.32c.57,0,1.31,0,2,.07v-.1c0-1-.57-1.26-2.08-1.26a17.15,17.15,0,0,0-2,.1v-1.22c.74-.07,1.61-.12,2.3-.12a4,4,0,0,1,2.5.57,2.38,2.38,0,0,1,.72,2.08v3.59Zm-.32-2.55a15.56,15.56,0,0,0-1.94-.1c-1.11,0-1.48.25-1.48.82s.32.81,1.16.81a8.35,8.35,0,0,0,2.26-.37Z"/><path class="cls-17" d="M3616.9,184.88v-8.64h1.51v8.64Z"/></g><rect class="cls-1" x="933.5" y="4.5" width="430.54" height="270.63" rx="50"/><path class="cls-19" d="M1061.53,112.51v22.71c-.29,0-.53.08-.78.08-2.38,0-4.76,0-7.13,0-.62,0-.84-.17-.84-.81q0-15.68,0-31.34c0-.62.22-.75.79-.75q6.17,0,12.32,0a1,1,0,0,1,1.09.77q3.38,9.38,6.78,18.72l.32.82c.48-1.27.9-2.38,1.3-3.49,1.95-5.42,3.89-10.84,5.87-16.25a.93.93,0,0,1,.68-.53c4.28,0,8.55,0,12.83,0a2.46,2.46,0,0,1,.41.07v.92c0,10.28,0,20.56,0,30.83,0,.9-.28,1.09-1.11,1.07q-3.35-.07-6.71,0c-.77,0-1-.22-1-1,0-7.19,0-14.38,0-21.57,0-.07,0-.14,0-.4-.95,2.6-1.85,5-2.74,7.46q-2.73,7.39-5.43,14.8a.88.88,0,0,1-1,.7c-2.15,0-4.3,0-6.45,0-.64,0-.82-.31-1-.79-1.39-3.82-2.8-7.63-4.2-11.45l-3.87-10.57Z"/><path class="cls-19" d="M1272.42,121.79V102.42h1.9c2,0,4,0,5.94,0,.84,0,1,.26,1,1.06,0,6.37,0,12.74,0,19.11,0,3.91,0,7.81,0,11.72,0,.74-.16,1.05-1,1-3,0-5.94,0-8.91,0a1.35,1.35,0,0,1-1.3-.69q-6.24-9.45-12.51-18.88l-.57-.8v1.27c0,6,0,12,0,18,0,.84-.2,1.14-1.09,1.11-2.31-.06-4.64,0-7,0-.72,0-.9-.24-.9-.93q0-15.46,0-30.91c0-.88.25-1.09,1.1-1.08,3.14,0,6.28,0,9.43,0a1.38,1.38,0,0,1,1,.53q6.12,9.08,12.18,18.18l.47.69Z"/><path class="cls-19" d="M1201.69,152.09V157h1c5.41,0,10.82,0,16.22,0,.83,0,1.15.18,1.12,1.08-.07,1.86-.07,3.73,0,5.6,0,.85-.28,1-1.07,1-5.43,0-10.87,0-16.3,0-.81,0-1.12.18-1.06,1a23.88,23.88,0,0,1,0,3.05c0,.76.21,1,1,1,5.55,0,11.1,0,16.64,0,1.3,0,1.3,0,1.3,1.27,0,1.72,0,3.45,0,5.18,0,1.16,0,1.16-1.13,1.16q-10.16,0-20.3,0h-5.18c-1.27,0-1.27,0-1.27-1.24V159.83c0-4.81,0-9.62,0-14.44,0-.79.25-1,1-1q12.9,0,25.82,0c.87,0,1.1.25,1.08,1.1-.07,1.87-.07,3.74,0,5.6,0,.8-.24,1-1,1-5.5,0-11,0-16.48,0Z"/><path class="cls-19" d="M1110.65,110v5h1c5.46,0,10.92,0,16.39,0,.76,0,1,.17,1,1,0,1.87-.06,3.74,0,5.6,0,.87-.24,1.11-1.09,1.11-5.44,0-10.87,0-16.3,0h-1c0,1.55,0,3,0,4.47,0,.16.33.42.53.45a11,11,0,0,0,1.52,0c5.24,0,10.47,0,15.71,0,.85,0,1.13.23,1.1,1.1-.07,1.92,0,3.85,0,5.77,0,.64-.21.83-.83.83q-13.11,0-26.23,0c-.92,0-.84-.52-.84-1.09q0-14.73,0-29.47c0-.53,0-1.07,0-1.61s.2-.74.76-.74c1.92,0,3.85,0,5.77,0,6.77,0,13.53,0,20.29,0,.87,0,1.11.23,1.08,1.09-.06,1.87,0,3.74,0,5.6,0,.75-.2,1-1,1-5.6,0-11.21,0-16.81,0Z"/><path class="cls-19" d="M1080.6,152.07h-18.8V157h17.29c1.1,0,1.1,0,1.1,1.14,0,1.87,0,3.74,0,5.61,0,.76-.25,1-1,1-5.46,0-10.92,0-16.38,0h-1.12c0,1.58,0,3.07,0,4.56,0,.6.48.44.81.44h18v7.61h-.8q-13,0-26,0c-.72,0-1-.17-1-.94q0-15.54,0-31.07c0-.72.25-.9.93-.9q13,0,26,0c.77,0,1,.24.93,1,0,1.92,0,3.85,0,5.77Z"/><path class="cls-19" d="M1253.83,144.41l-1.31,2.91c-.61,1.33-1.24,2.66-1.82,4a1.14,1.14,0,0,1-1.23.78c-4.36,0-8.72,0-13.07,0-.37,0-.74,0-1.11,0a2.33,2.33,0,0,0-2.37,2.46,2.39,2.39,0,0,0,2.45,2.4c1.64.05,3.29,0,4.93,0a54,54,0,0,1,6.5.34,8.39,8.39,0,0,1,7.52,7.83c.71,6.42-3,11.14-9.44,12a16.65,16.65,0,0,1-1.86.15c-5.72,0-11.43,0-17.15,0-.72,0-.91-.23-.9-.92,0-1.95,0-3.9,0-5.86,0-.68.22-.85.88-.85,5.35,0,10.7,0,16,0a9.86,9.86,0,0,0,1.44-.1,2.43,2.43,0,0,0,.19-4.78,6,6,0,0,0-1.34-.1c-2.58,0-5.16,0-7.73,0a11,11,0,0,1-7.47-2.5c-2.73-2.44-3.43-5.64-2.88-9.06.78-4.86,4.15-7.83,9.31-8.53a15.27,15.27,0,0,1,2-.16h18.4Z"/><path class="cls-19" d="M1285.88,144.49c-.45,1-.83,1.86-1.23,2.73-.56,1.23-1.2,2.44-1.68,3.7a1.64,1.64,0,0,1-1.83,1.2c-4.22-.06-8.43,0-12.65,0a10.7,10.7,0,0,0-1.27,0,2.34,2.34,0,0,0-2.22,2.6,2.38,2.38,0,0,0,2.43,2.24c2.83,0,5.66-.08,8.49.05a17.76,17.76,0,0,1,4.81.82,7.85,7.85,0,0,1,5.55,6.58c.62,3.88-.13,7.39-3.19,10.12a10.64,10.64,0,0,1-7.08,2.68c-6.17.11-12.34.05-18.51.05a2.67,2.67,0,0,1-.33-.06v-7.54h16.9a8.6,8.6,0,0,0,1.52-.14,2.42,2.42,0,0,0,.32-4.65,5.12,5.12,0,0,0-1.42-.19c-2.66,0-5.32.1-8-.05a16.56,16.56,0,0,1-4.79-.89,8.19,8.19,0,0,1-5.47-6.69c-.74-4.43.48-8.3,4.34-10.78a11.62,11.62,0,0,1,6.19-1.83c6.17-.07,12.35,0,18.52,0C1285.43,144.42,1285.57,144.45,1285.88,144.49Z"/><path class="cls-19" d="M1122,177.29h-2.86c-2.52,0-5,0-7.56,0a1.78,1.78,0,0,1-1.52-.69c-2.59-3.06-5.22-6.1-7.84-9.14-.12-.14-.27-.26-.46-.44-1.76,2.05-3.5,4.05-5.23,6.06-1.07,1.24-2.13,2.5-3.22,3.72a1.42,1.42,0,0,1-.92.45c-3.42,0-6.85,0-10.27,0a2.59,2.59,0,0,1-.46-.1l14.64-16.51-14.41-16.19c.49,0,.76-.08,1-.08,3.25,0,6.51,0,9.76,0a1.56,1.56,0,0,1,1.31.6q3.66,4.29,7.36,8.54c.16.19.34.37.77.83a3.4,3.4,0,0,1,.36-.74c2.46-2.88,4.93-5.76,7.42-8.61a1.64,1.64,0,0,1,1-.58c3.39-.05,6.79,0,10.19,0a4.85,4.85,0,0,1,.56.09l-14.2,16,14.63,16.57Z"/><path class="cls-19" d="M1210.31,102.31v7.92c-.4,0-.76.06-1.12.06-3,0-6-.07-9,0-4.87.16-7.57,2.8-7.8,7.67a14.08,14.08,0,0,0,.4,4.19,7,7,0,0,0,6.88,5.39c1.75.08,3.5,0,5.26,0,.3,0,.6,0,1.06.06-.25.56-.44,1-.65,1.46-.86,1.84-1.72,3.68-2.61,5.51-.13.26-.44.6-.68.61-3.31.12-6.61,0-9.74-1.29-5-2.1-7.67-5.95-8.56-11.17a20.78,20.78,0,0,1,.65-10.38,13.6,13.6,0,0,1,12-9.7C1201,102.21,1205.61,102.43,1210.31,102.31Z"/><path class="cls-19" d="M1170.19,102.43c2.79,0,5.56,0,8.33,0,.18,0,.4.28.52.48s0,.39,0,.59v30.56c0,1.22,0,1.22-1.27,1.22-2.29,0-4.58,0-6.88,0-.56,0-.79-.13-.79-.75q0-16,0-31.92A1.37,1.37,0,0,1,1170.19,102.43Z"/><path class="cls-19" d="M1179.83,165.63a31.64,31.64,0,0,0,4-1.94,9.84,9.84,0,0,0,4.49-9.13,9.68,9.68,0,0,0-5.16-8.59,12.57,12.57,0,0,0-6.27-1.55c-6.11,0-12.22,0-18.33,0-.82,0-1,.29-1,1q0,15.45,0,30.9v1c2.77,0,5.42,0,8.08,0,.71,0,.86-.26.85-.89,0-2.89,0-5.78,0-8.66v-1.88a11.68,11.68,0,0,0,1.58,0,2.43,2.43,0,0,1,2.38,1.06c2.79,3.3,5.65,6.55,8.51,9.78a1.87,1.87,0,0,0,1.21.56c3.19,0,6.39,0,9.59,0a4.85,4.85,0,0,0,.66-.1Zm-3.27-7.33c-3.3.13-6.61,0-10,0v-6.15c.24,0,.48-.08.73-.09,2.82,0,5.65,0,8.48,0a3.24,3.24,0,0,1,3.34,2A3,3,0,0,1,1176.56,158.3Z"/><path class="cls-19" d="M1157.13,123.48l1.27-.4a10.59,10.59,0,0,0,4.54-17.33,11.49,11.49,0,0,0-8.54-3.31c-6.17,0-12.34,0-18.51,0-.28,0-.55,0-.86,0,0,.19,0,.33,0,.46q0,15.79,0,31.58c0,.67.27.81.86.8,2.38,0,4.76,0,7.13,0,.83,0,1-.29,1-1,0-2.8,0-5.6,0-8.4,0-2,0-2,2-2a1.93,1.93,0,0,1,1.72.79q4.36,5.08,8.8,10.11a1.72,1.72,0,0,0,1.12.53c3.12,0,6.23,0,9.34,0,.27,0,.53,0,1-.07Zm-.41-9.88a2.88,2.88,0,0,1-2.37,2.62,6.89,6.89,0,0,1-1.43.16h-8.14c-.25,0-.5,0-.82,0v-6.25c.28,0,.53,0,.77,0,2.66,0,5.32,0,8,0a6.67,6.67,0,0,1,2.22.42A2.84,2.84,0,0,1,1156.72,113.6Z"/><path class="cls-19" d="M1051.05,134.48q-6.91-15.69-13.82-31.4a1,1,0,0,0-1.09-.67c-3.26,0-6.51,0-9.76,0a1.17,1.17,0,0,0-1.26.84q-6.27,14.27-12.58,28.51c-.49,1.13-1,2.26-1.47,3.41a1.53,1.53,0,0,0,.34.12c3,0,5.94,0,8.91,0a1.1,1.1,0,0,0,.75-.61c.77-1.76,1.51-3.54,2.22-5.32a.91.91,0,0,1,1-.68q6.8,0,13.58,0a.91.91,0,0,1,1,.68c.71,1.76,1.48,3.48,2.18,5.24a1,1,0,0,0,1.07.72c2.83,0,5.66,0,8.49,0,.22,0,.43,0,.74-.07C1051.23,134.93,1051.15,134.7,1051.05,134.48Zm-24.38-13.26,4.4-10.49c1.48,3.54,2.92,7,4.4,10.49Z"/><path class="cls-19" d="M1244.86,131q-6.15-13.92-12.27-27.83a1.15,1.15,0,0,0-1.27-.8c-3.06,0-6.12.07-9.17,0a1.74,1.74,0,0,0-1.93,1.27c-3.92,9-7.89,17.93-11.84,26.89-.67,1.52-1.34,3-2,4.63a2.07,2.07,0,0,0,.4.11c2.94,0,5.88,0,8.83,0a1.15,1.15,0,0,0,.8-.65c.77-1.73,1.48-3.49,2.19-5.24.18-.45.38-.72,1-.71,4.56,0,9.12,0,13.67,0a.86.86,0,0,1,.94.63c.73,1.78,1.52,3.53,2.23,5.31a1,1,0,0,0,1.07.7c2.8,0,5.61,0,8.41,0,.24,0,.48-.05.85-.08C1246.05,133.75,1245.46,132.39,1244.86,131Zm-14.52-9.76H1222l4.42-10.56,4.4,10.51A3.75,3.75,0,0,1,1230.34,121.28Z"/><path class="cls-19" d="M1151.23,147.93a11.27,11.27,0,0,0-8.47-3.49c-6.25-.07-12.51,0-18.76-.05-.83,0-1,.25-1,1.06,0,5.12,0,10.24,0,15.37v7.72c0,2.58,0,5.15,0,7.73,0,.82.25,1.06,1.06,1q3.48-.08,7,0c.81,0,1-.27,1-1,0-2.85,0-5.71,0-8.57,0-.84.27-1.05,1.07-1.05,3.4,0,6.79,0,10.19-.09,5.81-.22,10.68-4.28,10.8-10.7A10.77,10.77,0,0,0,1151.23,147.93Zm-9.37,11c-3.11.1-6.22,0-9.33,0a.75.75,0,0,1-.54-.51c0-2.09,0-4.18,0-6.36,3.39,0,6.67-.07,9.94,0a3.43,3.43,0,0,1-.05,6.83Z"/></g></g></svg>