<?xml version="1.0" encoding="iso-8859-1"?>
<!-- Generator: Adobe Illustrator 26.0.3, SVG Export Plug-In . SVG Version: 6.00 Build 0)  -->
<svg version="1.1" id="Camada_1" xmlns="http://www.w3.org/2000/svg" xmlns:xlink="http://www.w3.org/1999/xlink" x="0px" y="0px"
	 viewBox="0 0 2000 2000" style="enable-background:new 0 0 2000 2000;" xml:space="preserve">
<rect style="fill:#F0E800;" width="2000" height="2000"/>
<g>
	<g>
		<path d="M812.664,383.251c6.135,14.944,14.372,19.056,30.618,18.969h314.019c16.245,0.087,24.483-4.025,30.617-18.969
			c26.834-65.368,54.195-130.518,81.365-195.748c2.124-7.529-1.256-9.536-8.096-8.069c-19.612,16.273-38.758,33.149-58.924,48.701
			c-54.125,41.741-99.244,44.417-137.303,7.765c-15.085-14.528-24.635-33.299-34.902-51.592
			c-8.283-14.758-17.018-41.522-22.856-61.243l-1.157-3.94c-1.25-1.883-3.386-3.127-5.815-3.127c-2.311,0-4.344,1.136-5.614,2.866
			l-1.326,4.516c-5.837,19.69-14.523,46.248-22.762,60.927c-10.267,18.293-19.817,37.064-34.902,51.592
			c-38.059,36.651-83.178,33.976-137.304-7.765c-20.167-15.552-39.312-32.428-58.924-48.701c-6.841-1.468-10.22,0.539-8.097,8.069
			C758.469,252.733,785.831,317.884,812.664,383.251z"/>
		<path d="M692.609,1222.397l-0.081,93.882c8.648,75.483,64.463,135.96,166.51,180.639v-255.307
			C798.891,1237.406,743.256,1230.621,692.609,1222.397z"/>
		<path d="M992.796,1246.261c-25.359,0-50.101-0.499-74.211-1.427v487.373c17.679,10.491,36.368,20.351,56.09,29.558
			c13.966,6.52,36.737,7.161,49.723,1.394c21.456-9.524,41.683-19.781,60.697-30.749v-488.095
			C1055.463,1245.576,1024.694,1246.261,992.796,1246.261z"/>
		<path d="M1143.54,1241.003v452.499c85.81-66.016,137.531-151.69,154.212-255.922c8.464-52.889,11.313-107.634,12.299-162.179
			v-53.465C1260.082,1229.963,1204.52,1236.676,1143.54,1241.003z"/>
		<g>
			<path d="M624.279,611.303c12.743-54.592,58.055-73.282,108.185-73.282l535.656-0.142c50.173,0,95.519,18.723,108.216,73.424
				h40.413c-2.046-11.761-5.219-22.768-9.526-32.913c-8.17-19.245-20.317-35.472-36.102-48.23
				c-14.037-11.344-30.82-19.798-49.881-25.127c-16.137-4.511-34.01-6.799-53.12-6.799h-0.005h-0.005l-535.656,0.142
				c-19.099,0-36.971,2.287-53.109,6.799c-19.061,5.328-35.844,13.782-49.881,25.127c-15.786,12.758-27.932,28.984-36.102,48.229
				c-4.29,10.104-7.454,21.063-9.501,32.771H624.279z"/>
			<path d="M1380.074,1209.186c-0.042,55.44-0.107,98.876-0.196,119.831c-1.033,242.459-119.947,402.434-347.573,508.708
				l-3.552,1.837c-7.245,3.217-16.991,4.794-27.062,4.794c-11.883,0-24.218-2.198-33.412-6.49
				c-227.627-106.274-346.54-266.248-347.573-508.708c-0.089-20.979-0.154-64.49-0.196-120.022
				c-13.691-2.819-26.917-5.715-39.651-8.66c0.042,59.615,0.109,106.615,0.204,128.85c0.271,63.727,8.457,123.545,24.329,177.792
				c15.88,54.275,39.975,104.791,71.614,150.145c30.996,44.431,70.251,85.349,116.673,121.618
				c44.784,34.989,97.885,66.919,157.829,94.905c14.107,6.586,31.928,10.212,50.183,10.212c11.255,0,27.877-1.424,43.151-8.206
				l1.077-0.478l1.046-0.541l2.849-1.473c59.643-27.904,112.491-59.715,157.092-94.561c46.422-36.269,85.677-77.187,116.673-121.618
				c31.64-45.354,55.734-95.87,71.615-150.145c15.871-54.247,24.057-114.064,24.328-177.792
				c0.095-22.206,0.162-69.114,0.204-128.619C1407.058,1203.494,1393.835,1206.377,1380.074,1209.186z"/>
		</g>
		<g>
			<g>
				<path d="M525.311,697.034c-42.975-0.163-85.951-0.346-128.926-0.547c-2.295-0.011-4.519,1.937-4.969,4.35
					c-20.266,108.729-40.532,217.457-60.797,326.185c-0.45,2.414,1.157,5.178,3.591,6.167c17.207,6.991,34.524,13.711,51.942,20.157
					c2.457,0.909,4.793-0.453,5.216-3.035c7.608-46.459,15.216-92.917,22.824-139.376c20.452,4.575,40.932,8.965,61.462,13.174
					c2.408,0.486,4.675-1.352,5.063-4.1c2.495-17.685,4.991-35.37,7.486-53.055c0.388-2.748-1.225-5.26-3.602-5.614
					c-20.267-3.017-40.506-6.217-60.715-9.6c5.231-31.941,10.461-63.881,15.692-95.822c25.67,1.713,51.344,3.331,77.025,4.855
					c2.327,0.136,4.52-2.017,4.897-4.807c2.428-17.955,4.855-35.911,7.283-53.866C529.161,699.312,527.606,697.043,525.311,697.034z
					"/>
				<path d="M703.016,697.573c-15.364-0.036-30.729-0.074-46.093-0.116c-2.296-0.006-4.394,2.459-4.687,5.505
					c-10.18,105.873-20.36,211.747-30.54,317.62c-1.214,12.629-4.179,21.438-8.83,26.108c-4.103,4.118-9.806,5.366-17.409,3.804
					c-7.603-1.561-12.816-5.037-15.928-10.525c-3.53-6.224-4.626-15.596-3.285-27.897c11.243-103.125,22.485-206.25,33.728-309.375
					c0.323-2.967-1.275-5.379-3.57-5.386c-16.248-0.051-32.497-0.105-48.745-0.16c-2.295-0.008-4.449,2.293-4.812,5.139
					c-12.419,97.627-24.838,195.253-37.257,292.88c-3.936,26.868-1.237,56.649,11.626,80.657
					c11.952,22.307,35.243,38.108,59.648,43.866c22.508,5.31,49.428,2.174,65.909-15.27c19.201-20.322,24.963-51.453,28.091-78.548
					c8.619-107.539,17.238-215.077,25.857-322.616C706.969,700.124,705.312,697.578,703.016,697.573z"/>
				<path d="M883.861,697.866c-50.236-0.05-100.472-0.125-150.709-0.227c-2.296-0.005-4.347,2.558-4.581,5.725
					c-1.505,20.377-3.011,40.754-4.516,61.131c-0.234,3.167,1.472,5.796,3.81,5.873c15.898,0.503,31.796,0.975,47.696,1.418
					c-7.306,122.773-14.613,245.547-21.919,368.32c-0.192,3.23,1.728,6.142,4.29,6.495c18.129,2.502,36.297,4.724,54.495,6.662
					c2.57,0.274,4.77-2.174,4.914-5.46c5.467-124.886,10.935-249.772,16.402-374.658c15.917,0.301,31.834,0.572,47.752,0.813
					c2.342,0.033,4.322-2.633,4.421-5.955c0.64-21.374,1.281-42.747,1.921-64.121C887.938,700.563,886.157,697.868,883.861,697.866z
					"/>
				<path d="M1045.212,697.911c-42.999,0.012-85.998,0.006-128.997-0.02c-2.296-0.002-4.221,2.7-4.299,6.033
					c-3.528,150.169-7.056,300.338-10.584,450.507c-0.078,3.334,1.948,6.153,4.526,6.291c18.247,0.972,36.509,1.661,54.778,2.067
					c2.581,0.057,4.695-2.619,4.722-5.97c0.496-60.297,0.992-120.593,1.489-180.89c21.053,0.193,42.094,0.206,63.147,0.037
					c2.466-0.028,4.442-2.77,4.414-6.12c-0.184-21.563-0.369-43.126-0.553-64.689c-0.029-3.351-2.013-6.048-4.432-6.028
					c-20.65,0.123-41.293,0.114-61.943-0.027c0.341-41.455,0.682-82.909,1.023-124.364c25.879,0.071,51.757,0.048,77.636-0.068
					c2.343-0.013,4.207-2.738,4.163-6.085c-0.284-21.539-0.567-43.078-0.851-64.617
					C1049.405,700.623,1047.508,697.911,1045.212,697.911z"/>
				<g>
					<path d="M1186.544,702.761c-0.467-2.867-2.312-4.975-4.355-4.972c-23.789,0.035-47.578,0.061-71.367,0.082
						c-2.042,0.002-3.721,2.151-3.96,5.072c-12.47,150.874-26.738,301.579-42.833,452.109c-0.189,1.759,0.224,3.531,1.132,4.848
						c0.908,1.317,2.219,2.045,3.587,1.992c16.776-0.735,33.51-1.624,50.269-2.669c2.31-0.156,4.208-2.473,4.463-5.443
						c2.185-25.619,4.33-51.24,6.436-76.865c19.32-1.22,38.622-2.712,57.9-4.476c4.036,24.799,8.12,49.591,12.275,74.37
						c0.479,2.863,2.539,4.787,4.841,4.519c18.349-2.138,36.663-4.563,54.936-7.275c1.357-0.201,2.598-1.142,3.396-2.57
						c0.797-1.428,1.07-3.2,0.749-4.849C1236.008,992.4,1210.263,847.76,1186.544,702.761z M1175.992,1001.048
						c-16.12,1.16-24.186,1.673-40.324,2.566c4.664-60.125,9.078-120.268,13.244-180.43
						C1157.647,882.517,1166.671,941.804,1175.992,1001.048z"/>
				</g>
				<path d="M1419.749,697.227c-14.477,0.048-28.953,0.093-43.43,0.136c-2.296,0.007-3.904,2.445-3.593,5.446
					c6.974,67.248,13.947,134.496,20.921,201.744c-22.056-67.327-43.012-134.979-63.019-202.943
					c-0.711-2.428-2.51-4.114-4.389-4.109c-20.388,0.052-40.776,0.099-61.164,0.142c-2.296,0.005-3.974,2.587-3.748,5.767
					c10.172,143.257,20.345,286.515,30.517,429.772c0.226,3.18,2.479,5.412,5.032,4.978c16.269-2.849,32.48-5.841,48.695-8.987
					c2.543-0.506,4.386-3.439,4.119-6.543c-7.5-87.159-15-174.318-22.5-261.477c25.256,83.97,52.013,167.436,80.589,250.336
					c0.781,2.253,2.76,3.475,4.827,2.98c18.386-4.409,36.701-9.112,54.936-14.109c2.51-0.688,4.262-3.599,3.915-6.496
					c-15.641-130.469-31.282-260.938-46.923-391.407C1424.186,699.562,1422.044,697.22,1419.749,697.227z"/>
				<path d="M1578.806,853.769c-23.545-16.316-48.859-38.821-53.06-68.559c-1.832-12.968-0.746-31.28,15.824-32.139
					c15.37-0.797,24.266,14.309,25.318,28.365c0.949,5.768,1.424,8.652,2.373,14.42c0.424,2.576,2.666,4.445,5.008,4.172
					c15.66-1.812,31.313-3.71,46.952-5.692c2.335-0.295,3.863-2.493,3.413-4.908c-0.764-4.103-1.146-6.154-1.91-10.257
					c-3.764-23.313-14.407-46.264-31.08-62.991c-15.828-15.878-39.228-22.816-60.88-23.44c-20.785-0.599-41.86,8.385-53.1,26.349
					c-13.727,21.939-12.719,51.406-9.602,74.779c6.342,47.57,32.584,83.949,73.409,112.345c22.98,15.984,49.2,33.99,54.017,63.85
					c1.723,10.681,0.996,19.086-2.27,24.985c-2.88,5.203-7.902,8.879-15.354,11.121c-7.451,2.241-13.129,1.764-17.331-1.472
					c-4.765-3.669-8.014-11.244-9.672-22.418c-1.544-10.408-2.316-15.612-3.86-26.02c-0.4-2.695-2.684-4.418-5.104-3.853
					c-16.218,3.724-32.444,7.331-48.712,10.829c-2.432,0.514-4.107,3.219-3.74,6.047c1.219,9.393,1.828,14.09,3.047,23.484
					c4.288,24.162,9.961,52.576,30.734,68.369c18.582,14.127,44.518,13.705,65.586,5.558c22.658-8.762,45.672-24.124,57.201-46.575
					c11.131-21.676,14.247-48.113,8.775-71.378C1644.417,904.637,1615.577,879.251,1578.806,853.769z"/>
			</g>
		</g>
	</g>
</g>
</svg>
