<?xml version="1.0" encoding="utf-8"?>
<!-- Generator: Adobe Illustrator 26.0.3, SVG Export Plug-In . SVG Version: 6.00 Build 0)  -->
<svg version="1.1" id="Camada_1" xmlns="http://www.w3.org/2000/svg" xmlns:xlink="http://www.w3.org/1999/xlink" x="0px" y="0px"
	 viewBox="0 0 2000 2000" style="enable-background:new 0 0 2000 2000;" xml:space="preserve">
<style type="text/css">
	.st0{fill:#F0E800;}
</style>
<rect class="st0" width="2000" height="2000"/>
<g>
	<g>
		<path d="M851.6,495.3c5,12.2,11.8,15.6,25.1,15.5h257c13.3,0.1,20-3.3,25.1-15.5c22-53.5,44.3-106.8,66.6-160.2
			c1.7-6.2-1-7.8-6.6-6.6c-16,13.3-31.7,27.1-48.2,39.9c-44.3,34.2-81.2,36.3-112.4,6.4c-12.3-11.9-20.2-27.2-28.6-42.2
			c-6.8-12.1-13.9-34-18.7-50.1l-0.9-3.2c-1-1.5-2.8-2.6-4.8-2.6c-1.9,0-3.6,0.9-4.6,2.3l-1.1,3.7c-4.8,16.1-11.9,37.8-18.6,49.9
			c-8.4,15-16.2,30.3-28.6,42.2c-31.1,30-68.1,27.8-112.4-6.4c-16.5-12.7-32.2-26.5-48.2-39.9c-5.6-1.2-8.4,0.4-6.6,6.6
			C807.3,388.5,829.7,441.9,851.6,495.3z"/>
		<path d="M753.4,1182l-0.1,76.8c7.1,61.8,52.7,111.3,136.2,147.8v-208.9C840.4,1194.3,794.8,1188.7,753.4,1182z"/>
		<path d="M999,1201.5c-20.8,0-41-0.4-60.7-1.2v398.8c14.5,8.6,29.8,16.7,45.9,24.2c11.4,5.3,30.1,5.9,40.7,1.1
			c17.6-7.8,34.1-16.2,49.7-25.2v-399.4C1050.3,1200.9,1025.1,1201.5,999,1201.5z"/>
		<path d="M1122.4,1197.2v370.3c70.2-54,112.5-124.1,126.2-209.4c6.9-43.3,9.3-88.1,10.1-132.7v-43.7
			C1217.7,1188.2,1172.3,1193.7,1122.4,1197.2z"/>
		<g>
			<path d="M697.5,681.9c10.4-44.7,47.5-60,88.5-60l438.3-0.1c41.1,0,78.2,15.3,88.5,60.1h33.1c-1.7-9.6-4.3-18.6-7.8-26.9
				c-6.7-15.7-16.6-29-29.5-39.5c-11.5-9.3-25.2-16.2-40.8-20.6c-13.2-3.7-27.8-5.6-43.5-5.6h0h0L786,589.5
				c-15.6,0-30.3,1.9-43.5,5.6c-15.6,4.4-29.3,11.3-40.8,20.6c-12.9,10.4-22.9,23.7-29.5,39.5c-3.5,8.3-6.1,17.2-7.8,26.8
				L697.5,681.9L697.5,681.9z"/>
			<path d="M1315.9,1171.2c0,45.4-0.1,80.9-0.2,98.1c-0.8,198.4-98.1,329.3-284.4,416.3l-2.9,1.5c-5.9,2.6-13.9,3.9-22.1,3.9
				c-9.7,0-19.8-1.8-27.3-5.3c-186.3-87-283.6-217.9-284.4-416.3c-0.1-17.2-0.1-52.8-0.2-98.2c-11.2-2.3-22-4.7-32.4-7.1
				c0,48.8,0.1,87.2,0.2,105.4c0.2,52.1,6.9,101.1,19.9,145.5c13,44.4,32.7,85.7,58.6,122.9c25.4,36.4,57.5,69.8,95.5,99.5
				c36.6,28.6,80.1,54.8,129.1,77.7c11.5,5.4,26.1,8.4,41.1,8.4c9.2,0,22.8-1.2,35.3-6.7l0.9-0.4l0.9-0.4l2.3-1.2
				c48.8-22.8,92-48.9,128.5-77.4c38-29.7,70.1-63.2,95.5-99.5c25.9-37.1,45.6-78.4,58.6-122.9c13-44.4,19.7-93.3,19.9-145.5
				c0.1-18.2,0.1-56.6,0.2-105.2C1338,1166.5,1327.2,1168.9,1315.9,1171.2z"/>
		</g>
		<g>
			<g>
				<path d="M616.5,752.1c-35.2-0.1-70.3-0.3-105.5-0.4c-1.9,0-3.7,1.6-4.1,3.6c-16.6,89-33.2,177.9-49.7,266.9
					c-0.4,2,0.9,4.2,2.9,5c14.1,5.7,28.2,11.2,42.5,16.5c2,0.7,3.9-0.4,4.3-2.5c6.2-38,12.5-76,18.7-114
					c16.7,3.7,33.5,7.3,50.3,10.8c2,0.4,3.8-1.1,4.1-3.4c2-14.5,4.1-28.9,6.1-43.4c0.3-2.2-1-4.3-2.9-4.6
					c-16.6-2.5-33.1-5.1-49.7-7.9c4.3-26.1,8.6-52.3,12.8-78.4c21,1.4,42,2.7,63,4c1.9,0.1,3.7-1.7,4-3.9c2-14.7,4-29.4,6-44.1
					C619.7,754,618.4,752.1,616.5,752.1z"/>
				<path d="M761.9,752.5c-12.6,0-25.1-0.1-37.7-0.1c-1.9,0-3.6,2-3.8,4.5c-8.3,86.6-16.7,173.3-25,259.9c-1,10.3-3.4,17.5-7.2,21.4
					c-3.4,3.4-8,4.4-14.2,3.1c-6.2-1.3-10.5-4.1-13-8.6c-2.9-5.1-3.8-12.8-2.7-22.8c9.2-84.4,18.4-168.8,27.6-253.2
					c0.3-2.4-1-4.4-2.9-4.4c-13.3,0-26.6-0.1-39.9-0.1c-1.9,0-3.6,1.9-3.9,4.2c-10.2,79.9-20.3,159.8-30.5,239.7
					c-3.2,22-1,46.4,9.5,66c9.8,18.3,28.8,31.2,48.8,35.9c18.4,4.3,40.4,1.8,53.9-12.5c15.7-16.6,20.4-42.1,23-64.3
					c7.1-88,14.1-176,21.2-264C765.1,754.6,763.8,752.5,761.9,752.5z"/>
				<path d="M909.9,752.8c-41.1,0-82.2-0.1-123.3-0.2c-1.9,0-3.6,2.1-3.7,4.7c-1.2,16.7-2.5,33.3-3.7,50c-0.2,2.6,1.2,4.7,3.1,4.8
					c13,0.4,26,0.8,39,1.2c-6,100.5-12,200.9-17.9,301.4c-0.2,2.6,1.4,5,3.5,5.3c14.8,2,29.7,3.9,44.6,5.5c2.1,0.2,3.9-1.8,4-4.5
					c4.5-102.2,8.9-204.4,13.4-306.6c13,0.2,26,0.5,39.1,0.7c1.9,0,3.5-2.2,3.6-4.9c0.5-17.5,1-35,1.6-52.5
					C913.2,755,911.8,752.8,909.9,752.8z"/>
				<path d="M1041.9,752.8c-35.2,0-70.4,0-105.6,0c-1.9,0-3.5,2.2-3.5,4.9c-2.9,122.9-5.8,245.8-8.7,368.6c-0.1,2.7,1.6,5,3.7,5.1
					c14.9,0.8,29.9,1.4,44.8,1.7c2.1,0,3.8-2.1,3.9-4.9c0.4-49.3,0.8-98.7,1.2-148c17.2,0.2,34.4,0.2,51.7,0c2,0,3.6-2.3,3.6-5
					c-0.2-17.6-0.3-35.3-0.5-52.9c0-2.7-1.6-4.9-3.6-4.9c-16.9,0.1-33.8,0.1-50.7,0c0.3-33.9,0.6-67.8,0.8-101.8
					c21.2,0.1,42.4,0,63.5-0.1c1.9,0,3.4-2.2,3.4-5c-0.2-17.6-0.5-35.2-0.7-52.9C1045.4,755,1043.8,752.8,1041.9,752.8z"/>
				<g>
					<path d="M1157.6,756.8c-0.4-2.3-1.9-4.1-3.6-4.1c-19.5,0-38.9,0-58.4,0.1c-1.7,0-3,1.8-3.2,4.2
						c-10.2,123.5-21.9,246.8-35,369.9c-0.2,1.4,0.2,2.9,0.9,4c0.7,1.1,1.8,1.7,2.9,1.6c13.7-0.6,27.4-1.3,41.1-2.2
						c1.9-0.1,3.4-2,3.7-4.5c1.8-21,3.5-41.9,5.3-62.9c15.8-1,31.6-2.2,47.4-3.7c3.3,20.3,6.6,40.6,10,60.9c0.4,2.3,2.1,3.9,4,3.7
						c15-1.7,30-3.7,45-6c1.1-0.2,2.1-0.9,2.8-2.1c0.7-1.2,0.9-2.6,0.6-4C1198,993.8,1177,875.4,1157.6,756.8z M1148.9,1000.9
						c-13.2,0.9-19.8,1.4-33,2.1c3.8-49.2,7.4-98.4,10.8-147.6C1133.9,903.9,1141.3,952.4,1148.9,1000.9z"/>
				</g>
				<path d="M1348.4,752.3c-11.8,0-23.7,0.1-35.5,0.1c-1.9,0-3.2,2-2.9,4.5c5.7,55,11.4,110.1,17.1,165.1
					c-18-55.1-35.2-110.4-51.6-166.1c-0.6-2-2.1-3.4-3.6-3.4c-16.7,0-33.4,0.1-50,0.1c-1.9,0-3.3,2.1-3.1,4.7
					c8.3,117.2,16.6,234.4,25,351.7c0.2,2.6,2,4.4,4.1,4.1c13.3-2.3,26.6-4.8,39.8-7.4c2.1-0.4,3.6-2.8,3.4-5.4
					c-6.1-71.3-12.3-142.6-18.4-214c20.7,68.7,42.6,137,65.9,204.8c0.6,1.8,2.3,2.8,3.9,2.4c15-3.6,30-7.5,45-11.5
					c2.1-0.6,3.5-2.9,3.2-5.3c-12.8-106.8-25.6-213.5-38.4-320.3C1352,754.2,1350.3,752.2,1348.4,752.3z"/>
				<path d="M1478.5,880.3c-19.3-13.4-40-31.8-43.4-56.1c-1.5-10.6-0.6-25.6,12.9-26.3c12.6-0.7,19.9,11.7,20.7,23.2
					c0.8,4.7,1.2,7.1,1.9,11.8c0.3,2.1,2.2,3.6,4.1,3.4c12.8-1.5,25.6-3,38.4-4.7c1.9-0.2,3.2-2,2.8-4c-0.6-3.4-0.9-5-1.6-8.4
					c-3.1-19.1-11.8-37.9-25.4-51.5c-13-13-32.1-18.7-49.8-19.2c-17-0.5-34.3,6.9-43.4,21.6c-11.2,18-10.4,42.1-7.9,61.2
					c5.2,38.9,26.7,68.7,60.1,91.9c18.8,13.1,40.3,27.8,44.2,52.2c1.4,8.7,0.8,15.6-1.9,20.4c-2.4,4.3-6.5,7.3-12.6,9.1
					c-6.1,1.8-10.7,1.4-14.2-1.2c-3.9-3-6.6-9.2-7.9-18.3c-1.3-8.5-1.9-12.8-3.2-21.3c-0.3-2.2-2.2-3.6-4.2-3.2
					c-13.3,3-26.5,6-39.9,8.9c-2,0.4-3.4,2.6-3.1,4.9c1,7.7,1.5,11.5,2.5,19.2c3.5,19.8,8.2,43,25.1,55.9
					c15.2,11.6,36.4,11.2,53.7,4.5c18.5-7.2,37.4-19.7,46.8-38.1c9.1-17.7,11.7-39.4,7.2-58.4C1532.2,922,1508.6,901.2,1478.5,880.3
					z"/>
			</g>
		</g>
	</g>
</g>
</svg>
