<?xml version="1.0" encoding="UTF-8"?><svg id="Camada_2" xmlns="http://www.w3.org/2000/svg" xmlns:xlink="http://www.w3.org/1999/xlink" viewBox="0 0 297.66 78.01"><defs><style>.cls-1{fill:#fff;}.cls-2{fill:#fafafa;}.cls-3{fill:#e0e0e0;}.cls-4{fill:#0fb251;}.cls-5{clip-path:url(#clippath-1);}.cls-6{fill:#4285f4;}.cls-7{fill:#fbbc05;}.cls-8{fill:#7d7d7d;}.cls-9{fill:#0f9344;}.cls-10{fill:none;}.cls-11{fill:#34a853;}.cls-12{fill:#ea4335;}</style><clipPath id="clippath-1"><path class="cls-10" d="M28.18,12.01c-7.93,0-15.32,5.53-15.32,5.53,0,0,.51,11.48,.51,16.08,0,9.95,1.9,18.18,6.32,24.32,2.5,3.47,8.5,9.15,8.5,9.15,0,0,5.85-5.68,8.35-9.15,4.42-6.14,6.19-14.37,6.19-24.32,0-4.6,.61-16.08,.61-16.08,0,0-7.61-5.53-15.16-5.53Z"/></clipPath></defs><g id="Camada_1-2"><g><g><g><path class="cls-8" d="M94.84,61.9c0,2.27-.83,4.1-2.5,5.48-1.69,1.35-3.75,2.03-6.17,2.03-2.15,0-4.05-.63-5.7-1.89-1.65-1.26-2.78-2.97-3.41-5.15l3.19-1.31c.22,.77,.52,1.48,.91,2.1,.39,.63,.84,1.17,1.36,1.61,.52,.45,1.09,.8,1.72,1.05,.63,.25,1.29,.38,2,.38,1.52,0,2.77-.39,3.74-1.18,.97-.79,1.45-1.83,1.45-3.14,0-1.09-.4-2.02-1.2-2.79-.75-.75-2.15-1.47-4.21-2.18-2.08-.75-3.37-1.26-3.88-1.52-2.76-1.4-4.14-3.47-4.14-6.2,0-1.91,.76-3.54,2.29-4.9,1.55-1.35,3.45-2.03,5.7-2.03,1.98,0,3.7,.51,5.15,1.52,1.45,.99,2.42,2.24,2.9,3.74l-3.12,1.31c-.29-.97-.86-1.77-1.72-2.41-.86-.64-1.9-.96-3.14-.96-1.31,0-2.41,.36-3.3,1.09-.9,.68-1.34,1.56-1.34,2.65,0,.89,.35,1.67,1.05,2.32,.77,.65,2.45,1.43,5.04,2.32,2.64,.89,4.52,1.99,5.64,3.28,1.12,1.29,1.69,2.88,1.69,4.77Z"/><path class="cls-8" d="M105.03,50.48c2.47,0,4.41,.66,5.84,1.98,1.43,1.32,2.14,3.13,2.14,5.42v10.96h-3.19v-2.47h-.15c-1.38,2.03-3.22,3.05-5.51,3.05-1.96,0-3.6-.58-4.92-1.74-1.32-1.16-1.98-2.61-1.98-4.35,0-1.84,.7-3.3,2.09-4.39,1.39-1.09,3.25-1.63,5.57-1.63,1.98,0,3.62,.36,4.9,1.09v-.76c0-1.16-.46-2.15-1.38-2.96-.92-.81-2-1.21-3.23-1.21-1.86,0-3.34,.79-4.43,2.36l-2.94-1.85c1.62-2.32,4.01-3.48,7.18-3.48Zm-4.32,12.92c0,.87,.37,1.6,1.11,2.18,.74,.58,1.6,.87,2.59,.87,1.4,0,2.65-.52,3.75-1.56s1.65-2.26,1.65-3.66c-1.04-.82-2.49-1.23-4.35-1.23-1.35,0-2.48,.33-3.39,.98-.91,.65-1.36,1.46-1.36,2.43Z"/><path class="cls-8" d="M124.62,42.57c1.21,0,2.2,.21,2.97,.62l-.91,2.94c-.58-.29-1.23-.44-1.96-.44-.82,0-1.49,.28-2.01,.85-.52,.57-.78,1.32-.78,2.27v2.25h4.64v3.05h-4.64v14.73h-3.34v-14.73h-3.34v-3.05h3.34v-2.58c0-1.77,.56-3.19,1.69-4.28s2.57-1.63,4.34-1.63Z"/><path class="cls-8" d="M136.66,69.41c-2.61,0-4.77-.89-6.46-2.68-1.69-1.79-2.54-4.05-2.54-6.78s.82-4.96,2.47-6.77c1.64-1.8,3.75-2.7,6.31-2.7s4.73,.85,6.29,2.56c1.56,1.71,2.34,4.09,2.34,7.17l-.04,.36h-13.97c.05,1.74,.63,3.14,1.74,4.21,1.11,1.06,2.44,1.6,3.99,1.6,2.13,0,3.8-1.06,5.01-3.19l2.97,1.45c-.8,1.5-1.9,2.67-3.32,3.52s-3.02,1.27-4.81,1.27Zm-5.33-11.61h10.19c-.1-1.23-.6-2.25-1.51-3.07-.91-.81-2.12-1.22-3.65-1.22-1.26,0-2.34,.39-3.25,1.16-.91,.77-1.51,1.81-1.8,3.12Z"/><path class="cls-8" d="M156.69,68.83v-25.97h9.4c2.06,0,3.82,.68,5.3,2.03,1.48,1.33,2.21,3.01,2.21,5.04,0,2.56-1.17,4.37-3.52,5.41v.14c1.33,.44,2.39,1.19,3.19,2.27,.8,1.08,1.2,2.3,1.2,3.68,0,2.13-.77,3.89-2.32,5.3-1.5,1.4-3.35,2.1-5.55,2.1h-9.9Zm3.34-22.78v7.94h6.06c1.18,0,2.18-.4,2.97-1.2,.8-.82,1.2-1.75,1.2-2.79s-.39-1.93-1.16-2.76c-.77-.8-1.73-1.2-2.87-1.2h-6.2Zm0,11.06v8.53h6.71c1.21,0,2.24-.42,3.08-1.27,.82-.85,1.23-1.85,1.23-3.01s-.42-2.13-1.27-2.97c-.85-.85-1.91-1.27-3.19-1.27h-6.57Z"/><path class="cls-8" d="M180.99,68.83h-3.34v-17.78h3.19v2.9h.15c.34-.94,1.03-1.75,2.09-2.41,1.05-.67,2.09-1,3.1-1s1.79,.15,2.47,.44l-1.02,3.23c-.41-.17-1.06-.25-1.96-.25-1.26,0-2.35,.51-3.28,1.52-.93,1.02-1.4,2.2-1.4,3.56v9.79Z"/><path class="cls-8" d="M188.72,59.95c0-2.73,.86-4.99,2.58-6.78,1.74-1.79,3.93-2.68,6.57-2.68s4.81,.89,6.53,2.68c1.74,1.79,2.61,4.05,2.61,6.78s-.87,5.02-2.61,6.78c-1.72,1.79-3.89,2.68-6.53,2.68s-4.82-.89-6.57-2.68c-1.72-1.79-2.58-4.05-2.58-6.78Zm3.34,0c0,1.91,.56,3.46,1.67,4.64,1.11,1.19,2.49,1.78,4.14,1.78s3.02-.59,4.14-1.78c1.11-1.18,1.67-2.73,1.67-4.64s-.56-3.42-1.67-4.61c-1.14-1.21-2.52-1.81-4.14-1.81s-3,.61-4.14,1.81c-1.11,1.18-1.67,2.72-1.67,4.61Z"/><path class="cls-8" d="M234.86,51.06l-5.73,17.78h-3.41l-4.43-13.64-4.39,13.64h-3.37l-5.73-17.78h3.48l3.95,13.42h.04l4.39-13.42h3.45l4.39,13.42h.04l3.92-13.42h3.41Z"/><path class="cls-8" d="M250.65,63.9c0,1.55-.68,2.85-2.03,3.92-1.35,1.06-3.06,1.6-5.12,1.6-1.79,0-3.36-.47-4.72-1.4-1.35-.93-2.32-2.16-2.9-3.68l2.97-1.27c.44,1.06,1.07,1.89,1.9,2.49s1.75,.89,2.74,.89c1.06,0,1.95-.23,2.67-.69,.71-.46,1.07-1,1.07-1.63,0-1.14-.87-1.97-2.61-2.5l-3.05-.76c-3.46-.87-5.19-2.54-5.19-5.01,0-1.62,.66-2.92,1.98-3.9,1.32-.98,3-1.47,5.06-1.47,1.57,0,2.99,.38,4.26,1.12,1.27,.75,2.16,1.75,2.67,3.01l-2.97,1.23c-.34-.75-.89-1.34-1.65-1.76-.76-.42-1.61-.63-2.56-.63-.87,0-1.65,.22-2.34,.65-.69,.43-1.03,.97-1.03,1.6,0,1.02,.96,1.74,2.87,2.18l2.68,.69c3.53,.87,5.3,2.65,5.3,5.33Z"/><path class="cls-8" d="M257.68,44.93c0,.65-.23,1.21-.69,1.67-.46,.46-1.02,.69-1.67,.69s-1.21-.23-1.67-.69c-.46-.46-.69-1.02-.69-1.67s.23-1.21,.69-1.67,1.02-.69,1.67-.69,1.21,.23,1.67,.69c.46,.46,.69,1.02,.69,1.67Zm-.69,6.13v17.78h-3.34v-17.78h3.34Z"/><path class="cls-8" d="M261.35,51.06h3.19v2.47h.15c.51-.87,1.29-1.6,2.34-2.18,1.05-.58,2.15-.87,3.28-.87,2.18,0,3.85,.62,5.02,1.87,1.17,1.25,1.76,3.02,1.76,5.31v11.17h-3.34v-10.96c-.07-2.9-1.54-4.35-4.39-4.35-1.33,0-2.44,.54-3.34,1.61-.9,1.08-1.34,2.36-1.34,3.86v9.83h-3.34v-17.78Z"/><path class="cls-8" d="M288.7,77.25c-.99,0-1.92-.13-2.79-.38s-1.66-.61-2.38-1.07c-.71-.46-1.32-1-1.83-1.63-.51-.63-.9-1.33-1.16-2.1l3.16-1.31c.36,1.04,.99,1.87,1.89,2.5,.89,.63,1.93,.94,3.12,.94,1.81,0,3.23-.54,4.24-1.63,1.02-1.09,1.52-2.59,1.52-4.5v-1.71h-.15c-.63,.94-1.48,1.69-2.56,2.23-1.08,.54-2.24,.82-3.5,.82-2.32,0-4.32-.91-5.99-2.72-1.64-1.86-2.47-4.11-2.47-6.75s.82-4.87,2.47-6.71c1.67-1.84,3.66-2.76,5.99-2.76,1.26,0,2.42,.27,3.5,.82,1.08,.54,1.93,1.29,2.56,2.23h.15v-2.47h3.19v17.01c0,2.85-.81,5.09-2.43,6.71-1.65,1.64-3.82,2.47-6.53,2.47Zm.11-10.88c1.64,0,2.99-.59,4.03-1.78,1.09-1.18,1.63-2.73,1.63-4.64s-.54-3.4-1.63-4.61c-1.06-1.21-2.41-1.81-4.03-1.81s-2.94,.61-4.03,1.81-1.63,2.75-1.63,4.61,.54,3.42,1.63,4.61c1.09,1.21,2.43,1.81,4.03,1.81Z"/></g><g><path class="cls-12" d="M123.94,21.07c0,5.25-4.1,9.11-9.14,9.11s-9.14-3.87-9.14-9.11,4.1-9.11,9.14-9.11,9.14,3.83,9.14,9.11Zm-4,0c0-3.28-2.38-5.52-5.14-5.52s-5.14,2.24-5.14,5.52,2.38,5.52,5.14,5.52,5.14-2.28,5.14-5.52Z"/><path class="cls-7" d="M143.65,21.07c0,5.25-4.1,9.11-9.14,9.11s-9.14-3.87-9.14-9.11,4.1-9.11,9.14-9.11,9.14,3.83,9.14,9.11Zm-4,0c0-3.28-2.38-5.52-5.14-5.52s-5.14,2.24-5.14,5.52,2.38,5.52,5.14,5.52,5.14-2.28,5.14-5.52Z"/><path class="cls-6" d="M162.55,12.51V28.87c0,6.73-3.97,9.48-8.66,9.48-4.42,0-7.07-2.95-8.08-5.37l3.48-1.45c.62,1.48,2.14,3.23,4.59,3.23,3,0,4.86-1.85,4.86-5.34v-1.31h-.14c-.9,1.1-2.62,2.07-4.8,2.07-4.56,0-8.73-3.97-8.73-9.07s4.17-9.14,8.73-9.14c2.17,0,3.9,.97,4.8,2.04h.14v-1.48h3.8Zm-3.52,8.59c0-3.21-2.14-5.55-4.86-5.55s-5.07,2.35-5.07,5.55,2.31,5.49,5.07,5.49,4.86-2.31,4.86-5.49Z"/><path class="cls-11" d="M168.81,2.93V29.63h-3.9V2.93h3.9Z"/><path class="cls-12" d="M184.02,24.07l3.11,2.07c-1,1.48-3.42,4.04-7.59,4.04-5.18,0-9.04-4-9.04-9.11,0-5.42,3.9-9.11,8.59-9.11s7.04,3.76,7.8,5.8l.41,1.04-12.18,5.04c.93,1.83,2.38,2.76,4.42,2.76s3.45-1,4.49-2.52h0Zm-9.56-3.28l8.14-3.38c-.45-1.14-1.8-1.93-3.38-1.93-2.03,0-4.86,1.8-4.76,5.31Z"/><path class="cls-6" d="M90.89,18.7v-3.87h13.03c.13,.67,.19,1.47,.19,2.33,0,2.9-.79,6.49-3.35,9.04-2.49,2.59-5.66,3.97-9.87,3.97-7.8,0-14.35-6.35-14.35-14.15s6.56-14.15,14.35-14.15c4.31,0,7.39,1.69,9.69,3.9l-2.73,2.73c-1.66-1.55-3.9-2.76-6.97-2.76-5.69,0-10.15,4.59-10.15,10.28s4.45,10.28,10.15,10.28c3.69,0,5.8-1.48,7.14-2.83,1.09-1.09,1.81-2.65,2.09-4.79h-9.24Z"/></g></g><g><path class="cls-4" d="M0,11.04v7.48c0,20.78,.04,35.13,12.13,47.21,4.66,4.66,16.02,12.28,16.02,12.28V4.12C16.33,4.12,4.5,9.4,0,11.04Z"/><path class="cls-9" d="M56.29,10.95c-5.63-1.75-16.33-6.83-28.15-6.83V78.01s11.42-7.62,16.08-12.28c12.11-12.11,12.07-24.83,12.07-44.43V10.95Z"/><g class="cls-5"><g><circle class="cls-2" cx="28.4" cy="68.31" r="9.15"/><path class="cls-2" d="M28.4,84.17c-8.67,0-15.7-7.03-15.7-15.7,0-8.67,7.03-15.7,15.7-15.7s15.7,7.03,15.7,15.7c0,8.67-7.03,15.69-15.7,15.7Zm0-28.33c-6.97,0-12.63,5.65-12.63,12.63s5.65,12.63,12.63,12.63c6.97,0,12.63-5.65,12.63-12.63h0c0-6.97-5.66-12.62-12.63-12.63Z"/><path class="cls-2" d="M28.4,90.89c-12.38,0-22.42-10.04-22.42-22.42,0-12.38,10.04-22.42,22.42-22.42s22.42,10.04,22.42,22.42h0c-.01,12.38-10.04,22.41-22.42,22.42Zm0-41.62c-10.6,0-19.2,8.59-19.2,19.2s8.59,19.2,19.2,19.2c10.6,0,19.2-8.59,19.2-19.2h0c-.02-10.59-8.6-19.18-19.2-19.19h0Z"/><circle class="cls-2" cx="27.96" cy="31.45" r="9.28"/></g></g><path class="cls-3" d="M56.29,10.7V4.95c0-2.07-2.85-4.95-5.4-4.95H4.94C2.39,0,0,2.89,0,4.95v5.74H56.29Z"/><circle class="cls-1" cx="6.95" cy="6.02" r="1.66"/><circle class="cls-1" cx="13" cy="6.02" r="1.66"/></g></g></g></svg>