<?xml version="1.0" encoding="UTF-8"?><svg id="Camada_2" xmlns="http://www.w3.org/2000/svg" viewBox="0 0 216.04 70.33"><defs><style>.cls-1{fill:#fedf1b;}.cls-2{fill:#7d7d7d;}.cls-3{fill:#252525;}</style></defs><g id="Camada_1-2"><g><g><path class="cls-1" d="M26.28,0c.58,.19,1.2,.17,1.8,.25,2.33,.33,4.56,1,6.71,1.94,.33,.15,.33,.26,.12,.53-1.22,1.54-2.42,3.09-3.61,4.65-.18,.23-.33,.27-.59,.17-9.83-3.42-20.46,1.9-23.41,11.84-1.91,6.46-.56,12.31,3.88,17.38,2.9,3.32,6.62,5.29,10.99,5.85,5.8,.74,10.89-.91,15.12-4.97,3-2.88,4.77-6.42,5.35-10.53,.29-2.02,.22-4.04-.19-6.04-.04-.21-.04-.37,.09-.54,1.49-1.91,2.98-3.83,4.47-5.75,.03-.03,.07-.06,.13-.12,.41,.82,.7,1.65,.98,2.5,.8,2.5,1.25,5.07,1.16,7.69-.32,9.44-4.57,16.59-12.74,21.34-4.08,2.37-8.55,3.3-13.26,3.04-5.43-.3-10.24-2.2-14.41-5.69C4.46,39.85,1.68,35.16,.5,29.54c-.22-1.05-.4-2.11-.42-3.19,0-.18,.02-.36-.07-.53v-3.06c.15-.07,.09-.21,.1-.32,.09-.89,.2-1.78,.39-2.66,1.13-5.36,3.71-9.89,7.79-13.53C11.97,2.96,16.29,.97,21.2,.25c.67-.1,1.36-.08,2.03-.25h3.06Z"/><path class="cls-3" d="M119.45,24.86c0-4.21,0-8.43-.01-12.64,0-.41,.11-.49,.5-.49,1.89,.02,3.78,.02,5.67,0,.34,0,.44,.08,.42,.42-.03,.7-.02,1.41,0,2.11,0,.14-.12,.4,.14,.4,.28,0,.67,.21,.84-.16,.95-2.03,2.68-2.68,4.76-2.76,2.11-.08,4.23,.03,6.34,0,.73-.01,.63,.1,.63-.65,0-2.34,.01-4.68,0-7.02,0-.41,.12-.48,.5-.48,1.9,.02,3.81,.02,5.71,0,.37,0,.48,.08,.47,.46-.02,2.4,0,4.8-.02,7.2,0,.38,.07,.51,.48,.5,2.1-.02,4.2,0,6.3-.02,.33,0,.44,.06,.43,.42-.02,1.57-.02,3.15,0,4.72,0,.32-.09,.4-.4,.4-2.13-.01-4.26,0-6.39-.01-.33,0-.42,.07-.42,.42,.01,4.32,0,8.64,0,12.95,0,.21,.01,.42,.04,.63,.08,.69,.47,1.12,1.16,1.15,1.14,.05,2.28,.03,3.42,.04,.54,0,1.08,.01,1.62,0,.24,0,.3,.08,.3,.31,0,1.63-.01,3.27,0,4.9,0,.27-.1,.32-.34,.32-2.43,0-4.86,.03-7.29-.01-3.31-.06-5.57-2.41-5.58-5.73,0-4.83,0-9.66,0-14.48,0-.41-.12-.48-.5-.48-2.13,.02-4.26,0-6.39,0-2.4,0-4.78,1.62-5.45,3.7-.24,.74-.3,1.5-.3,2.26,0,4.75,0,9.51,0,14.26,0,.4-.1,.49-.49,.49-1.9-.02-3.81-.02-5.71,0-.37,0-.47-.09-.47-.47,.01-4.21,0-8.43,0-12.64Z"/><path class="cls-3" d="M88.49,25.27c0-2.98,.34-5.45,1.6-7.71,1.99-3.59,5.13-5.57,9.09-6.29,3.35-.6,6.64-.34,9.74,1.14,3.8,1.81,6.06,4.85,6.8,8.97,.48,2.66,.46,5.34-.23,7.98-1.01,3.82-3.33,6.59-6.98,8.08-4.61,1.89-9.23,1.79-13.66-.56-3.46-1.84-5.41-4.85-6.1-8.68-.2-1.11-.24-2.23-.25-2.93Zm20.82-.34c0-.34,0-.58,0-.81,0-.22-.02-.45-.04-.67-.21-2.24-1.05-4.14-3-5.4-1.58-1.03-3.34-1.29-5.17-1.02-2.63,.39-4.48,1.81-5.41,4.33-.5,1.37-.53,2.81-.48,4.25,.05,1.35,.3,2.64,.97,3.83,1.33,2.34,4.11,3.64,6.93,3.28,2.68-.34,4.64-1.67,5.65-4.22,.47-1.17,.57-2.41,.55-3.56Z"/><path class="cls-3" d="M181.23,24.84c.02,2.22-.24,4.4-1.17,6.44-1.56,3.42-4.19,5.65-7.77,6.7-4.21,1.23-8.35,1.02-12.24-1.11-3.57-1.95-5.56-5.06-6.13-9.06-.36-2.51-.36-5.03,.31-7.5,1.05-3.89,3.44-6.69,7.2-8.17,4.54-1.78,9.07-1.67,13.42,.63,3.53,1.87,5.48,4.93,6.16,8.84,.19,1.07,.19,2.15,.22,3.22Zm-6.69,.02c.01-.64-.01-1.29-.11-1.93-.36-2.51-1.59-4.39-3.95-5.43-1.34-.59-2.75-.71-4.18-.49-2.38,.36-4.17,1.59-5.18,3.81-.74,1.61-.77,3.33-.67,5.06,.07,1.33,.35,2.62,1.09,3.75,1.58,2.41,3.91,3.31,6.69,3.07,2.81-.25,4.82-1.68,5.83-4.36,.42-1.12,.52-2.3,.5-3.49Z"/><path class="cls-3" d="M184.68,24.85c0-4.2,0-8.4-.01-12.59,0-.45,.13-.53,.55-.53,1.87,.02,3.75,.02,5.62,0,.34,0,.43,.09,.42,.43-.03,.84-.02,1.68,0,2.52,0,.16-.15,.46,.15,.46,.3,0,.66,.18,.91-.24,.97-1.62,2.35-2.73,4.2-3.22,.86-.23,1.74-.32,2.62-.36,2.23-.09,4.36,.26,6.27,1.51,2.64,1.73,4.02,4.24,4.49,7.3,.15,.95,.17,1.91,.17,2.87,0,4.83,0,9.66,0,14.48,0,.36-.07,.48-.46,.48-1.93-.02-3.87-.02-5.8,0-.36,0-.45-.09-.45-.45,.01-4.89,0-9.78,0-14.66,0-.71-.05-1.41-.22-2.09-.46-1.92-1.64-3.17-3.57-3.62-1.58-.37-3.16-.32-4.66,.38-2.04,.96-2.97,2.74-3.38,4.85-.14,.74-.19,1.48-.19,2.23,0,4.29,0,8.58,.01,12.86,0,.43-.12,.51-.52,.5-1.92-.02-3.84-.02-5.76,0-.35,0-.42-.1-.42-.43,.01-4.23,0-8.46,0-12.68Z"/><path class="cls-3" d="M59.67,24.84c0-4.21,0-8.43,0-12.64,0-.36,.07-.48,.46-.47,1.9,.02,3.81,.02,5.71,0,.34,0,.43,.09,.42,.42-.03,.84-.02,1.68,0,2.52,0,.16-.16,.46,.14,.47,.3,0,.67,.2,.92-.22,.81-1.37,1.91-2.5,3.43-2.96,3.99-1.2,7.81-.98,11.06,1.97,1.76,1.6,2.68,3.68,3.06,6,.15,.9,.19,1.81,.19,2.73,0,4.95,0,9.89,0,14.84,0,.38-.09,.47-.47,.46-1.92-.02-3.84-.02-5.76,0-.37,0-.47-.09-.47-.47,.01-4.93,.01-9.86,0-14.8,0-1.05-.15-2.09-.61-3.06-.55-1.18-1.46-1.97-2.68-2.36-1.56-.5-3.14-.52-4.68,.04-2.22,.8-3.3,2.55-3.8,4.75-.19,.82-.26,1.66-.26,2.5,0,4.3,0,8.61,0,12.91,0,.4-.09,.5-.49,.49-1.92-.02-3.84-.02-5.76,0-.35,0-.45-.08-.45-.44,.01-4.23,0-8.46,0-12.68Z"/><path class="cls-3" d="M44.25,9.76c-.08,.11-.15,.22-.23,.32-2.02,2.6-4.04,5.21-6.07,7.81-4.03,5.18-8.05,10.37-12.07,15.56-.27,.35-.4,.4-.75,.08-3.72-3.35-7.45-6.68-11.19-10.01-.24-.22-.28-.33-.04-.59,1.27-1.39,2.53-2.8,3.78-4.22,.24-.28,.37-.24,.62-.02,2.03,1.83,4.07,3.63,6.09,5.46,.28,.25,.37,.18,.56-.07,4.81-6.21,9.63-12.4,14.44-18.61,.24-.3,.36-.3,.64-.07,1.47,1.2,2.8,2.53,3.98,4.02,.08,.11,.16,.22,.25,.34Z"/><path class="cls-3" d="M215.31,12.41c-.15,.68-.33,1.35-.45,2.04-.06,.33-.24,.36-.5,.33-.24-.03-.53,.12-.6-.32-.1-.65-.28-1.28-.43-1.92-.02-.08,0-.19-.18-.22,0,.7,0,1.4,0,2.09,0,.21,.05,.4-.3,.39-.35,0-.29-.21-.29-.41,0-.76,0-1.53,0-2.29,0-.28,.06-.39,.37-.38,.75,.01,.75,0,.92,.71,.14,.6,.27,1.2,.41,1.8h.11c.17-.72,.33-1.43,.5-2.15,.03-.13,0-.34,.2-.35,.31,0,.63-.07,.93,.04,.04,.02,.04,.16,.05,.25,0,.82,0,1.65,0,2.47,0,.25-.08,.29-.31,.3-.28,.01-.27-.13-.27-.33,0-.68,0-1.37,0-2.05h-.15Z"/><path class="cls-3" d="M210.88,11.71c.33,0,.66,0,.99,0,.21,0,.29,.05,.29,.27,0,.22-.07,.27-.28,.28-.73,.02-.73,.03-.73,.76,0,.48,0,.96,0,1.44,0,.2,0,.34-.28,.32-.22-.01-.36-.02-.35-.31,.02-.52,0-1.05,0-1.57,0-.64,0-.64-.63-.65-.18,0-.4,.08-.38-.26,.01-.21,.06-.29,.28-.28,.36,.02,.72,0,1.08,0Z"/></g><g><path class="cls-2" d="M63.09,69.64c-1.51-.46-2.71-1.07-3.58-1.83l1.35-3.03c.86,.68,1.91,1.24,3.16,1.67s2.5,.64,3.77,.64c1.56,0,2.72-.25,3.49-.75,.77-.5,1.16-1.16,1.16-1.98,0-.6-.21-1.09-.64-1.49-.43-.39-.98-.69-1.64-.92-.66-.22-1.56-.47-2.7-.75-1.6-.38-2.9-.76-3.88-1.14-.99-.38-1.84-.97-2.55-1.79-.71-.81-1.06-1.9-1.06-3.29,0-1.16,.32-2.21,.95-3.16s1.58-1.71,2.85-2.27c1.27-.56,2.82-.84,4.67-.84,1.28,0,2.54,.16,3.78,.48s2.31,.78,3.21,1.38l-1.23,3.03c-.92-.54-1.88-.95-2.88-1.23-1-.28-1.97-.42-2.91-.42-1.54,0-2.68,.26-3.43,.78-.75,.52-1.12,1.21-1.12,2.07,0,.6,.21,1.09,.64,1.47,.43,.38,.98,.68,1.63,.9,.66,.22,1.56,.47,2.7,.75,1.56,.36,2.84,.74,3.84,1.12s1.85,.99,2.57,1.79c.71,.8,1.06,1.88,1.06,3.24,0,1.16-.31,2.21-.94,3.15-.63,.94-1.59,1.69-2.87,2.25-1.28,.56-2.84,.84-4.68,.84-1.62,0-3.19-.23-4.7-.69Z"/><path class="cls-2" d="M95.89,66.76v3.27h-15.75v-21h15.33v3.27h-11.43v5.46h10.14v3.21h-10.14v5.79h11.85Z"/><path class="cls-2" d="M104.13,68.94c-1.71-.93-3.05-2.21-4.02-3.86-.97-1.64-1.46-3.49-1.46-5.55s.49-3.91,1.47-5.55c.98-1.64,2.33-2.92,4.04-3.85,1.71-.93,3.62-1.4,5.74-1.4,1.72,0,3.29,.3,4.71,.9,1.42,.6,2.62,1.47,3.6,2.61l-2.52,2.37c-1.52-1.64-3.39-2.46-5.61-2.46-1.44,0-2.73,.32-3.87,.95s-2.03,1.5-2.67,2.62c-.64,1.12-.96,2.39-.96,3.81s.32,2.69,.96,3.81c.64,1.12,1.53,2,2.67,2.62s2.43,.95,3.87,.95c2.22,0,4.09-.83,5.61-2.49l2.52,2.4c-.98,1.14-2.19,2.01-3.62,2.61-1.43,.6-3,.9-4.72,.9-2.12,0-4.04-.46-5.75-1.39Z"/><path class="cls-2" d="M124.06,67.89c-1.62-1.63-2.43-3.96-2.43-7v-11.85h3.9v11.7c0,4.12,1.78,6.18,5.34,6.18s5.31-2.06,5.31-6.18v-11.7h3.84v11.85c0,3.04-.81,5.38-2.42,7-1.61,1.63-3.87,2.45-6.76,2.45s-5.16-.81-6.78-2.45Z"/><path class="cls-2" d="M159.22,70.03l-4.29-6.15c-.18,.02-.45,.03-.81,.03h-4.74v6.12h-3.9v-21h8.64c1.82,0,3.4,.3,4.75,.9,1.35,.6,2.38,1.46,3.1,2.58s1.08,2.45,1.08,3.99-.39,2.94-1.16,4.08c-.77,1.14-1.88,1.99-3.31,2.55l4.83,6.9h-4.2Zm-1.41-16.62c-.88-.72-2.17-1.08-3.87-1.08h-4.56v8.37h4.56c1.7,0,2.99-.36,3.87-1.09,.88-.73,1.32-1.76,1.32-3.11s-.44-2.37-1.32-3.09Z"/><path class="cls-2" d="M183.16,66.76v3.27h-15.75v-21h15.33v3.27h-11.43v5.46h10.14v3.21h-10.14v5.79h11.85Z"/><path class="cls-2" d="M187.51,49.03h9.18c2.24,0,4.23,.44,5.97,1.31,1.74,.87,3.09,2.1,4.05,3.69s1.44,3.42,1.44,5.5-.48,3.92-1.44,5.5-2.31,2.82-4.05,3.69c-1.74,.87-3.73,1.31-5.97,1.31h-9.18v-21Zm9,17.7c1.54,0,2.9-.29,4.07-.89,1.17-.59,2.07-1.43,2.7-2.52,.63-1.09,.95-2.35,.95-3.79s-.31-2.7-.95-3.79c-.63-1.09-1.53-1.93-2.7-2.52s-2.53-.89-4.07-.89h-5.1v14.4h5.1Z"/></g></g></g></svg>