<svg xmlns="http://www.w3.org/2000/svg" viewBox="0 0 363.73 228.63"><defs><style>.cls-1{fill:#f7f7f7;}.cls-2{fill:#00bcff;}.cls-3{fill:#fff;}.cls-4{fill:#0a0080;}</style></defs><g id="Camada_2" data-name="Camada 2"><g id="Camada_1-2" data-name="Camada 1"><rect class="cls-1" width="363.73" height="228.63" rx="42.24"/><path class="cls-2" d="M102.16,83.82c-24.8,0-44.92,12.87-44.92,28.73s20.12,30,44.92,30,44.92-14.11,44.92-30S127,83.81,102.16,83.81Z"/><path class="cls-3" d="M87.55,103.68s-.46.5-.17.86c.69.89,2.84,1.4,5,.91,1.29-.29,2.94-1.61,4.55-2.88a18.18,18.18,0,0,1,5.2-3.31,5.89,5.89,0,0,1,3.78-.1,11.87,11.87,0,0,1,3.46,2c3,2.27,15.11,12.84,17.21,14.67a115.35,115.35,0,0,1,19.89-6.25c-.89-5.43-4.15-10.6-9.16-14.67-7,2.94-16.07,4.69-24.41.62a23.14,23.14,0,0,0-9-2.05c-6.61.15-9.48,3-12.51,6.05l-3.85,4.14Z"/><path class="cls-3" d="M126.09,117c-.14-.13-14.24-12.46-17.43-14.87a7.81,7.81,0,0,0-4-1.87,5.48,5.48,0,0,0-1.89.18,17.05,17.05,0,0,0-5.15,3.07c-1.78,1.42-3.47,2.76-5,3.11a8.17,8.17,0,0,1-5.55-.83,2.63,2.63,0,0,1-.92-1,1.72,1.72,0,0,1,.47-1.84l3.9-4.21c.45-.45.9-.9,1.37-1.35a25.31,25.31,0,0,0-3.55.8,15.69,15.69,0,0,1-4.13.77A37.94,37.94,0,0,1,80,98.28a69.28,69.28,0,0,1-12.12-4c-5.53,4.11-9.13,9.17-10.2,14.84.8.21,2.88.68,3.42.8,12.51,2.78,16.41,5.65,17.12,6.24a4.15,4.15,0,0,1,6.49.39,4.78,4.78,0,0,1,3-1,5.54,5.54,0,0,1,1.79.32A4.12,4.12,0,0,1,92,118a4.19,4.19,0,0,1,1.74-.37,5.21,5.21,0,0,1,2.09.46,4.44,4.44,0,0,1,2.45,5,5,5,0,0,1,4.87,7.28,8,8,0,0,0,4.31,1.16,2.75,2.75,0,0,0,2-.88c.13-.18.26-.38.14-.53l-3.53-3.92s-.59-.55-.39-.77.55.1.81.31c1.8,1.5,4,3.77,4,3.77s.18.31,1,.45a3.67,3.67,0,0,0,2.78-.64,4.16,4.16,0,0,0,.62-.64l0,0a1.88,1.88,0,0,0-.1-2.33l-4.12-4.63s-.59-.54-.39-.76.55.1.81.31c1.31,1.09,3.15,2.94,4.92,4.67a3.36,3.36,0,0,0,4-.13,2.85,2.85,0,0,0,1.46-2.59,3,3,0,0,0-.87-1.72l-5.63-5.66s-.6-.51-.39-.77.56.1.82.31q3.36,2.94,6.64,6a3.43,3.43,0,0,0,3.82-.08,2.53,2.53,0,0,0,1-3.27A3,3,0,0,0,126.09,117Z"/><path class="cls-3" d="M98.78,124.16a12,12,0,0,0-2,.44c-.07,0,0-.4.13-.6s1.24-3.67-1.56-4.86a3.29,3.29,0,0,0-3.91.58c-.12.12-.18.11-.18,0a3.11,3.11,0,0,0-2.18-2.88,4.25,4.25,0,0,0-4.78,1.7,3.06,3.06,0,1,0-.91,2.61s0,0,0,.1A4,4,0,0,0,86,125.86a3,3,0,0,0,3-.45c.25-.18.28-.11.25.12-.1.71,0,2.23,2.16,3.09a2.74,2.74,0,0,0,3.21-.59c.27-.25.35-.21.36.18a3.86,3.86,0,1,0,3.86-4Z"/><path class="cls-4" d="M102.16,82.64c-25.28,0-45.77,13.44-45.77,29.93v1.76c0,17.5,17.91,31.67,45.77,31.67,28,0,45.78-14.17,45.78-31.67v-1.76C147.93,96.08,127.43,82.64,102.16,82.64Zm43.71,26.62a104.6,104.6,0,0,0-19.23,6.25c-4.35-3.79-14.38-12.52-17.1-14.55A11.89,11.89,0,0,0,106,98.89a6,6,0,0,0-1.74-.27,7.58,7.58,0,0,0-2.21.37,18.29,18.29,0,0,0-5.2,3.3l-.08.07c-1.58,1.25-3.21,2.54-4.44,2.82a7.56,7.56,0,0,1-1.64.18,4.21,4.21,0,0,1-3.1-1c-.07-.1,0-.26.16-.48l0,0,3.82-4.11c3-3,5.82-5.82,12.32-6h.33a23.17,23.17,0,0,1,8.55,2,26.66,26.66,0,0,0,11.66,2.8,30.53,30.53,0,0,0,12.76-3C141.85,99.44,144.93,104.13,145.87,109.26Zm-43.7-24.85c13.42,0,25.42,3.84,33.49,9.9a28.13,28.13,0,0,1-11.2,2.54,24.77,24.77,0,0,1-10.91-2.63A24.55,24.55,0,0,0,104.24,92h-.37a16.11,16.11,0,0,0-10.6,3.77,20.73,20.73,0,0,0-5.3,1,14.39,14.39,0,0,1-3.73.71c-.48,0-1.34,0-1.42,0a73,73,0,0,1-13.37-3.71C77.51,88,89.18,84.41,102.17,84.41ZM67.86,94.93c5.59,2.28,12.36,4,14.5,4.18.6,0,1.24.11,1.87.11a16,16,0,0,0,4.22-.78c.81-.23,1.7-.48,2.64-.66l-.75.75-3.88,4.2a2,2,0,0,0-.54,2.14A2.74,2.74,0,0,0,87,106a8,8,0,0,0,4.12,1,7.55,7.55,0,0,0,1.64-.17c1.63-.37,3.33-1.72,5.14-3.16a17.11,17.11,0,0,1,5.05-3,5.63,5.63,0,0,1,1.41-.19,2.11,2.11,0,0,1,.36,0,7.57,7.57,0,0,1,3.83,1.83c3.18,2.39,17.28,14.72,17.42,14.84a2.7,2.7,0,0,1,.84,2.07,2.27,2.27,0,0,1-1.12,1.81,3.47,3.47,0,0,1-1.85.57,3,3,0,0,1-1.63-.47c-.06,0-4.89-4.47-6.66-6a1.47,1.47,0,0,0-.84-.44.45.45,0,0,0-.37.17c-.28.34,0,.82.4,1.13l5.65,5.67a2.75,2.75,0,0,1,.78,1.53,2.57,2.57,0,0,1-1.34,2.34,3.54,3.54,0,0,1-2,.66,2.93,2.93,0,0,1-1.61-.48l-.81-.8q-2-2-4.13-3.89a1.44,1.44,0,0,0-.84-.44.47.47,0,0,0-.35.15c-.13.14-.22.4.1.82a2.13,2.13,0,0,0,.29.31l4.12,4.63a1.61,1.61,0,0,1,.09,2l-.15.18c-.12.13-.25.25-.38.37a3.32,3.32,0,0,1-2.57.59,1.47,1.47,0,0,1-.81-.34l0-.06c-.23-.23-2.3-2.35-4-3.78a1.44,1.44,0,0,0-.8-.43.5.5,0,0,0-.38.17c-.33.37.18.92.39,1.13l3.51,3.87a.7.7,0,0,1-.13.24,2.55,2.55,0,0,1-1.82.76,3.71,3.71,0,0,1-.47,0,8.17,8.17,0,0,1-3.44-1,5.23,5.23,0,0,0-4.92-7.47,4.67,4.67,0,0,0-2.66-4.92,5.5,5.5,0,0,0-2.19-.48,4.67,4.67,0,0,0-1.61.29,4.4,4.4,0,0,0-2.56-2.17,5.73,5.73,0,0,0-1.88-.34,5,5,0,0,0-2.93.94,4.41,4.41,0,0,0-6.2-.7,3.8,3.8,0,0,0-.37.33c-1.1-.83-5.43-3.59-17-6.22q-1.3-.33-2.61-.72C59.64,103.59,63,98.83,67.86,94.93Zm21.54,30.2-.13-.11h-.12a.61.61,0,0,0-.36.15,3,3,0,0,1-1.73.61,2.65,2.65,0,0,1-1-.18,3.76,3.76,0,0,1-2.35-4.36.36.36,0,0,0-.11-.35l-.19-.16-.19.17a2.75,2.75,0,0,1-3.44.34,2.79,2.79,0,1,1,4.27-2.7l.1.75.41-.64a3.9,3.9,0,0,1,4.47-1.59,2.83,2.83,0,0,1,2,2.63c0,.37.29.38.34.38a.42.42,0,0,0,.32-.16,2.83,2.83,0,0,1,2.06-.87,3.89,3.89,0,0,1,1.54.35c2.63,1.13,1.44,4.46,1.43,4.5-.23.55-.24.8,0,.94l.11,0h.07a1.75,1.75,0,0,0,.51-.14,4.56,4.56,0,0,1,1.41-.3,3.59,3.59,0,1,1-3.58,3.75c0-.17,0-.6-.4-.6a.69.69,0,0,0-.43.22,2.52,2.52,0,0,1-1.76.8,3.31,3.31,0,0,1-1.16-.25c-2-.83-2.07-2.24-2-2.8A.55.55,0,0,0,89.4,125.13Zm12.77,15.58c-24.31,0-44-12.6-44-28.15,0-.62,0-1.25.1-1.86l2.53.59c11.86,2.64,15.77,5.38,16.44,5.89a4.43,4.43,0,0,0,4.9,6.08,5.19,5.19,0,0,0,3.35,3.87,4.22,4.22,0,0,0,2.6.19,5.17,5.17,0,0,0,4.5,2.94,4,4,0,0,0,1.36-.25,5.22,5.22,0,0,0,6.81,2.87,5.31,5.31,0,0,0,1.78-1.21A9.84,9.84,0,0,0,107,133a4.92,4.92,0,0,0,.67,0,4.05,4.05,0,0,0,3-1.47,1.49,1.49,0,0,0,.18-.3,5.27,5.27,0,0,0,1.42.23,4.9,4.9,0,0,0,2.87-1,4,4,0,0,0,1.69-2.49,5.2,5.2,0,0,0,1,.09,5.28,5.28,0,0,0,2.94-.93,4.24,4.24,0,0,0,2.12-3.79,4.75,4.75,0,0,0,3.73-.75,4,4,0,0,0,1.92-3.12,4.3,4.3,0,0,0-.61-2.52,114.22,114.22,0,0,1,18.25-5.71c0,.46.06.93.06,1.4,0,15.55-19.71,28.16-44,28.16ZM304.86,91.85c-1.67-2.08-4.19-3.12-7.58-3.12s-5.9,1-7.56,3.12a12.2,12.2,0,0,0,0,14.8q2.49,3.07,7.56,3.07c3.39,0,5.91-1,7.58-3.07a12.24,12.24,0,0,0,0-14.8Zm-4.12,12a4.56,4.56,0,0,1-6.43.52,4.26,4.26,0,0,1-.52-.52,9.13,9.13,0,0,1,0-9.12,4.58,4.58,0,0,1,6.45-.5,5.9,5.9,0,0,1,.5.5,9.2,9.2,0,0,1,0,9.12ZM262.37,90.11a12.6,12.6,0,0,0-5.79-1.28q-5,0-7.06,2.61a7.52,7.52,0,0,0-1.46,4.26h5a3.68,3.68,0,0,1,.73-1.82,3.31,3.31,0,0,1,2.63-.9,5.42,5.42,0,0,1,2.51.46,1.74,1.74,0,0,1,.85,1.67,1.57,1.57,0,0,1-1.11,1.48,8.6,8.6,0,0,1-2.07.45l-1.77.22a12.77,12.77,0,0,0-4.56,1.26,5.62,5.62,0,0,0-2.83,5.28,5.44,5.44,0,0,0,1.76,4.34,7,7,0,0,0,4.45,1.53c11.28.51,11.15-5.94,11.25-7.28V95Q264.89,91.4,262.37,90.11Zm-2.62,11.26a4.14,4.14,0,0,1-1.48,3.57,5.35,5.35,0,0,1-3.12,1,2.83,2.83,0,0,1-1.81-.59,2.27,2.27,0,0,1-.75-1.92,2.39,2.39,0,0,1,1.22-2.19,7.59,7.59,0,0,1,2.38-.7l1.17-.22a8.1,8.1,0,0,0,1.39-.36,4.64,4.64,0,0,0,1-.49Zm-23.09-8.12a3.34,3.34,0,0,1,2.85,1.19,4.36,4.36,0,0,1,.78,2h5.56q-.45-4.22-2.94-5.88a11.43,11.43,0,0,0-6.4-1.66,9.35,9.35,0,0,0-7.21,2.82,11.22,11.22,0,0,0-2.61,7.89,11,11,0,0,0,2.36,7.31c1.58,1.88,4,2.81,7.38,2.82a8.9,8.9,0,0,0,7.57-3.38,8.37,8.37,0,0,0,1.8-4.45h-5.55a4.76,4.76,0,0,1-1,2.53,3.35,3.35,0,0,1-2.71,1A3.64,3.64,0,0,1,232.9,103a9.39,9.39,0,0,1-.53-3.48,10,10,0,0,1,.53-3.64,3.73,3.73,0,0,1,3.76-2.58ZM225.2,88.88C213.78,88.88,214.45,99,214.45,99v10.28h5.19V99.64a8,8,0,0,1,.59-3.51c.71-1.35,2.11-2,4.18-2a12.25,12.25,0,0,1,1.48.09V88.93l-.44,0h-.25Zm-14.9,3.84a8.13,8.13,0,0,0-3.4-2.91,11.17,11.17,0,0,0-4.63-.92,9.49,9.49,0,0,0-7.05,2.72c-1.81,1.83-2.72,4.44-2.72,7.85,0,3.65,1,6.27,3,7.89a10.72,10.72,0,0,0,6.94,2.42,9.55,9.55,0,0,0,7.41-2.87,7.07,7.07,0,0,0,1.8-3h-5.5a3.77,3.77,0,0,1-.71.78,4.44,4.44,0,0,1-2.89.79,5,5,0,0,1-2.76-.66,4.69,4.69,0,0,1-2.11-4.12H212a26.93,26.93,0,0,0-.17-3.91A9.8,9.8,0,0,0,210.3,92.72ZM197.82,97.3a5.4,5.4,0,0,1,1.37-3,4.11,4.11,0,0,1,3.08-1.12,4.48,4.48,0,0,1,3,1.06,4.29,4.29,0,0,1,1.37,3.11ZM182.2,88.82a7.56,7.56,0,0,0-5.88,2.74,7.31,7.31,0,0,0-5.89-2.74c-5.07,0-8.33,3.72-8.33,8.64v11.82h4.74V97.35a3.47,3.47,0,0,1,3.26-3.68,1.82,1.82,0,0,1,.33,0,3.29,3.29,0,0,1,3.47,3.11,3.62,3.62,0,0,1,0,.57v11.92h4.74V97.35a3.49,3.49,0,0,1,3.31-3.68,2.43,2.43,0,0,1,.27,0,3.32,3.32,0,0,1,3.5,3.15,3.13,3.13,0,0,1,0,.53v11.92h4.73V97.46c0-5.08-3-8.65-8.22-8.65Zm98.26-2.52v5.56a6.32,6.32,0,0,0-2.26-2.19,6.4,6.4,0,0,0-3.18-.78,7.55,7.55,0,0,0-6.2,2.89,12.7,12.7,0,0,0-2.33,8.07,10.69,10.69,0,0,0,2.36,7.16c1.57,1.86,4.66,2.68,7.39,2.68,9.55,0,9.44-8.19,9.44-8.19V82.66s-5.22-.56-5.22,3.64Zm-1,17.54a3.8,3.8,0,0,1-3.33,1.63,3.64,3.64,0,0,1-3.26-1.64,8.39,8.39,0,0,1-1.08-4.49,7.94,7.94,0,0,1,1.06-4.24,3.61,3.61,0,0,1,3.32-1.71,3.94,3.94,0,0,1,2.6.94c1.22,1,1.82,2.89,1.82,5.3a7.19,7.19,0,0,1-1.13,4.21ZM173.05,117.2c-4.26-.2-6.42.81-7.83,1.89-1.94,1.48-3.12,3.67-3.12,7.18v18h2.51a2.72,2.72,0,0,0,1.84-.69,2.44,2.44,0,0,0,.83-1.87V135a5.66,5.66,0,0,0,2.44,2.33,7.88,7.88,0,0,0,3.35.68,7.18,7.18,0,0,0,5.87-2.86,12.11,12.11,0,0,0,2.28-7.67,11,11,0,0,0-2.45-7.51,7.82,7.82,0,0,0-5.72-2.76ZM174.82,132a3.66,3.66,0,0,1-3.12,1.59,3.82,3.82,0,0,1-3.28-1.59,6.78,6.78,0,0,1-1.14-4.28,7.7,7.7,0,0,1,1.06-4.52,3.76,3.76,0,0,1,3.21-1.58,3.8,3.8,0,0,1,3.27,1.59A7.54,7.54,0,0,1,176,127.7a7.13,7.13,0,0,1-1.15,4.28Zm42.77-12.92a9.58,9.58,0,0,0-6.67-2c-3.14.09-5.43,1-6.85,2.9a12.39,12.39,0,0,0-2.12,7.54,11.52,11.52,0,0,0,1.6,6.43,8.37,8.37,0,0,0,3.86,3.34,7.37,7.37,0,0,0,4.52.38,5.7,5.7,0,0,0,3.63-2.63v1.27A6.19,6.19,0,0,1,214.4,140a4.08,4.08,0,0,1-2.25,1.46,4.16,4.16,0,0,1-4.3-1.92h-5.46c1.42,4.26,4,6.14,8.53,6.47,7.38.53,9.73-5.72,9.73-9.1v-10.6c0-3.5-1.14-5.74-3.07-7.21Zm-2.18,10.41a5.64,5.64,0,0,1-1,2.59c-.95,1.3-2.42,1.77-4.42,1.39s-3-2.29-3-5.75a9.74,9.74,0,0,1,.9-4.28,3.44,3.44,0,0,1,3.44-1.88,3.27,3.27,0,0,1,2.84,1.36,6.92,6.92,0,0,1,1.24,3.08,11,11,0,0,1,0,3.49Zm-17.9-10.93a12.72,12.72,0,0,0-5.78-1.29c-3.34,0-5.7.87-7.06,2.61a7.63,7.63,0,0,0-1.47,4.26h5a3.66,3.66,0,0,1,.74-1.81,3.28,3.28,0,0,1,2.62-.91,5.3,5.3,0,0,1,2.51.47,1.72,1.72,0,0,1,.85,1.67A1.55,1.55,0,0,1,193.8,125a8.17,8.17,0,0,1-2.06.45l-1.77.22A12.58,12.58,0,0,0,185.4,127a5.63,5.63,0,0,0-2.82,5.27,5.43,5.43,0,0,0,1.75,4.34,7,7,0,0,0,4.46,1.54c11.27.5,11.15-5.95,11.25-7.29v-7.42c0-2.37-.85-4-2.53-4.85Zm-2.62,11.26a4.1,4.1,0,0,1-1.48,3.56,5.34,5.34,0,0,1-3.11,1,2.89,2.89,0,0,1-1.82-.58,2.32,2.32,0,0,1-.75-1.92,2.36,2.36,0,0,1,1.23-2.19,7.47,7.47,0,0,1,2.37-.71l1.17-.21a8.1,8.1,0,0,0,1.39-.36,4.68,4.68,0,0,0,1-.5Zm45.37-9.63q-2.49-3.12-7.57-3.12t-7.56,3.12a12.23,12.23,0,0,0,0,14.79q2.49,3.07,7.56,3.08t7.57-3.08a12.21,12.21,0,0,0,0-14.78Zm-4.11,11.94a4.56,4.56,0,0,1-6.43.52,5.11,5.11,0,0,1-.52-.52,9.11,9.11,0,0,1,0-9.11,4.58,4.58,0,0,1,6.45-.5,4.72,4.72,0,0,1,.5.5,9.25,9.25,0,0,1,0,9.11Z"/></g></g></svg>