<svg xmlns="http://www.w3.org/2000/svg" viewBox="0 0 363.73 228.63"><defs><style>.cls-1{fill:#f7f7f7;}.cls-2{fill:#ff5f00;}.cls-2,.cls-3,.cls-4{fill-rule:evenodd;}.cls-3{fill:#eb001b;}.cls-4{fill:#f79e1b;}</style></defs><g id="Camada_2" data-name="Camada 2"><g id="Camada_1-2" data-name="Camada 1"><rect class="cls-1" width="363.73" height="228.63" rx="42.24"/><g id="Components---Sprint-3"><g id="assets-_-logo-_-mastercard-_-symbol" data-name="assets-/-logo-/-mastercard-/-symbol"><polygon id="Fill-1" class="cls-2" points="161.01 152.56 203.33 152.56 203.33 76.18 161.01 76.18 161.01 152.56"/><path id="Fill-2" class="cls-3" d="M163.7,114.37a48.58,48.58,0,0,1,18.47-38.19,48,48,0,0,0-29.88-10.39,48.58,48.58,0,0,0,0,97.16,48,48,0,0,0,29.88-10.39,48.58,48.58,0,0,1-18.47-38.19"/><path id="Fill-4" class="cls-4" d="M258.91,144.47v-1.88h-.49l-.57,1.29-.56-1.29h-.49v1.88h.34v-1.42l.53,1.22H258l.53-1.22v1.42Zm-3.11,0v-1.56h.63v-.32h-1.6v.32h.63v1.56Zm4.62-30.1a48.32,48.32,0,0,1-78.25,38.19,48.72,48.72,0,0,0,0-76.38,48.32,48.32,0,0,1,78.25,38.19Z"/></g></g></g></g></svg>