<svg xmlns="http://www.w3.org/2000/svg" viewBox="0 0 363.73 228.63"><defs><style>.cls-1{fill:#f7f7f7;}.cls-2{fill:#2566af;}</style></defs><g id="Camada_2" data-name="Camada 2"><g id="Camada_1-2" data-name="Camada 1"><rect class="cls-1" width="363.73" height="228.63" rx="42.24"/><path class="cls-2" d="M168.88,144.94H152.94l10-61.21h15.94ZM139.54,83.73l-15.2,42.1-1.79-9.06h0l-5.36-27.53s-.65-5.51-7.56-5.51H84.51l-.3,1a59.42,59.42,0,0,1,16.67,7l13.85,53.18h16.6l25.36-61.21Zm125.35,61.21h14.63L266.76,83.73H254c-5.91,0-7.36,4.56-7.36,4.56l-23.76,56.65h16.61l3.32-9.09H263l1.87,9.09Zm-17.54-21.65,8.37-22.91,4.72,22.91ZM224.07,98.45l2.28-13.15A46.16,46.16,0,0,0,212,82.64c-7.91,0-26.69,3.45-26.69,20.26,0,15.81,22.05,16,22.05,24.32s-19.78,6.81-26.3,1.58l-2.37,13.74a44.65,44.65,0,0,0,18,3.46c10.87,0,27.28-5.63,27.28-21,0-15.91-22.24-17.4-22.24-24.32s15.52-6,22.34-2.27Z"/><path class="cls-2" d="M122.55,116.77l-5.36-27.53s-.65-5.51-7.56-5.51H84.51l-.3,1a61.87,61.87,0,0,1,23.66,11.88A47.73,47.73,0,0,1,122.55,116.77Z"/></g></g></svg>