<svg xmlns="http://www.w3.org/2000/svg" viewBox="0 0 363.73 228.63"><defs><style>.cls-1{fill:#f7f7f7;}.cls-2{fill:#016fd0;}</style></defs><g id="Camada_2" data-name="Camada 2"><g id="Camada_1-2" data-name="Camada 1"><rect class="cls-1" width="363.73" height="228.63" rx="42.24"/><path class="cls-2" d="M108.17,91.25v19.19c-.25,0-.46.06-.67.06-2,0-4,0-6,0-.52,0-.71-.14-.71-.69q0-13.23,0-26.47c0-.52.19-.64.67-.63,3.47,0,6.94,0,10.4,0a.83.83,0,0,1,.93.66q2.83,7.91,5.73,15.81c.06.18.13.35.27.7.4-1.08.75-2,1.09-3,1.65-4.57,3.29-9.15,5-13.72a.8.8,0,0,1,.58-.45c3.61,0,7.22,0,10.83,0a2.4,2.4,0,0,1,.36.06v.78q0,13,0,26.05c0,.75-.23.92-.93.9q-2.83-.06-5.67,0c-.65,0-.85-.18-.84-.84,0-6.08,0-12.15,0-18.23,0-.06,0-.12,0-.33l-2.32,6.3q-2.29,6.26-4.58,12.5a.74.74,0,0,1-.83.59c-1.82,0-3.64,0-5.45,0-.54,0-.69-.26-.84-.67l-3.55-9.67-3.27-8.93Z"/><path class="cls-2" d="M286.33,99.09V82.73h1.6c1.68,0,3.35,0,5,0,.71,0,.89.22.89.9,0,5.38,0,10.76,0,16.14,0,3.3,0,6.6,0,9.9,0,.62-.14.88-.83.87-2.51,0-5,0-7.53,0a1.15,1.15,0,0,1-1.11-.58q-5.26-8-10.56-16l-.48-.68v1.08c0,5.07,0,10.14,0,15.21,0,.7-.16,1-.91.93-2,0-3.92,0-5.88,0-.61,0-.77-.21-.77-.79q0-13,0-26.11c0-.74.21-.92.93-.91,2.65,0,5.3,0,8,0a1.18,1.18,0,0,1,.84.45q5.16,7.67,10.29,15.35l.39.59Z"/><path class="cls-2" d="M226.57,124.69v4.14h.88c4.56,0,9.13,0,13.7,0,.7,0,1,.15.94.91-.06,1.57-.05,3.15,0,4.73,0,.72-.24.88-.91.88-4.59,0-9.18,0-13.77,0-.69,0-.94.15-.89.87a20.19,20.19,0,0,1,0,2.58c0,.64.17.81.8.8,4.69,0,9.38,0,14.07,0,1.09,0,1.09,0,1.09,1.07V145c0,1,0,1-1,1H220c-1.07,0-1.07,0-1.07-1v-13.7c0-4.07,0-8.13,0-12.2,0-.67.21-.84.86-.84q10.9,0,21.81,0c.74,0,.94.21.92.93-.06,1.58-.06,3.16,0,4.74,0,.67-.2.85-.85.85-4.64,0-9.28,0-13.92,0Z"/><path class="cls-2" d="M149.66,89.16v4.2h.81c4.62,0,9.23,0,13.85,0,.64,0,.88.15.85.83,0,1.58,0,3.16,0,4.73,0,.74-.21.94-.92.94-4.59,0-9.18,0-13.77,0h-.86c0,1.31,0,2.54,0,3.78,0,.14.28.36.45.38a11.07,11.07,0,0,0,1.29,0c4.42,0,8.84,0,13.27,0,.71,0,1,.19.92.93-.05,1.62,0,3.25,0,4.87,0,.54-.18.7-.7.7-7.39,0-14.78,0-22.17,0-.77,0-.7-.44-.7-.92V84.71c0-.46,0-.91,0-1.37s.17-.63.64-.62c1.62,0,3.25,0,4.87,0,5.72,0,11.43,0,17.15,0,.73,0,.94.19.91.92-.06,1.58-.05,3.16,0,4.73,0,.64-.17.81-.81.81-4.73,0-9.46,0-14.2,0Z"/><path class="cls-2" d="M124.27,124.67H108.39v4.16H123c.94,0,.94,0,.94,1,0,1.58,0,3.16,0,4.74,0,.64-.21.81-.82.81-4.62,0-9.23,0-13.84,0h-.94c0,1.33,0,2.59,0,3.85,0,.51.41.36.69.37h15.18V146h-.67c-7.31,0-14.63,0-22,0-.6,0-.83-.14-.83-.79q0-13.12,0-26.25c0-.61.2-.76.78-.76q11,0,22,0c.65,0,.8.2.79.82-.05,1.62,0,3.25,0,4.87Z"/><path class="cls-2" d="M270.62,118.2c-.41.91-.75,1.68-1.11,2.45-.51,1.13-1,2.25-1.54,3.39a1,1,0,0,1-1,.66c-3.68,0-7.36,0-11.05,0-.31,0-.62,0-.93,0a2,2,0,0,0-2,2.07,2,2,0,0,0,2.07,2c1.38,0,2.77,0,4.16,0a43.61,43.61,0,0,1,5.49.29,7.08,7.08,0,0,1,6.36,6.61c.6,5.42-2.57,9.41-8,10.1a13.85,13.85,0,0,1-1.57.13c-4.83,0-9.66,0-14.49,0-.61,0-.77-.2-.76-.78q.06-2.47,0-5c0-.57.19-.72.74-.72,4.52,0,9,0,13.56,0a8.21,8.21,0,0,0,1.21-.09,2.05,2.05,0,0,0,.17-4,5.42,5.42,0,0,0-1.14-.08c-2.18,0-4.35,0-6.53,0a9.27,9.27,0,0,1-6.31-2.12,8,8,0,0,1-2.43-7.65c.66-4.1,3.5-6.61,7.86-7.21a14.06,14.06,0,0,1,1.71-.13h15.54Z"/><path class="cls-2" d="M297.7,118.27c-.38.83-.7,1.57-1,2.3-.47,1.05-1,2.06-1.42,3.13a1.38,1.38,0,0,1-1.54,1c-3.57,0-7.13,0-10.69,0a9.75,9.75,0,0,0-1.08,0,2,2,0,0,0-1.87,2.19,2,2,0,0,0,2.05,1.9c2.39,0,4.79-.07,7.17,0a15.09,15.09,0,0,1,4.07.69,6.64,6.64,0,0,1,4.68,5.56c.53,3.28-.1,6.25-2.68,8.56a9.06,9.06,0,0,1-6,2.26c-5.21.09-10.42,0-15.64,0-.06,0-.13,0-.27-.05v-6.37h14.28a6.93,6.93,0,0,0,1.28-.12,1.92,1.92,0,0,0,1.62-1.75,1.94,1.94,0,0,0-1.35-2.18,4,4,0,0,0-1.2-.15c-2.25,0-4.5.07-6.74-.05a14.15,14.15,0,0,1-4-.75,6.91,6.91,0,0,1-4.62-5.66c-.63-3.73.4-7,3.67-9.1a9.74,9.74,0,0,1,5.23-1.54c5.21-.06,10.42,0,15.64,0C297.32,118.21,297.44,118.24,297.7,118.27Z"/><path class="cls-2" d="M159.25,146h-2.42c-2.13,0-4.26,0-6.38,0a1.48,1.48,0,0,1-1.29-.58c-2.19-2.59-4.41-5.15-6.62-7.72a4.9,4.9,0,0,0-.39-.37l-4.42,5.12c-.91,1.05-1.79,2.11-2.72,3.14a1.21,1.21,0,0,1-.78.38c-2.89,0-5.78,0-8.68,0a3.79,3.79,0,0,1-.38-.08l12.36-14-12.16-13.68c.41,0,.64-.06.86-.06,2.75,0,5.5,0,8.25,0a1.29,1.29,0,0,1,1.1.51c2.06,2.41,4.15,4.81,6.22,7.22.14.16.29.31.65.69a3,3,0,0,1,.31-.62c2.08-2.44,4.16-4.86,6.27-7.27a1.37,1.37,0,0,1,.87-.5c2.86,0,5.73,0,8.6,0a3,3,0,0,1,.48.08l-12,13.5,12.35,14Z"/><path class="cls-2" d="M233.85,82.64v6.68c-.34,0-.64.05-.94.05-2.54,0-5.07-.05-7.61,0-4.11.14-6.39,2.38-6.59,6.48a12.11,12.11,0,0,0,.35,3.55,5.87,5.87,0,0,0,5.8,4.55c1.48.07,3,0,4.45,0l.9,0c-.21.48-.37.86-.55,1.23-.73,1.56-1.45,3.12-2.21,4.66-.11.22-.37.51-.57.52a19,19,0,0,1-8.24-1.09,11.65,11.65,0,0,1-7.22-9.43,17.67,17.67,0,0,1,.54-8.78A11.52,11.52,0,0,1,222.12,83C226,82.55,229.89,82.73,233.85,82.64Z"/><path class="cls-2" d="M200,82.73c2.36,0,4.7,0,7,0,.15,0,.34.24.43.41s0,.32,0,.49v25.82c0,1,0,1-1.07,1-1.93,0-3.87,0-5.81,0-.47,0-.67-.11-.67-.64q0-13.47,0-27S199.93,82.87,200,82.73Z"/><path class="cls-2" d="M208.11,136.12a26.51,26.51,0,0,0,3.34-1.63,8.32,8.32,0,0,0,3.79-7.72,8.18,8.18,0,0,0-4.35-7.25,10.55,10.55,0,0,0-5.3-1.31c-5.16,0-10.33,0-15.49,0-.69,0-.82.25-.82.87q0,13,0,26.11V146c2.34,0,4.58,0,6.82,0,.6,0,.73-.22.73-.75,0-2.44,0-4.88,0-7.32v-1.58a9.78,9.78,0,0,0,1.34,0,2.07,2.07,0,0,1,2,.89c2.36,2.79,4.77,5.54,7.19,8.27a1.57,1.57,0,0,0,1,.47c2.7,0,5.4,0,8.1,0a3.29,3.29,0,0,0,.56-.09C214,142.56,211,139.32,208.11,136.12Zm-2.77-6.19c-2.78.11-5.58,0-8.46,0v-5.2c.2,0,.41-.07.61-.07,2.39,0,4.78,0,7.17,0a2.73,2.73,0,0,1,2.82,1.67A2.51,2.51,0,0,1,205.34,129.93Z"/><path class="cls-2" d="M188.93,100.51l1.07-.33a9,9,0,0,0,3.83-14.64,9.69,9.69,0,0,0-7.21-2.8c-5.21,0-10.42,0-15.64,0-.23,0-.46,0-.72,0a3.47,3.47,0,0,0,0,.39q0,13.34,0,26.68c0,.56.22.68.73.67,2,0,4,0,6,0,.7,0,.84-.24.83-.87,0-2.37,0-4.73,0-7.1,0-1.69,0-1.66,1.68-1.72a1.64,1.64,0,0,1,1.45.66q3.69,4.31,7.43,8.54a1.48,1.48,0,0,0,1,.46c2.63,0,5.26,0,7.89,0,.22,0,.44,0,.85,0Zm-.34-8.34a2.43,2.43,0,0,1-2,2.21,6.24,6.24,0,0,1-1.21.14q-3.44,0-6.88,0l-.69,0V89.21c.24,0,.45,0,.65,0,2.25,0,4.49,0,6.74,0a5.9,5.9,0,0,1,1.87.35A2.42,2.42,0,0,1,188.59,92.17Z"/><path class="cls-2" d="M99.31,109.81Q93.48,96.55,87.64,83.29a.85.85,0,0,0-.93-.57c-2.75,0-5.5,0-8.25,0a1,1,0,0,0-1,.71L66.78,107.51c-.42.95-.83,1.9-1.25,2.87a1.44,1.44,0,0,0,.29.11c2.51,0,5,0,7.53,0A.92.92,0,0,0,74,110c.66-1.49,1.27-3,1.87-4.49a.78.78,0,0,1,.85-.57H88.18a.77.77,0,0,1,.83.58c.6,1.48,1.25,2.94,1.85,4.42a.81.81,0,0,0,.9.61c2.39,0,4.78,0,7.17,0a6.19,6.19,0,0,0,.63-.06C99.46,110.19,99.39,110,99.31,109.81ZM78.72,98.61c1.23-3,2.44-5.85,3.71-8.87l3.71,8.87Z"/><path class="cls-2" d="M263,106.9q-5.19-11.75-10.36-23.51a1,1,0,0,0-1.08-.68c-2.58,0-5.16.06-7.74,0a1.47,1.47,0,0,0-1.63,1.07c-3.31,7.59-6.67,15.15-10,22.72l-1.71,3.91a2.1,2.1,0,0,0,.33.1c2.49,0,5,0,7.46,0a1,1,0,0,0,.69-.55c.64-1.46,1.24-3,1.84-4.43a.78.78,0,0,1,.82-.6q5.78,0,11.55,0a.72.72,0,0,1,.79.53c.61,1.5,1.28,3,1.88,4.49a.81.81,0,0,0,.91.59c2.37,0,4.73,0,7.1,0,.2,0,.41,0,.72-.06Zm-12.27-8.24h-7.08l3.74-8.92,3.71,8.88Z"/><path class="cls-2" d="M183.94,121.17a9.53,9.53,0,0,0-7.15-3c-5.28-.06-10.57,0-15.85,0-.7,0-.89.2-.88.89,0,4.32,0,8.65,0,13v6.53c0,2.17,0,4.35,0,6.52,0,.7.21.9.9.88q2.94-.06,5.88,0c.68,0,.85-.23.84-.86,0-2.42,0-4.83,0-7.25,0-.7.23-.89.9-.88,2.87,0,5.74,0,8.61-.08,4.9-.19,9-3.62,9.13-9A9.1,9.1,0,0,0,183.94,121.17ZM176,130.51c-2.63.08-5.26,0-7.88,0a.64.64,0,0,1-.46-.44c0-1.76,0-3.52,0-5.36,2.87,0,5.64-.06,8.4,0a2.9,2.9,0,0,1,0,5.77Z"/></g></g></svg>