<svg xmlns="http://www.w3.org/2000/svg" viewBox="0 0 363.73 228.63"><defs><style>.cls-1{fill:#f7f7f7;}.cls-2{fill:#96969a;}.cls-3{fill:#4ab7a8;}</style></defs><g id="Camada_2" data-name="Camada 2"><g id="Camada_1-2" data-name="Camada 1"><rect class="cls-1" width="363.73" height="228.63" rx="42.24"/><g id="surface1"><path class="cls-2" d="M159.84,150.83a1.93,1.93,0,0,1-.59-.11,2.06,2.06,0,0,1-.48-.33,2,2,0,0,1-.31-.48,1.4,1.4,0,0,1-.13-.59V102.61A18.08,18.08,0,0,1,163.48,90a17.36,17.36,0,0,1,12.42-5.25h14.25A17.42,17.42,0,0,1,202.54,90a18.1,18.1,0,0,1,5.14,12.59V114.7a18,18,0,0,1-5.14,12.65,17.52,17.52,0,0,1-12.43,5.28H167.73a1.44,1.44,0,0,1-1-.46,1.57,1.57,0,0,1-.44-1.07,1.59,1.59,0,0,1,.44-1.07,1.5,1.5,0,0,1,1-.44h22.38a14.47,14.47,0,0,0,10.31-4.35,15,15,0,0,0,4.27-10.48V102.61a15,15,0,0,0-4.25-10.48,14.35,14.35,0,0,0-10.29-4.35H175.9a14.4,14.4,0,0,0-10.29,4.35,15.05,15.05,0,0,0-4.29,10.48v46.73a1.8,1.8,0,0,1-.1.57,1.48,1.48,0,0,1-.82.81A1.36,1.36,0,0,1,159.84,150.83Z"/><path class="cls-2" d="M223,132.84a1.5,1.5,0,0,1-1.48-1.51V93A5.23,5.23,0,0,0,220,89.28a5.06,5.06,0,0,0-3.62-1.53h-6.17a1.53,1.53,0,0,1-1-2.59,1.52,1.52,0,0,1,1-.44h6.17a7.88,7.88,0,0,1,3.1.63,8.27,8.27,0,0,1,2.63,1.78,8.06,8.06,0,0,1,1.76,2.67,8.21,8.21,0,0,1,.63,3.16v38.37a1.33,1.33,0,0,1-.13.58,1.37,1.37,0,0,1-.31.49,1.67,1.67,0,0,1-.5.33A1.92,1.92,0,0,1,223,132.84Z"/><path class="cls-3" d="M227,75.45l-2.81-2.84a1.77,1.77,0,0,0-2.53,0l-2.8,2.84a1.84,1.84,0,0,0,0,2.56l2.8,2.86a1.77,1.77,0,0,0,2.53,0L227,78A1.84,1.84,0,0,0,227,75.45Z"/><path class="cls-2" d="M240.86,132.63h-6.11a1.45,1.45,0,0,1-1.05-.46,1.56,1.56,0,0,1-.43-1.07,1.58,1.58,0,0,1,.43-1.07,1.52,1.52,0,0,1,1.05-.44h6.11a10.48,10.48,0,0,0,4-.79,10.68,10.68,0,0,0,3.37-2.3l14.33-14.33a6.17,6.17,0,0,1,6.8-1.38,6.31,6.31,0,0,1,2,1.38l14.29,14.26a10.06,10.06,0,0,0,3.37,2.3,9.55,9.55,0,0,0,4,.8h5a1.45,1.45,0,0,1,1.05.46,1.55,1.55,0,0,1,.44,1.07,1.58,1.58,0,0,1-.44,1.06,1.48,1.48,0,0,1-1.05.44h-5a13,13,0,0,1-5.12-1,13.36,13.36,0,0,1-4.35-3L269.27,114.3a3.47,3.47,0,0,0-1-.71,3.24,3.24,0,0,0-1.25-.25,3.18,3.18,0,0,0-1.26.25,3.84,3.84,0,0,0-1.07.71l-14.33,14.33a12.59,12.59,0,0,1-4.33,3A13,13,0,0,1,240.86,132.63Z"/><path class="cls-2" d="M240.86,84.72h-6.11a1.44,1.44,0,0,0-1.05.44,1.53,1.53,0,0,0,0,2.13,1.4,1.4,0,0,0,1.05.44h6.11a10.14,10.14,0,0,1,4,.82,9.92,9.92,0,0,1,3.37,2.3l14.33,14.33a6.41,6.41,0,0,0,2,1.38,6.17,6.17,0,0,0,4.77,0,6.64,6.64,0,0,0,2-1.38l14.29-14.27a9.92,9.92,0,0,1,3.37-2.3,10.06,10.06,0,0,1,4-.81h5a1.44,1.44,0,0,0,1.05-.44,1.57,1.57,0,0,0,.44-1.07,1.55,1.55,0,0,0-.44-1.07,1.44,1.44,0,0,0-1.05-.44h-5a12.6,12.6,0,0,0-5.12,1,13.21,13.21,0,0,0-4.35,3l-14.27,14.27a3.26,3.26,0,0,1-4.62,0L250.31,88.72a13.09,13.09,0,0,0-9.45-4Z"/><path class="cls-3" d="M81.5,137.81a11.4,11.4,0,0,0,4.41-.9,11.12,11.12,0,0,0,3.72-2.53l11.76-12a2.27,2.27,0,0,1,1.55-.63,2.21,2.21,0,0,1,1.55.63l11.82,12A11.51,11.51,0,0,0,120,137a11.22,11.22,0,0,0,4.41.9h2.33L111.87,153a12,12,0,0,1-3.87,2.64,11.76,11.76,0,0,1-9.12,0A11.71,11.71,0,0,1,95,153l-15-15.19Z"/><path class="cls-3" d="M124.44,95.45a11.05,11.05,0,0,0-4.39.9,11.51,11.51,0,0,0-3.74,2.53l-11.78,12a2.2,2.2,0,0,1-1.55.65,2.13,2.13,0,0,1-1.55-.65L89.68,99a11.58,11.58,0,0,0-3.75-2.56,11,11,0,0,0-4.41-.87H80.05L95,80.31a11.74,11.74,0,0,1,16.84,0l14.9,15.14Z"/><path class="cls-3" d="M67.73,108.09,76.62,99H81.5a8,8,0,0,1,5.69,2.38l11.77,12a5.72,5.72,0,0,0,1.82,1.26,5.61,5.61,0,0,0,2.18.43,5.54,5.54,0,0,0,2.15-.43,5.69,5.69,0,0,0,1.84-1.26l11.8-12a8.22,8.22,0,0,1,5.71-2.4h5.78l8.93,9.1a12.28,12.28,0,0,1,0,17.15l-8.93,9.1h-5.8a8.1,8.1,0,0,1-5.69-2.41l-11.8-12a5.74,5.74,0,0,0-8,0l-11.75,12a8,8,0,0,1-5.69,2.39H76.62l-8.89-9A12.3,12.3,0,0,1,65.14,112,11.85,11.85,0,0,1,67.73,108.09Z"/><path class="cls-2" d="M166.26,150.45v-7h.55l0,.31a11,11,0,0,1,2.44-.43,2.2,2.2,0,0,1,1.62.52,3,3,0,0,1,.58,1,2.75,2.75,0,0,1,.13,1.17,2.71,2.71,0,0,1-.21,1.26,2.79,2.79,0,0,1-.8,1,3.69,3.69,0,0,1-1.84.48,6,6,0,0,1-1.84-.31v2.05Zm3-6.46a9.23,9.23,0,0,0-2.28.39v3.37a4.42,4.42,0,0,0,1.76.31c1.52,0,2.22-.56,2.22-2.05S170.32,144,169.21,144Z"/><path class="cls-2" d="M177.26,148.17a4.07,4.07,0,0,1-2,.54,4.24,4.24,0,0,1-2.05-.54,2.69,2.69,0,0,1-.81-2.16,2.59,2.59,0,0,1,.81-2.15,3.13,3.13,0,0,1,2.08-.54,3,3,0,0,1,2,.54,2.57,2.57,0,0,1,.84,2.15A2.62,2.62,0,0,1,177.26,148.17Zm-2-4.21c-1.53,0-2.18.53-2.18,2s.65,2.12,2.18,2.12,2.15-.53,2.15-2S176.72,144,175.24,144Z"/><path class="cls-2" d="M184.34,148.59l-1.68-4.14h0L181,148.59h-.63l-1.88-5.15h.73l1.48,4.21h.07l1.63-4.21H183l1.67,4.21h0l1.47-4.21h.66l-1.88,5.15Z"/><path class="cls-2" d="M189.8,148.71a2.5,2.5,0,0,1-1.89-.56,3.48,3.48,0,0,1-.69-2.18,3.43,3.43,0,0,1,.84-2.13,2.79,2.79,0,0,1,1.8-.5,2.69,2.69,0,0,1,1.84.48,2.78,2.78,0,0,1,.79,2.38h-4.58c0,1,.34,1.86,2,1.86a11,11,0,0,0,2.36-.29v.63A12,12,0,0,1,189.8,148.71Zm0-4.77a1.68,1.68,0,0,0-2,1.68h3.89c0-1.13-.54-1.7-1.94-1.7Z"/><path class="cls-2" d="M193.56,148.59v-5.15h.57l0,.31a6.75,6.75,0,0,1,2.24-.43h.08V144h-.19a6,6,0,0,0-2.07.37v4.21Z"/><path class="cls-2" d="M199.5,148.71a2.45,2.45,0,0,1-1.88-.56,3,3,0,0,1-.59-1,3.16,3.16,0,0,1-.12-1.15,2.89,2.89,0,0,1,.19-1.19,2.8,2.8,0,0,1,.64-1,2.85,2.85,0,0,1,1.8-.5,2.8,2.8,0,0,1,1.84.48,2.72,2.72,0,0,1,.8,2.38H197.6c0,1,.33,1.88,2,1.88a12.51,12.51,0,0,0,2.36-.31v.65A13.69,13.69,0,0,1,199.5,148.71Zm0-4.77c-1.38,0-1.86.67-2,1.68h3.91c0-1.13-.54-1.7-2-1.7Z"/><path class="cls-2" d="M207.74,148.59l0-.32a9.62,9.62,0,0,1-2.45.44,2.27,2.27,0,0,1-1.61-.52,2.9,2.9,0,0,1-.56-1,3.15,3.15,0,0,1-.15-1.18,2.62,2.62,0,0,1,.23-1.25,2.35,2.35,0,0,1,.78-1,3.39,3.39,0,0,1,1.86-.49,5.45,5.45,0,0,1,1.82.32v-2.32h.67v7.28Zm-.12-4.31a4.63,4.63,0,0,0-1.76-.34c-1.53,0-2.22.59-2.22,2.07s.59,2,1.72,2a9.17,9.17,0,0,0,2.26-.35Z"/><path class="cls-2" d="M217.28,148.27a3.69,3.69,0,0,1-1.84.48,6.15,6.15,0,0,1-2-.39l0,.25h-.48v-7.32h.67v2.44a9.89,9.89,0,0,1,2.36-.41,2.16,2.16,0,0,1,1.59.52,2.68,2.68,0,0,1,.59,1,4.72,4.72,0,0,1-.06,2.43A2.55,2.55,0,0,1,217.28,148.27ZM215.86,144a9.23,9.23,0,0,0-2.26.39v3.35a4.62,4.62,0,0,0,1.76.33c1.53,0,2.22-.58,2.22-2.05S217,144,215.86,144Z"/><path class="cls-2" d="M218.75,150.55v-.67a2.93,2.93,0,0,0,.67.07c.65,0,1-.21,1.36-1l.14-.37-2.38-5.15h.77l1.95,4.31h0l1.84-4.31h.73l-2.51,5.71c-.46,1.07-1,1.45-1.92,1.45C219.21,150.6,219,150.57,218.75,150.55Z"/><path class="cls-2" d="M233.5,148.09c-.65.48-1.43.48-2.87.48H228v-6.95h2.62a4.22,4.22,0,0,1,2.61.46,1.67,1.67,0,0,1,.5.69,1.68,1.68,0,0,1,.11.86,1.8,1.8,0,0,1-.29.82,1.88,1.88,0,0,1-.65.54v0a1.88,1.88,0,0,1,.81.48,1.8,1.8,0,0,1,.44.84,1.85,1.85,0,0,1-.06,1,1.49,1.49,0,0,1-.57.78Zm-2.74-5.34h-1.43v1.8h1.45c1.19,0,1.65-.17,1.65-.92S231.84,142.75,230.76,142.75Zm.33,2.91h-1.76v1.8h1.76c1.21,0,1.67-.17,1.67-.92S232.14,145.66,231.09,145.66Z"/><path class="cls-2" d="M239.42,148.59l0-.32a9.78,9.78,0,0,1-2.46.44,2.1,2.1,0,0,1-1.36-.35,1.45,1.45,0,0,1-.4-.57,2.1,2.1,0,0,1-.13-.69,1.77,1.77,0,0,1,.19-.79,1.52,1.52,0,0,1,.59-.59,3.63,3.63,0,0,1,1.69-.27c.48,0,1.11,0,1.65.06v-.08c0-.82-.48-1.07-1.75-1.07a14.15,14.15,0,0,0-1.66.09v-1c.63-.06,1.34-.1,1.95-.1a3.31,3.31,0,0,1,2.09.48,2,2,0,0,1,.63,1.75v3Zm-.26-2.16a14.7,14.7,0,0,0-1.63-.08c-.94,0-1.25.21-1.25.69s.27.69,1,.69a8.68,8.68,0,0,0,1.88-.31Z"/><path class="cls-2" d="M246,148.59v-2.85c0-.92-.41-1.25-1.17-1.25a6.69,6.69,0,0,0-1.84.31v3.79h-1.27v-5.15h1l.06.34a9.47,9.47,0,0,1,2.41-.49,1.69,1.69,0,0,1,.86.09,1.71,1.71,0,0,1,.71.46,2,2,0,0,1,.42.73,1.78,1.78,0,0,1,.06.86v3.14Z"/><path class="cls-2" d="M250.54,148.71a2.33,2.33,0,0,1-1.69-.52,2.86,2.86,0,0,1-.71-2.18,2.41,2.41,0,0,1,.21-1.21,2.83,2.83,0,0,1,.73-1,3.13,3.13,0,0,1,2-.5,14,14,0,0,1,1.59.1v1.09a11.18,11.18,0,0,0-1.45-.09c-1.19,0-1.75.42-1.75,1.59s.42,1.59,1.4,1.59a7.92,7.92,0,0,0,1.9-.27v1A9.6,9.6,0,0,1,250.54,148.71Z"/><path class="cls-2" d="M258.56,148.19a4.87,4.87,0,0,1-4.38,0,3.26,3.26,0,0,1,0-4.35,4.87,4.87,0,0,1,4.38,0,2.57,2.57,0,0,1,.83,2.17A2.65,2.65,0,0,1,258.56,148.19Zm-2.18-3.81c-1.21,0-1.73.44-1.73,1.59s.52,1.68,1.73,1.68,1.72-.42,1.72-1.59S257.57,144.38,256.38,144.38Z"/><path class="cls-2" d="M266.36,148.71a3,3,0,0,1-2.2-.71,3.88,3.88,0,0,1-.94-2.91,3.57,3.57,0,0,1,1.24-3,4.32,4.32,0,0,1,2.61-.67c.69,0,1.38.07,2.13.13v1.26a20.74,20.74,0,0,0-2.09-.11c-1.73,0-2.49.73-2.49,2.34s.69,2.37,2,2.37a12.2,12.2,0,0,0,2.74-.42v1.25A12.54,12.54,0,0,1,266.36,148.71Z"/><path class="cls-2" d="M272.66,148.71a2.56,2.56,0,0,1-1.93-.56,2.81,2.81,0,0,1-.58-1A3,3,0,0,1,270,146a2.8,2.8,0,0,1,.86-2.17,3,3,0,0,1,2-.52,3,3,0,0,1,2,.5,3,3,0,0,1,.8,2.53H271.3c0,.79.39,1.3,1.67,1.3a13,13,0,0,0,2.41-.28v1A14.45,14.45,0,0,1,272.66,148.71Zm.18-4.49c-1,0-1.44.43-1.52,1.21h3.05C274.31,144.59,273.89,144.22,272.84,144.22Z"/><path class="cls-2" d="M280.92,148.59v-2.85c0-.92-.42-1.25-1.17-1.25a6.9,6.9,0,0,0-1.86.31v3.79h-1.26v-5.15h1l0,.34a9.73,9.73,0,0,1,2.42-.49,1.66,1.66,0,0,1,.86.09,1.85,1.85,0,0,1,.71.46,1.91,1.91,0,0,1,.42.73,1.78,1.78,0,0,1,.06.86v3.14Z"/><path class="cls-2" d="M285.54,148.71a1.47,1.47,0,0,1-.83-.14,1.64,1.64,0,0,1-.65-.57,3.14,3.14,0,0,1-.34-1.57v-1.9h-.92v-1.09h.92l.15-1.55H285v1.55h1.78v1.07H285v1.65a2.56,2.56,0,0,0,.12,1,.67.67,0,0,0,.34.38.74.74,0,0,0,.48.1,4.43,4.43,0,0,0,.9-.1v1A6.27,6.27,0,0,1,285.54,148.71Z"/><path class="cls-2" d="M287.74,148.59v-5.15h1l.05.34a7.49,7.49,0,0,1,2.23-.49h.17v1.26h-.44a5.74,5.74,0,0,0-1.78.27v3.79Z"/><path class="cls-2" d="M295.9,148.59l0-.32a9.94,9.94,0,0,1-2.47.44,2.11,2.11,0,0,1-1.36-.35,1.45,1.45,0,0,1-.4-.57,1.51,1.51,0,0,1-.1-.69,1.53,1.53,0,0,1,.16-.81,1.61,1.61,0,0,1,.59-.57,3.67,3.67,0,0,1,1.69-.27c.48,0,1.11,0,1.66.06v-.08c0-.82-.49-1.07-1.76-1.07a13.88,13.88,0,0,0-1.65.09v-1c.62-.06,1.36-.1,1.94-.1a3.39,3.39,0,0,1,2.11.48,2,2,0,0,1,.61,1.75v3Zm-.27-2.16a14.77,14.77,0,0,0-1.64-.08c-.94,0-1.25.21-1.25.69s.27.69,1,.69a7.78,7.78,0,0,0,1.91-.31Z"/><path class="cls-2" d="M298.14,148.59v-7.3h1.27v7.3Z"/></g></g></g></svg>