<svg xmlns="http://www.w3.org/2000/svg" viewBox="0 0 363.73 228.63"><defs><style>.cls-1{fill:#f7f7f7;}.cls-2{fill:#2a3375;}.cls-3{fill:#40b398;}.cls-4{fill:#fff;}</style></defs><g id="Camada_2" data-name="Camada 2"><g id="Camada_1-2" data-name="Camada 1"><rect class="cls-1" width="363.73" height="228.63" rx="42.24"/><path class="cls-2" d="M148.21,113c.15-16.49-20.21-30.12-45.49-30.36s-45.89,13-46,29.51l0,1.75c-.18,17.5,17.62,31.83,45.47,32.09,28,.27,45.91-13.73,46.07-31.23,0-.61,0-1,0-1.76"/><path class="cls-3" d="M146.46,113c-.15,15.54-20,28-44.27,27.74s-43.88-13-43.75-28.57,20-28,44.26-27.75,43.9,13,43.76,28.58"/><path class="cls-4" d="M87.92,103.54s-.46.5-.19.87c.7.88,2.83,1.41,5,1,1.3-.28,3-1.58,4.58-2.83a17.93,17.93,0,0,1,5.24-3.27,5.92,5.92,0,0,1,3.78-.07,11.74,11.74,0,0,1,3.43,2c3,2.3,15,13,17.08,14.83a104.06,104.06,0,0,1,19.41-6c-.84-5.44-4.08-10.43-9.05-14.54-7,2.87-15.55,4.31-23.85.17a23,23,0,0,0-9-2.14c-6.61.1-9.51,2.93-12.56,5.94Z"/><path class="cls-4" d="M126.33,117.21c-.13-.13-14.12-12.6-17.29-15a7.78,7.78,0,0,0-3.94-1.92,5.43,5.43,0,0,0-1.88.16,17.1,17.1,0,0,0-5.17,3c-1.81,1.41-3.51,2.73-5.07,3.07a8.13,8.13,0,0,1-5.53-.88,2.29,2.29,0,0,1-.91-1,1.69,1.69,0,0,1,.49-1.83L91,98.61l1.4-1.34a27.09,27.09,0,0,0-3.57.77,15.76,15.76,0,0,1-4.14.73,36.59,36.59,0,0,1-4.21-.7,62.89,62.89,0,0,1-11.19-4.16c-5.57,4.07-9.31,9.18-10.43,14.84.79.22,2.07.61,2.61.74,12.49,2.89,16.35,5.8,17.06,6.4a4.14,4.14,0,0,1,5.84-.3,4.27,4.27,0,0,1,.65.75,4.69,4.69,0,0,1,3-1,6.06,6.06,0,0,1,1.79.33,4.16,4.16,0,0,1,2.5,2.3,4.31,4.31,0,0,1,1.74-.35,5.41,5.41,0,0,1,2.09.48c2.3,1,2.64,3.28,2.41,5a3.84,3.84,0,0,1,.5,0,5,5,0,0,1,4.29,7.35,7.81,7.81,0,0,0,4.3,1.19,2.74,2.74,0,0,0,2-.85c.13-.18.26-.39.15-.53l-3.5-4s-.58-.55-.39-.76.56.1.81.31q2.07,1.81,4,3.8s.18.32,1,.47a3.66,3.66,0,0,0,2.8-.62,4.48,4.48,0,0,0,.61-.62s0,0,0,0a1.87,1.87,0,0,0-.08-2.32l-4.08-4.68s-.59-.55-.39-.77.55.11.81.33c1.31,1.1,3.13,3,4.88,4.71a3.36,3.36,0,0,0,4-.1,2.59,2.59,0,0,0,.62-4.29L115.14,116s-.58-.51-.37-.76.55.1.81.31c1.78,1.52,6.59,6,6.59,6a3.42,3.42,0,0,0,3.82,0,2.6,2.6,0,0,0,1.28-2,3,3,0,0,0-.94-2.31"/><path class="cls-4" d="M99,124.13a13.26,13.26,0,0,0-2,.41c-.06,0,.06-.39.14-.6s1.28-3.64-1.51-4.87a3.3,3.3,0,0,0-3.92.55c-.13.11-.17.11-.19-.05a3.06,3.06,0,0,0-2.14-2.89,4.24,4.24,0,0,0-4.8,1.65,3,3,0,0,0-3-2.71,3.07,3.07,0,0,0-.32,6.14h.25a3,3,0,0,0,2.13-.83s0,0,0,.1a4.06,4.06,0,0,0,2.48,4.67,3,3,0,0,0,3-.43c.25-.17.29-.1.25.13-.1.71,0,2.23,2.14,3.12a2.74,2.74,0,0,0,3.21-.57c.27-.25.34-.21.37.17a3.86,3.86,0,1,0,3.9-4"/><path class="cls-2" d="M126.88,115.74c-4.29-3.83-14.24-12.66-16.95-14.72a11.68,11.68,0,0,0-3.53-2.09,5.37,5.37,0,0,0-1.73-.29,7.54,7.54,0,0,0-2.21.36,18,18,0,0,0-5.23,3.23l-.09.08c-1.58,1.23-3.23,2.51-4.47,2.78a7.45,7.45,0,0,1-1.63.16,4.16,4.16,0,0,1-3.09-1c-.07-.09,0-.25.16-.48l0,0L92,99.64c3-3,5.87-5.77,12.38-5.85.1,0,.22,0,.32,0a22.85,22.85,0,0,1,8.53,2.11,26.5,26.5,0,0,0,11.63,2.89,30.33,30.33,0,0,0,12.82-2.94c-.49-.43-1-.84-1.53-1.24a28.19,28.19,0,0,1-11.25,2.45A24.81,24.81,0,0,1,114,94.33,24.68,24.68,0,0,0,104.72,92h-.37a16.11,16.11,0,0,0-10.64,3.67,21.31,21.31,0,0,0-5.31.92,14.35,14.35,0,0,1-3.73.68c-.49,0-1.34-.06-1.42-.06-1.33,0-8-1.77-13.37-3.84-.55.38-1.09.77-1.6,1.18,5.56,2.34,12.35,4.18,14.49,4.34.61,0,1.24.11,1.87.13a16.28,16.28,0,0,0,4.23-.75c.81-.22,1.7-.46,2.64-.63l-.75.74-3.91,4.17a1.92,1.92,0,0,0-.56,2.14,2.71,2.71,0,0,0,1,1.14A8.21,8.21,0,0,0,91.41,107a8.53,8.53,0,0,0,1.64-.16c1.63-.35,3.35-1.69,5.17-3.11a16.78,16.78,0,0,1,5.09-3,5.6,5.6,0,0,1,1.4-.18,2.05,2.05,0,0,1,.37,0,7.42,7.42,0,0,1,3.8,1.86c3.17,2.42,17.15,14.88,17.29,15a2.75,2.75,0,0,1,.82,2.09,2.24,2.24,0,0,1-1.14,1.78,3.51,3.51,0,0,1-1.86.57,3.09,3.09,0,0,1-1.62-.49c-.06,0-4.84-4.52-6.61-6a1.43,1.43,0,0,0-.83-.46.45.45,0,0,0-.37.17c-.29.35,0,.82.39,1.14l5.58,5.72a2.73,2.73,0,0,1,.78,1.54,2.58,2.58,0,0,1-1.37,2.32,3.61,3.61,0,0,1-2,.64,2.83,2.83,0,0,1-1.6-.5l-.8-.8c-1.46-1.48-3-3-4.09-3.93a1.5,1.5,0,0,0-.83-.45.51.51,0,0,0-.37.15c-.12.14-.21.39.1.82.09.11.18.22.28.32l4.08,4.66a1.59,1.59,0,0,1,.07,2l-.14.18a4.73,4.73,0,0,1-.4.37,3.29,3.29,0,0,1-2,.62,2.51,2.51,0,0,1-.55-.06,1.34,1.34,0,0,1-.82-.35l0,0c-1.27-1.33-2.6-2.61-4-3.82a1.45,1.45,0,0,0-.79-.43.47.47,0,0,0-.38.16c-.34.37.16.93.38,1.14l3.47,3.9a.84.84,0,0,1-.14.24c-.12.17-.55.59-1.83.74a3.54,3.54,0,0,1-.46,0,7.94,7.94,0,0,1-3.43-1A5.24,5.24,0,0,0,99,122.76h-.18a4.64,4.64,0,0,0-2.62-4.94,5.31,5.31,0,0,0-2.18-.5,4.45,4.45,0,0,0-1.62.27,4.32,4.32,0,0,0-2.54-2.2A5.49,5.49,0,0,0,88,115,5.06,5.06,0,0,0,85,116a4.41,4.41,0,0,0-6.56-.43c-1.08-.85-5.4-3.65-17-6.39q-1.33-.34-2.64-.75c-.14.63-.24,1.27-.32,1.9l2.57.64c11.83,2.74,15.72,5.51,16.37,6a4.54,4.54,0,0,0-.35,1.71,4.45,4.45,0,0,0,4.37,4.49,4.76,4.76,0,0,0,.84-.07,5.14,5.14,0,0,0,3.31,3.9,4.29,4.29,0,0,0,1.58.32,4.88,4.88,0,0,0,1-.11,4.71,4.71,0,0,0,2.74,2.6,4.54,4.54,0,0,0,1.74.37,4,4,0,0,0,1.36-.22,5.22,5.22,0,0,0,6.78,2.93,5.29,5.29,0,0,0,1.8-1.19,9.73,9.73,0,0,0,4.42,1.36,4.93,4.93,0,0,0,.67,0,4.07,4.07,0,0,0,3-1.45,2.9,2.9,0,0,0,.19-.29,5,5,0,0,0,1.42.23,4.82,4.82,0,0,0,2.88-1,3.86,3.86,0,0,0,1.7-2.44.05.05,0,0,0,0,0,5,5,0,0,0,1,.12,5.37,5.37,0,0,0,3-.91,4.24,4.24,0,0,0,2.14-3.77,4.6,4.6,0,0,0,1,.11,5.14,5.14,0,0,0,2.76-.82,4,4,0,0,0,1.95-3.1,4.34,4.34,0,0,0-.58-2.54,114.19,114.19,0,0,1,18.33-5.54c0-.64-.13-1.27-.24-1.9a105,105,0,0,0-19.33,6.07m-28,15.84a3.56,3.56,0,0,1-3.54-3.46c0-.16,0-.59-.39-.61a.68.68,0,0,0-.44.23,2.49,2.49,0,0,1-1.77.78,2.93,2.93,0,0,1-1.14-.26c-2-.85-2.07-2.25-2-2.82a.54.54,0,0,0-.07-.43l-.12-.11h-.13A.67.67,0,0,0,89,125a3,3,0,0,1-1.74.6,2.51,2.51,0,0,1-1-.2,3.74,3.74,0,0,1-2.3-4.37.34.34,0,0,0-.12-.35l-.19-.16-.18.17a2.76,2.76,0,0,1-1.93.76,2.8,2.8,0,1,1,2.79-3.12l.08.75.42-.64a4.12,4.12,0,0,1,3.27-1.75,4.4,4.4,0,0,1,1.21.21,2.84,2.84,0,0,1,1.95,2.65c0,.36.29.38.33.38a.48.48,0,0,0,.34-.16A2.84,2.84,0,0,1,94,119a3.84,3.84,0,0,1,1.54.37c2.61,1.15,1.38,4.47,1.37,4.51-.23.54-.25.79,0,.94l.11,0H97a2.65,2.65,0,0,0,.51-.18,4.63,4.63,0,0,1,1.41-.34,3.64,3.64,0,0,1-.07,7.27"/><path class="cls-3" d="M236.18,114.76s-5.22-.6-5.25,3.59l-.06,5.56a6.16,6.16,0,0,0-2.24-2.21,6.51,6.51,0,0,0-3.17-.82,7.56,7.56,0,0,0-6.23,2.84c-1.57,1.92-2.38,4.69-2.4,8.05a10.8,10.8,0,0,0,2.28,7.19c1.56,1.87,4.64,2.72,7.38,2.74,9.55.09,9.51-8.09,9.51-8.09Zm-6.42,21.13a3.78,3.78,0,0,1-3.34,1.6,3.68,3.68,0,0,1-3.25-1.67,8.38,8.38,0,0,1-1-4.51,8,8,0,0,1,1.09-4.22,3.61,3.61,0,0,1,3.34-1.68,3.9,3.9,0,0,1,2.59,1c1.21,1,1.79,2.92,1.77,5.33a7.07,7.07,0,0,1-1.18,4.19m48-11.39q-2.46-3.15-7.54-3.2c-3.37,0-5.92,1-7.6,3a11.55,11.55,0,0,0-2.56,7.36,11.42,11.42,0,0,0,2.42,7.44q2.47,3.1,7.55,3.15c3.39,0,5.92-1,7.6-3a12.22,12.22,0,0,0,.13-14.8m-4.22,11.91a4.55,4.55,0,0,1-6.95-.07,7.43,7.43,0,0,1-1.18-4.58,7.34,7.34,0,0,1,1.26-4.54,4.58,4.58,0,0,1,6.95.07,9.2,9.2,0,0,1-.08,9.12m-101.82-11.6a3.35,3.35,0,0,1,2.84,1.23,4.4,4.4,0,0,1,.76,2l5.56.05q-.42-4.2-2.89-5.9a11.34,11.34,0,0,0-6.38-1.73,9.34,9.34,0,0,0-7.23,2.76q-2.64,2.79-2.69,7.86a10.93,10.93,0,0,0,2.3,7.34c1.56,1.89,4,2.85,7.35,2.89s5.88-1.08,7.6-3.31a8.43,8.43,0,0,0,1.84-4.43l-5.54-.06a4.64,4.64,0,0,1-1,2.53,3.3,3.3,0,0,1-2.71.95,3.64,3.64,0,0,1-3.65-2.49,9.46,9.46,0,0,1-.5-3.48,10.47,10.47,0,0,1,.57-3.64,3.75,3.75,0,0,1,3.78-2.56m21.91-3.92c-11.43-.11-10.85,10-10.85,10l-.1,10.27,5.18,0,.1-9.64a7.87,7.87,0,0,1,.62-3.5c.73-1.34,2.12-2,4.2-2l.62,0,.86.08.05-5.28a3.15,3.15,0,0,1-.44,0h-.24m15,14.92a3.61,3.61,0,0,1-.72.78,4.38,4.38,0,0,1-2.9.75,4.89,4.89,0,0,1-2.76-.68,4.69,4.69,0,0,1-2.06-4.14l14.35.13a25.46,25.46,0,0,0-.13-3.91,9.69,9.69,0,0,0-1.53-4.08,8,8,0,0,0-3.38-3,11.38,11.38,0,0,0-4.62-1,9.49,9.49,0,0,0-7.07,2.67c-1.83,1.8-2.76,4.4-2.79,7.82,0,3.64.94,6.28,2.93,7.92a10.8,10.8,0,0,0,6.91,2.49,9.63,9.63,0,0,0,7.45-2.81,7,7,0,0,0,1.82-3Zm-6.88-9.72a4.13,4.13,0,0,1,3.09-1.1,4.56,4.56,0,0,1,3.05,1.1,4.28,4.28,0,0,1,1.34,3.12l-8.87-.09a5.35,5.35,0,0,1,1.39-3M240.28,115l5.21,0-.05,5.16-5.21,0Zm5,26.65-5.22,0,.18-19.7,5.22,0Zm10.59-16.79h-.56l-.1,11.57c0,.87.49,1.35,1.52,1.36h1.62l0,4a28.75,28.75,0,0,1-5.53-.1c-2-.21-2.91-1.45-2.84-3.78l.2-22.82,2.73,0a2.64,2.64,0,0,1,2.5,2.66l0,3.33,3.16,0v1.15a2.55,2.55,0,0,1-2.51,2.58h-.12M207.3,119l-4.51,0,1.19-3.74,4.51,0Z"/><path class="cls-2" d="M304.66,94.45c-1.64-2.11-4.15-3.17-7.54-3.21s-5.92,1-7.6,3.06a12.23,12.23,0,0,0-.14,14.79c1.65,2.07,4.16,3.12,7.55,3.15s5.91-1,7.6-3a12.25,12.25,0,0,0,.13-14.79m-4.23,11.9a4.54,4.54,0,0,1-6.94-.06,9.15,9.15,0,0,1,.08-9.13,4.57,4.57,0,0,1,6.94.07,9.2,9.2,0,0,1-.08,9.12m-38.24-14A12.66,12.66,0,0,0,256.41,91q-5,0-7.09,2.55a7.65,7.65,0,0,0-1.5,4.24l5,0a3.8,3.8,0,0,1,.75-1.81,3.3,3.3,0,0,1,2.64-.87,5.19,5.19,0,0,1,2.5.49,1.73,1.73,0,0,1,.85,1.68,1.59,1.59,0,0,1-1.13,1.46,9.09,9.09,0,0,1-2.08.43l-1.77.2a12.74,12.74,0,0,0-4.57,1.23,5.63,5.63,0,0,0-2.89,5.25,5.47,5.47,0,0,0,1.72,4.35,7.09,7.09,0,0,0,4.45,1.58c11.27.61,11.21-5.84,11.32-7.18l.07-7.42q0-3.59-2.49-4.89m-2.71,11.24c-.06,1.72-.56,2.91-1.52,3.55a5.38,5.38,0,0,1-3.13,1,2.8,2.8,0,0,1-1.8-.61,2.28,2.28,0,0,1-.73-1.93,2.34,2.34,0,0,1,1.23-2.17,7.52,7.52,0,0,1,2.39-.69l1.18-.2a8.67,8.67,0,0,0,1.39-.35,4.64,4.64,0,0,0,1-.49Zm-23-8.34a3.37,3.37,0,0,1,2.84,1.21,4.4,4.4,0,0,1,.76,2l5.57,0q-.42-4.21-2.9-5.9a11.24,11.24,0,0,0-6.38-1.73,9.34,9.34,0,0,0-7.23,2.75q-2.64,2.81-2.69,7.87a11,11,0,0,0,2.3,7.33c1.56,1.9,4,2.86,7.35,2.89s5.88-1.06,7.61-3.3a8.4,8.4,0,0,0,1.83-4.43l-5.54-.06a4.75,4.75,0,0,1-1,2.52,3.29,3.29,0,0,1-2.71.95,3.6,3.6,0,0,1-3.65-2.49,9.17,9.17,0,0,1-.51-3.48,10.45,10.45,0,0,1,.57-3.63,3.72,3.72,0,0,1,3.78-2.55M225,90.73c-11.42-.11-10.84,10-10.84,10l-.1,10.27,5.19.06.08-9.65a8.06,8.06,0,0,1,.63-3.5c.73-1.34,2.12-2,4.2-2l.62,0,.86.08.05-5.28-.44,0H225m-19.19,14.85a3.72,3.72,0,0,1-.71.77,4.43,4.43,0,0,1-2.91.76,4.91,4.91,0,0,1-2.75-.68,4.7,4.7,0,0,1-2.07-4.14l14.35.13a25.21,25.21,0,0,0-.14-3.91,9.6,9.6,0,0,0-1.53-4.09,8.09,8.09,0,0,0-3.37-3,11.41,11.41,0,0,0-4.62-1A9.5,9.5,0,0,0,195,93.17q-2.74,2.7-2.8,7.82,0,5.48,2.94,7.92a10.75,10.75,0,0,0,6.91,2.49,9.53,9.53,0,0,0,7.44-2.81,6.93,6.93,0,0,0,1.83-3ZM199,95.86a4,4,0,0,1,3.08-1.1,4.54,4.54,0,0,1,3,1.09A4.24,4.24,0,0,1,206.42,99l-8.87-.08a5.31,5.31,0,0,1,1.41-3M190,110.8l-4.74,0,.12-11.93c0-1.09-.32-3.68-3.45-3.71a3.49,3.49,0,0,0-3.63,3.65l-.11,11.92-4.74,0,.11-11.93c0-1.09-.28-3.68-3.41-3.7a3.46,3.46,0,0,0-3.63,3.64l-.11,11.93-4.73,0,.1-11.81c.05-4.93,3.36-8.62,8.41-8.57A7.31,7.31,0,0,1,176.1,93a7.61,7.61,0,0,1,5.91-2.7c5.18.06,8.19,3.65,8.14,8.73Zm95.53-25.73s-5.22-.61-5.26,3.59l-.06,5.55A6.16,6.16,0,0,0,278,92a6.45,6.45,0,0,0-3.18-.83A7.59,7.59,0,0,0,268.61,94c-1.57,1.91-2.36,4.69-2.4,8a10.71,10.71,0,0,0,2.3,7.19c1.55,1.87,4.63,2.72,7.37,2.75,9.54.08,9.51-8.11,9.51-8.11Zm-6.42,21.12a3.77,3.77,0,0,1-3.34,1.6,3.62,3.62,0,0,1-3.24-1.66,8.37,8.37,0,0,1-1-4.51,7.93,7.93,0,0,1,1.1-4.23A3.61,3.61,0,0,1,276,95.71a4.09,4.09,0,0,1,2.61,1c1.2,1,1.79,2.92,1.76,5.33a7.19,7.19,0,0,1-1.17,4.19"/></g></g></svg>