<svg xmlns="http://www.w3.org/2000/svg" viewBox="0 0 363.73 228.63"><defs><style>.cls-1{fill:#f7f7f7;}.cls-2{fill:#f29100;}.cls-2,.cls-3{fill-rule:evenodd;}.cls-3{fill:#005ca9;}.cls-4{fill:#7a8899;}</style></defs><g id="Camada_2" data-name="Camada 2"><g id="Camada_1-2" data-name="Camada 1"><rect class="cls-1" width="363.73" height="228.63" rx="42.24"/><path class="cls-2" d="M182.68,120.78H199l17.84-17.85H200.52Zm37.5-37.51-7.06,7.06,5.5,10.79,17.84-17.85Z"/><path class="cls-3" d="M174.47,83.27h13.62l-6,37.51H168.52Zm-24.23,24-.67-6.88c-.16-1.62-.08-4.06,0-5.8H149l-4.67,12.68ZM139,120.78h-14.4l19-37.51h15.07l7.46,37.51H151.62l-.52-4.68H140.8Zm54.28-37.52h16.28l9.1,17.86H202.34Zm58.85,24-.67-6.88c-.15-1.62-.08-4.06,0-5.8h-.56l-4.67,12.68Zm-11.28,13.56h-14.4l19-37.51h15.07l7.46,37.51H253.47L253,116.1h-10.3ZM126.65,98.46c-1.84-2-4.32-3.78-7.39-3.78a9,9,0,0,0-8.58,7.31,6.23,6.23,0,0,0,6.46,7.31,12.81,12.81,0,0,0,8.37-3.47l-2.63,14a28.9,28.9,0,0,1-8.1,1.42h-3.39c-9.81-.77-16.1-8.77-14.49-18.93,1.73-11,11.7-19.71,22.68-19.72h.18a26.86,26.86,0,0,1,8.76,1.53ZM206,113.71l10.78-10.78,9.1,17.85H209.62Z"/><path class="cls-4" d="M102.22,146a5.55,5.55,0,0,0,4.81-2.61l-1.57-.83a3.85,3.85,0,0,1-3.24,1.79,4.73,4.73,0,0,1,0-9.44,3.87,3.87,0,0,1,3.24,1.79l1.57-.83a5.52,5.52,0,0,0-4.81-2.6,6.37,6.37,0,1,0,0,12.73Zm9.26-.23,1-2.54h5.88l1,2.55h2.11l-4.89-12.31h-2.31l-4.89,12.31h2.11Zm6.34-4.18H113l2.39-6.24,2.42,6.24Zm8.8,4.18V141h2.31l2.93,4.74H134l-3.16-4.93a3.43,3.43,0,0,0,3.07-3.59,3.67,3.67,0,0,0-3.95-3.78h-5.19v12.3h1.85Zm3.1-6.36h-3.1v-4.32h3.1a2.16,2.16,0,1,1,0,4.32Zm13,6.37V135.09h3.8v-1.62H137v1.62h3.82v10.69Zm12.19-13.3c1.2,0,1.84-1,1.84-2.48h-.94c0,1-.37,1.46-.83,1.46s-.59-.31-.85-.66a1.61,1.61,0,0,0-1.38-.91c-1.19,0-1.84,1-1.84,2.47h.94c0-1,.39-1.45.85-1.45s.57.31.83.66a1.64,1.64,0,0,0,1.38.91Zm-5,13.3,1-2.55h5.88l1,2.55h2.1L155,133.47h-2.31l-4.89,12.3h2.11Zm6.34-4.19h-4.82l2.4-6.24Zm12,4.41a6.37,6.37,0,1,0-6.2-6.37,6.05,6.05,0,0,0,6.2,6.37Zm0-1.64c-2.63,0-4.3-2-4.3-4.73s1.67-4.72,4.3-4.72,4.3,2,4.3,4.72S170.78,144.36,168.18,144.36Zm22.8,1.42,4.89-12.31h-2.1l-4,10.3-3.93-10.3h-2.1l4.89,12.31Zm10.06,0V133.47h-1.85v12.3H201Zm6.44,0V141h2.3l2.94,4.75h2.14l-3.16-4.93a3.43,3.43,0,0,0,3.06-3.6,3.67,3.67,0,0,0-3.94-3.78h-5.19v12.31Zm3.09-6.37h-3.09v-4.32h3.09a2.16,2.16,0,1,1,0,4.32Zm13,6.37V135.09h3.8v-1.62h-9.46v1.62h3.82v10.69Zm12.75.22c3.45,0,5.17-2,5.17-5.06v-7.47h-1.87v7.44c0,2.1-1.14,3.45-3.3,3.45a3.1,3.1,0,0,1-3.32-3.45v-7.44h-1.86V141c0,3,1.73,5,5.18,5Zm10.07-.23,1-2.54h5.88l1,2.55h2.1l-4.88-12.31h-2.31l-4.89,12.31h2.1Zm6.35-4.18H247.9l2.39-6.24,2.42,6.24Zm14.39,4.18v-1.62h-5.59V133.47h-1.85v12.31h7.44Z"/></g></g></svg>