<svg xmlns="http://www.w3.org/2000/svg" viewBox="0 0 363.73 228.63"><defs><style>.cls-1{fill:#f7f7f7;}.cls-2{fill:#009ee3;}.cls-2,.cls-3,.cls-4{fill-rule:evenodd;}.cls-3{fill:#113984;}.cls-4{fill:#172c70;}</style></defs><g id="Camada_2" data-name="Camada 2"><g id="Camada_1-2" data-name="Camada 1"><rect class="cls-1" width="363.73" height="228.63" rx="42.24"/><path class="cls-2" d="M73.92,97.55H91.8c9.6,0,13.21,4.86,12.65,12-.92,11.78-8,18.3-17.49,18.3H82.19c-1.3,0-2.17.85-2.52,3.18l-2,13.52c-.13.87-.59,1.38-1.28,1.45H65.13c-1.06,0-1.44-.81-1.16-2.56l6.85-43.33c.27-1.73,1.21-2.56,3.11-2.56Z"/><path class="cls-3" d="M151.52,96.75c6,0,11.59,3.27,10.83,11.42-.92,9.69-6.12,15-14.3,15.07h-7.16c-1,0-1.53.84-1.79,2.56l-1.39,8.8c-.2,1.33-.89,2-1.89,2h-6.66c-1.06,0-1.43-.69-1.2-2.2l5.5-35.26c.27-1.74.92-2.38,2.1-2.38Zm-10.85,18.88h5.42c3.39-.13,5.64-2.48,5.87-6.72a4.1,4.1,0,0,0-4.44-4.47l-5.1,0-1.74,11.17Zm39.78,18.25c.6-.55,1.22-.84,1.14-.15l-.22,1.63c-.11.86.22,1.31,1,1.31h5.91c1,0,1.48-.41,1.73-1.95l3.64-22.87c.19-1.14-.09-1.71-1-1.71h-6.51c-.58,0-.87.33-1,1.22l-.24,1.41c-.12.73-.46.86-.77.12-1.1-2.61-3.92-3.78-7.84-3.69-9.13.19-15.28,7.12-15.94,16-.5,6.86,4.41,12.25,10.9,12.25,4.71,0,6.81-1.39,9.18-3.55l0,0Zm-5-3.52a5.94,5.94,0,0,1-6.1-7,8.51,8.51,0,0,1,8.17-7,6,6,0,0,1,6.1,7A8.48,8.48,0,0,1,175.49,130.36Zm29.76-20.3h-6c-1.24,0-1.74.93-1.35,2.06l7.44,21.81-7.29,10.37c-.62.87-.14,1.66.72,1.66h6.74a2.06,2.06,0,0,0,2-1l22.9-32.85c.71-1,.37-2.07-.78-2.07h-6.39c-1.09,0-1.52.43-2.15,1.34l-9.55,13.84-4.27-13.87a1.83,1.83,0,0,0-2-1.31Z"/><path class="cls-2" d="M254.24,96.75c6,0,11.59,3.27,10.83,11.42-.93,9.69-6.12,15-14.3,15.07h-7.16c-1,0-1.52.84-1.79,2.56l-1.38,8.8c-.21,1.33-.9,2-1.9,2h-6.66c-1.06,0-1.43-.69-1.19-2.2l5.5-35.27c.27-1.74.93-2.38,2.11-2.38h15.94Zm-10.85,18.88h5.42c3.4-.13,5.65-2.48,5.87-6.72a4.1,4.1,0,0,0-4.44-4.47l-5.1,0Zm39.78,18.25c.6-.55,1.23-.84,1.13-.15l-.21,1.63c-.11.86.22,1.31,1,1.31H291c1,0,1.49-.41,1.73-1.95l3.64-22.87c.19-1.14-.1-1.71-1-1.71h-6.49c-.59,0-.87.33-1,1.22l-.24,1.41c-.12.73-.46.86-.77.12-1.1-2.61-3.92-3.78-7.84-3.69-9.13.19-15.27,7.12-15.94,16-.5,6.86,4.41,12.25,10.9,12.25,4.71,0,6.81-1.39,9.18-3.55Zm-4.95-3.52a5.94,5.94,0,0,1-6.1-7,8.49,8.49,0,0,1,8.17-7,6,6,0,0,1,6.09,7A8.47,8.47,0,0,1,278.22,130.36Zm27.28,6.34h-6.83a.81.81,0,0,1-.64-.26.83.83,0,0,1-.2-.66l6-38a1.18,1.18,0,0,1,1.14-.92h6.83a.78.78,0,0,1,.64.26.83.83,0,0,1,.2.66l-6,38a1.17,1.17,0,0,1-1.13.93Z"/><path class="cls-3" d="M62.75,82.64H80.64c5,0,11,.15,15,3.69A12.14,12.14,0,0,1,99.4,96.48c-1.1,13.66-9.27,21.31-20.23,21.31H70.35c-1.51,0-2.5,1-2.92,3.69L65,137.17c-.17,1-.61,1.61-1.39,1.69h-11c-1.22,0-1.65-.93-1.33-3l7.94-50.28C59.45,83.59,60.57,82.64,62.75,82.64Z"/><path class="cls-4" d="M67.68,119.89l3.13-19.78c.27-1.73,1.22-2.56,3.11-2.56H91.8A17.54,17.54,0,0,1,99,98.86c-1.8,12.16-9.67,18.91-20,18.91H70.26A2.62,2.62,0,0,0,67.68,119.89Z"/></g></g></svg>