<svg xmlns="http://www.w3.org/2000/svg" xmlns:xlink="http://www.w3.org/1999/xlink" viewBox="0 0 363.73 228.63"><defs><style>.cls-1{fill:#f7f7f7;}.cls-2,.cls-3,.cls-4,.cls-5{fill-rule:evenodd;}.cls-2{fill:url(#Gradiente_sem_nome_5);}.cls-3{fill:url(#Gradiente_sem_nome_2);}.cls-4{fill:url(#Gradiente_sem_nome_3);}.cls-5{fill:url(#Gradiente_sem_nome_4);}.cls-6{fill:#0bbbef;}.cls-7{fill:#ffd500;}.cls-8{fill:#06416a;}</style><linearGradient id="Gradiente_sem_nome_5" x1="-74.63" y1="-1026.72" x2="-101.12" y2="-1006.03" gradientTransform="translate(190.27 1686.7) scale(1.54)" gradientUnits="userSpaceOnUse"><stop offset="0" stop-color="#fd0"/><stop offset="0.9" stop-color="#d49f00"/><stop offset="1" stop-color="#fd0"/></linearGradient><linearGradient id="Gradiente_sem_nome_2" x1="-74.13" y1="-1005.59" x2="-93.38" y2="-1005.59" gradientTransform="translate(190.27 1686.7) scale(1.54)" gradientUnits="userSpaceOnUse"><stop offset="0" stop-color="#d49f00"/><stop offset="1" stop-color="#ab5808"/></linearGradient><linearGradient id="Gradiente_sem_nome_3" x1="-80.46" y1="-1011.71" x2="-53.96" y2="-1032.33" gradientTransform="translate(190.27 1686.7) scale(1.54)" gradientUnits="userSpaceOnUse"><stop offset="0" stop-color="#00537e"/><stop offset="0.9" stop-color="#18aae2"/><stop offset="1" stop-color="#107bc0"/></linearGradient><linearGradient id="Gradiente_sem_nome_4" x1="-64.31" y1="-1041.59" x2="-75.56" y2="-1032.8" gradientTransform="translate(190.27 1686.7) scale(1.54)" gradientUnits="userSpaceOnUse"><stop offset="0" stop-color="#002542"/><stop offset="1" stop-color="#004169"/></linearGradient></defs><g id="Camada_2" data-name="Camada 2"><g id="Camada_1-2" data-name="Camada 1"><rect class="cls-1" width="363.73" height="228.63" rx="42.24"/><path id="path11" class="cls-2" d="M49.33,145.94H46.55A7.14,7.14,0,0,1,41,143.22L27.82,126.31a2.55,2.55,0,0,1-.49-1.45,2.58,2.58,0,0,1,.49-1.46l13.26-17a7,7,0,0,1,5.56-2.72h29.3l-16.66,20.9L47.11,140Z"/><path id="path18" class="cls-3" d="M59.47,124.83l-.12-.22L47.11,140a4.22,4.22,0,0,0-.9,2.84c0,1.39,1.33,3.13,4,3.13H75.91Z"/><path id="path27" class="cls-4" d="M94.18,88.6l-2.23-6h2.79a7.11,7.11,0,0,1,5.56,2.72l13.26,16.93a2.41,2.41,0,0,1,0,2.91l-13.32,16.94a7,7,0,0,1-5.57,2.72H65.37L82,103.93Z"/><path id="path34" class="cls-5" d="M81.88,103.75,82,104,94.15,88.63a4.27,4.27,0,0,0,.9-2.84c0-1.39-1.33-3.12-4-3.12H65.34Z"/><path id="path36" class="cls-6" d="M94.86,88.32a3.39,3.39,0,0,0,.77-2.16,3.56,3.56,0,0,0-3.55-3.52h-.9a3.49,3.49,0,0,1,3.46,3.55,3.21,3.21,0,0,1-.77,2.16l-12,15.43-16.45,21Z"/><path id="path38" class="cls-7" d="M46.49,140.25a3.34,3.34,0,0,0-.77,2.16A3.57,3.57,0,0,0,49.27,146h.9a3.58,3.58,0,0,1-3.56-3.56,3.21,3.21,0,0,1,.78-2.16l12.08-15.42,16.44-21Z"/><path id="path40" class="cls-8" d="M223.9,112.34a14.44,14.44,0,0,0-4.36.62,9.71,9.71,0,0,0-5.13,3.55,10.54,10.54,0,0,0-2.07,6.12v23.18h6.18a.68.68,0,0,0,.68-.68v-22a4.09,4.09,0,0,1,.9-2.72,5,5,0,0,1,2.5-1.06,10.93,10.93,0,0,1,2.45,0h.12a1.22,1.22,0,0,0,1.05-.61l3.15-5.51a14.42,14.42,0,0,0-5.47-.89"/><path id="path42" class="cls-8" d="M205.7,112.34a14.16,14.16,0,0,0-4.36.62,9.63,9.63,0,0,0-5.13,3.55,10.45,10.45,0,0,0-2.07,6.12v23.18h6.18a.69.69,0,0,0,.68-.68v-22a4,4,0,0,1,.9-2.72,4.92,4.92,0,0,1,2.5-1.06,10.83,10.83,0,0,1,2.44,0H207a1.35,1.35,0,0,0,1.06-.61l3.27-5.57a16.86,16.86,0,0,0-5.59-.83"/><path id="path44" class="cls-8" d="M151.7,137.25a1.37,1.37,0,0,0-1-.49.87.87,0,0,0-.62.21,14.11,14.11,0,1,1-7.23-26.24,13.45,13.45,0,0,1,7.23,2,1.31,1.31,0,0,0,.68.22,1.54,1.54,0,0,0,1-.5l3.56-4.57A21.1,21.1,0,1,0,142.83,146a21.23,21.23,0,0,0,12.49-4.08Z"/><path id="path46" class="cls-8" d="M245.48,118.52a10.48,10.48,0,0,1,9.86,7.08H235.68a10.44,10.44,0,0,1,9.8-7.08m0-6.68a17,17,0,0,0,0,34H246a17.41,17.41,0,0,0,10.63-3.06l.62-.4s-3.46-4.51-3.55-4.57a1.34,1.34,0,0,0-1-.5,2,2,0,0,0-.62.13,15.2,15.2,0,0,1-6.58,1.66,10.41,10.41,0,0,1-9.8-6.86h26a.68.68,0,0,0,.68-.68l.07-1.94v-.78a17,17,0,0,0-17-17Z"/><path id="path48" class="cls-8" d="M267.2,145.94a.65.65,0,0,1-.68-.68V113.67a.69.69,0,0,1,.68-.68h5.48a.69.69,0,0,1,.68.68v31.59a.69.69,0,0,1-.68.68Z"/><path id="path50" class="cls-8" d="M173.58,118.4a10.26,10.26,0,1,0,10.26,10.26,10.24,10.24,0,0,0-10.26-10.26m0,27.54a17.22,17.22,0,1,1,17.22-17.22A17.2,17.2,0,0,1,173.58,145.94Z"/><path id="path52" class="cls-8" d="M293.94,118.67a10.17,10.17,0,1,0,10.2,10.2,10.21,10.21,0,0,0-10.2-10.2m0,27.2A17.06,17.06,0,1,1,311,128.81,17,17,0,0,1,293.94,145.87Z"/><path id="path54" class="cls-8" d="M330.38,126.22a26.42,26.42,0,0,0-4.36-1.33c-2.44-.62-4.73-.78-5.56-2.07a2.51,2.51,0,0,1,.68-3.4c2.44-1.67,5.69-1,7.51-.13.34.13,1.67.9,1.67.9a1.29,1.29,0,0,0,.62.22,1.39,1.39,0,0,0,1.05-.56l3.46-4.45-.56-.5a10.71,10.71,0,0,0-1.33-.83,17.65,17.65,0,0,0-8.68-2.35h-.4c-9.92.22-11.31,7.23-11.31,9.71a9,9,0,0,0,4.85,8.12c2.35,1.33,6.74,2.07,9,2.79a3.71,3.71,0,0,1,2.35,1.94,3.19,3.19,0,0,1,.22,1.12,3.34,3.34,0,0,1-2.57,3.4,9.92,9.92,0,0,1-8.53-2,2.71,2.71,0,0,0-.56-.41,1.12,1.12,0,0,0-.49-.06,1.39,1.39,0,0,0-1,.56c-.06.06-3.4,4.36-3.4,4.36s1.17,1,1.61,1.23a16.63,16.63,0,0,0,9.92,3.4h.12c9.58,0,11.81-6.8,11.81-10.54a10.1,10.1,0,0,0-6-9.11"/></g></g></svg>