<svg xmlns="http://www.w3.org/2000/svg" viewBox="0 0 363.73 228.63"><defs><style>.cls-1{fill:#f7f7f7;}.cls-2{fill:#004184;}.cls-3{fill:#fede04;}</style></defs><g id="Camada_2" data-name="Camada 2"><g id="Camada_1-2" data-name="Camada 1"><rect class="cls-1" width="363.73" height="228.63" rx="42.24"/><path class="cls-2" d="M54.83,82.64H322.22c-.19,1-.37,2-.56,2.94q-1.86,10.07-3.72,20.13-1.89,10.29-3.81,20.56-1.78,9.63-3.56,19.27c-.06.34-.16.46-.54.46H41.52v-.16a2.18,2.18,0,0,0,.16-.62l4-19.2L50,105.67q2.15-10.19,4.29-20.37A24.49,24.49,0,0,0,54.83,82.64Zm108.36,56.07c2.92,0,5.85,0,8.78,0a38.21,38.21,0,0,0,6.59-.42,30.8,30.8,0,0,0,6.38-1.48,25.37,25.37,0,0,0,14.23-13.67A42.4,42.4,0,0,0,202.53,110a26.53,26.53,0,0,0-.38-8.57,13.51,13.51,0,0,0-8.52-10.11,22.89,22.89,0,0,0-8.39-1.46c-4.16,0-8.32,0-12.47,0H160.9c-.3,0-.41.08-.47.38-.16.87-.36,1.72-.54,2.58q-2.26,10.73-4.52,21.44-2.55,12-5.1,24.09c-.08.39,0,.42.37.42C154.82,138.7,159,138.71,163.19,138.71Zm-39.47,0c6.95,0,13.9,0,20.85,0,.36,0,.5-.09.57-.45.69-3.4,1.41-6.79,2.12-10.18.1-.5.11-.5-.4-.5H120.92c-.48,0-.48,0-.38-.48.61-2.88,1.23-5.76,1.82-8.64.07-.37.2-.48.59-.48l23.37,0c.32,0,.45-.07.53-.41.63-3.07,1.29-6.13,2-9.19.08-.36,0-.42-.36-.41-1.72,0-3.44,0-5.17,0H125c-.31,0-.4,0-.32-.39q.73-3.44,1.43-6.89c.08-.4.21-.52.63-.52l25.26,0c.29,0,.45,0,.52-.37.66-3.18,1.35-6.36,2-9.54.11-.5.11-.5-.42-.5H113.38c-.42,0-.56.11-.64.51q-1.81,8.57-3.64,17.12-3.28,15.41-6.56,30.81c-.1.46-.1.46.38.46Zm98.79.09h21c.21,0,.33,0,.38-.28q1.09-5.26,2.2-10.53c.05-.23,0-.32-.22-.3H219.69c-.49,0-.5.06-.39-.47.62-2.91,1.24-5.81,1.84-8.72.06-.33.17-.42.51-.42h23.41c.33,0,.48-.06.56-.42.62-3,1.28-6.07,1.92-9.11.1-.48.1-.48-.39-.48H223.78c-.28,0-.44,0-.36-.37.5-2.33,1-4.66,1.46-7,.06-.32.18-.41.51-.41h17.72c2.54,0,5.08,0,7.62,0,.34,0,.47-.07.55-.43.66-3.19,1.35-6.38,2-9.57.07-.3.08-.43-.31-.43q-20.5,0-41,0c-.3,0-.4.08-.46.38q-2.49,11.73-5,23.45-2.62,12.32-5.26,24.63c-.09.39,0,.44.38.44ZM96.68,104h0l7.16-.39c.23,0,.31-.07.33-.32a17.67,17.67,0,0,0-.18-4.42,10,10,0,0,0-5.66-7.71A22.5,22.5,0,0,0,90,89.05a49,49,0,0,0-11.35.39,22.9,22.9,0,0,0-10.6,4.34,16,16,0,0,0-6.23,9.4,9.93,9.93,0,0,0,4.72,11.23,28.92,28.92,0,0,0,7.72,3.23c2.32.68,4.7,1.1,7,1.84a11.51,11.51,0,0,1,3.28,1.46,3.69,3.69,0,0,1,1.4,4,6.25,6.25,0,0,1-3.89,4.09,10.48,10.48,0,0,1-6.79.41,5.39,5.39,0,0,1-4.16-4.26A9.94,9.94,0,0,1,71,122c0-.35,0-.47-.43-.45-2.8.19-5.6.34-8.4.51l-5.93.37c-.18,0-.3,0-.33.26a16.24,16.24,0,0,0,.58,7.2,12.14,12.14,0,0,0,7.35,8,25.86,25.86,0,0,0,6.78,1.48,47.38,47.38,0,0,0,12.7-.33,24.43,24.43,0,0,0,9.55-3.6C97.65,132.2,101,128,102,122.09a12,12,0,0,0-.77-6.89,10.36,10.36,0,0,0-4.27-4.59,29.44,29.44,0,0,0-7.22-3c-2.94-.89-6-1.47-8.92-2.24a13.29,13.29,0,0,1-2.67-1,2.36,2.36,0,0,1-1.3-2.86,4,4,0,0,1,2.38-2.74,9.35,9.35,0,0,1,6.8-.4,4.2,4.2,0,0,1,3,3.13,7.62,7.62,0,0,1,.28,2.37c0,.36.08.45.44.42C92,104.2,94.36,104.08,96.68,104Zm184.05,1c-.06-.17-.1-.27-.14-.36L275.1,90.27a.44.44,0,0,0-.5-.36H258.16c-.11,0-.24,0-.36.06.06.12.11.24.16.36q5.32,11.26,10.66,22.54a.51.51,0,0,1-.08.66l-22.25,24.87c-.07.08-.17.13-.17.3h.43c5.4,0,10.8,0,16.2,0a1.35,1.35,0,0,0,1.14-.53q6.23-7.41,12.49-14.78c.09-.1.15-.25.32-.3s.09.2.13.29q3.17,7.48,6.33,15a.61.61,0,0,0,.68.43H300.4c.46,0,.46,0,.27-.4q-5.79-12.26-11.59-24.5a.49.49,0,0,1,.1-.65l20.16-23.08c.05-.07.15-.11.13-.24l-.19,0c-5.48,0-11,0-16.44,0a.53.53,0,0,0-.48.27l-8.91,11.33Z"/><path class="cls-3" d="M163.19,138.71c-4.19,0-8.37,0-12.55,0-.34,0-.45,0-.37-.42q2.56-12,5.1-24.09,2.26-10.72,4.52-21.44c.18-.86.38-1.71.54-2.58.06-.3.17-.38.47-.38h11.87c4.15,0,8.31,0,12.47,0a22.89,22.89,0,0,1,8.39,1.46,13.51,13.51,0,0,1,8.52,10.11,26.53,26.53,0,0,1,.38,8.57,42.4,42.4,0,0,1-3.36,13.15,25.37,25.37,0,0,1-14.23,13.67,30.8,30.8,0,0,1-6.38,1.48,38.21,38.21,0,0,1-6.59.42C169,138.69,166.11,138.71,163.19,138.71Zm8.32-11.12a39.39,39.39,0,0,0,4.48-.18,9.22,9.22,0,0,0,4.74-1.66,11.55,11.55,0,0,0,3.71-4.83,38.89,38.89,0,0,0,2.08-7.49,21.47,21.47,0,0,0,.4-6.64,5.58,5.58,0,0,0-3.94-5,13.53,13.53,0,0,0-3.93-.69c-1.55-.06-3.1-.06-4.65-.13-.41,0-.56.07-.64.49-.83,4-1.68,8.09-2.52,12.13q-1.44,6.87-2.87,13.73c-.06.27,0,.32.25.32Z"/><path class="cls-3" d="M123.72,138.71h-20.8c-.48,0-.48,0-.38-.46q3.28-15.4,6.56-30.81,1.83-8.55,3.64-17.12c.08-.4.22-.52.64-.51h40.73c.53,0,.53,0,.42.5-.67,3.18-1.36,6.36-2,9.54-.07.33-.23.37-.52.37l-25.26,0c-.42,0-.55.12-.63.52q-.69,3.45-1.43,6.89c-.08.35,0,.39.32.39h18.28c1.73,0,3.45,0,5.17,0,.34,0,.44,0,.36.41-.66,3.06-1.32,6.12-2,9.19-.08.34-.21.41-.53.41L123,118c-.39,0-.52.11-.59.48-.59,2.88-1.21,5.76-1.82,8.64-.1.48-.1.48.38.48h25.94c.51,0,.5,0,.4.5-.71,3.39-1.43,6.78-2.12,10.18-.07.36-.21.45-.57.45C137.62,138.7,130.67,138.71,123.72,138.71Z"/><path class="cls-3" d="M222.51,138.8H201.66c-.36,0-.47-.05-.38-.44q2.64-12.32,5.26-24.63,2.51-11.71,5-23.45c.06-.3.16-.38.46-.38q20.5,0,41,0c.39,0,.38.13.31.43-.69,3.19-1.38,6.38-2,9.57-.08.36-.21.43-.55.43-2.54,0-5.08,0-7.62,0H225.39c-.33,0-.45.09-.51.41-.48,2.34-1,4.67-1.46,7-.08.37.08.38.36.37h23.37c.49,0,.49,0,.39.48-.64,3-1.3,6.07-1.92,9.11-.08.36-.23.42-.56.42H221.65c-.34,0-.45.09-.51.42-.6,2.91-1.22,5.81-1.84,8.72-.11.53-.1.47.39.47h26.15c.25,0,.27.07.22.3q-1.11,5.26-2.2,10.53c-.05.24-.17.28-.38.28h-21Z"/><path class="cls-3" d="M96.68,104c-2.32.12-4.64.24-7,.38-.36,0-.45-.06-.44-.42a7.62,7.62,0,0,0-.28-2.37,4.2,4.2,0,0,0-3-3.13,9.35,9.35,0,0,0-6.8.4,4,4,0,0,0-2.38,2.74,2.36,2.36,0,0,0,1.3,2.86,13.29,13.29,0,0,0,2.67,1c3,.77,6,1.35,8.92,2.24a29.44,29.44,0,0,1,7.22,3,10.36,10.36,0,0,1,4.27,4.59,12,12,0,0,1,.77,6.89c-1,5.86-4.3,10.11-9.13,13.33a24.43,24.43,0,0,1-9.55,3.6,47.38,47.38,0,0,1-12.7.33,25.86,25.86,0,0,1-6.78-1.48,12.14,12.14,0,0,1-7.35-8,16.24,16.24,0,0,1-.58-7.2c0-.26.15-.25.33-.26l5.93-.37c2.8-.17,5.6-.32,8.4-.51.39,0,.46.1.43.45a9.94,9.94,0,0,0,.19,3.22,5.39,5.39,0,0,0,4.16,4.26,10.48,10.48,0,0,0,6.79-.41A6.25,6.25,0,0,0,86,125a3.69,3.69,0,0,0-1.4-4,11.51,11.51,0,0,0-3.28-1.46c-2.3-.74-4.68-1.16-7-1.84a28.92,28.92,0,0,1-7.72-3.23,9.93,9.93,0,0,1-4.72-11.23,16,16,0,0,1,6.23-9.4,22.9,22.9,0,0,1,10.6-4.34A49,49,0,0,1,90,89.05a22.5,22.5,0,0,1,8.29,2.07A10,10,0,0,1,104,98.83a17.67,17.67,0,0,1,.18,4.42c0,.25-.1.3-.33.32l-7.16.39Z"/><path class="cls-3" d="M280.73,105l2.72-3.45,8.91-11.33a.53.53,0,0,1,.48-.27c5.48,0,11,0,16.44,0l.19,0c0,.13-.08.17-.13.24l-20.16,23.08a.49.49,0,0,0-.1.65q5.81,12.25,11.59,24.5c.19.4.19.4-.27.4H283.84a.61.61,0,0,1-.68-.43q-3.15-7.5-6.33-15c0-.09-.08-.19-.13-.29s-.23.2-.32.3q-6.25,7.38-12.49,14.78a1.35,1.35,0,0,1-1.14.53c-5.4,0-10.8,0-16.2,0h-.43c0-.17.1-.22.17-.3l22.25-24.87a.51.51,0,0,0,.08-.66Q263.28,101.62,258,90.34c0-.12-.1-.24-.16-.36.12-.11.25-.06.36-.06H274.6a.44.44,0,0,1,.5.36l5.49,14.33C280.63,104.69,280.67,104.79,280.73,105Z"/><path class="cls-2" d="M171.51,127.59h-2.89c-.25,0-.31,0-.25-.32q1.44-6.86,2.87-13.73c.84-4,1.69-8.08,2.52-12.13.08-.42.23-.51.64-.49,1.55.07,3.1.07,4.65.13a13.53,13.53,0,0,1,3.93.69,5.58,5.58,0,0,1,3.94,5,21.47,21.47,0,0,1-.4,6.64,38.89,38.89,0,0,1-2.08,7.49,11.55,11.55,0,0,1-3.71,4.83,9.22,9.22,0,0,1-4.74,1.66A39.39,39.39,0,0,1,171.51,127.59Z"/></g></g></svg>