<?xml version="1.0" encoding="UTF-8"?><svg id="Camada_2" xmlns="http://www.w3.org/2000/svg" viewBox="0 0 227.66 435.76"><defs><style>.cls-1{stroke-miterlimit:10;stroke-width:4px;}.cls-1,.cls-2{fill:#f7e821;stroke:#f7e821;}.cls-2{stroke-linecap:round;stroke-linejoin:round;stroke-width:6px;}</style></defs><g id="Camada_1-2"><path d="M119.09,6c1.44,0,2.47,.2,2.73,.2,.02,0,.04,0,.05,0,18.36,4.69,25.81,14.73,26.28,32.36,.19,6.88-1.71,11.46-.66,17.52,.32,1.83,2.07,2.07,2.07,7.26,0,7.26-2.57,11.87-4.15,15.56-.62,1.45-1.23,2.38-2.08,3.11-1.38,1.19-2.89,1.67-3.11,3.11-1.31,8.32-2.25,15.74-2.82,24.14-.43,6.34,2.98,10.69,8.88,13.22,5.7,2.44,11.29,5.14,16.88,7.85,6.18,2.99,12.07,6.82,18.52,8.98,6.44,2.15,11.29,5.64,15.15,10.99,7.24,10.04,8.15,21.61,8.94,33.46,1.33,19.77,2.85,39.56,5.41,59.19,1.17,8.92,5.32,17.41,7.56,26.23,1.47,5.76,1.96,11.76,2.88,17.66,.01,.07,.02,.14,.02,.2v22.64c0,.05,0,.1,0,.15-.41,3.89-1.02,7.76-1.17,11.66-.94,24.33-2.89,48.69-2.24,72.99,.41,15.2-6.49,24.16-17.68,31.81-.33,.22-.64,.46-.93,.68-.24,.18-.54,.28-.83,.28-.16,0-.32-.03-.47-.08l-4.05-1.45c-.86-.31-1.2-1.36-.67-2.11,3.77-5.28,8.05-10.18,10.44-15.87,2.49-5.93,1.35-12.23-1.68-19.04-.24-.54-.75-.81-1.26-.81s-1.02,.27-1.27,.8c-.49,1.05-.85,1.84-1.18,2.63-1.72,4.13-3.25,8.36-5.22,12.37-.06,.12-.13,.23-.21,.34-.55,.74-1.33,1.06-2.14,1.06-1.35,0-2.74-.9-3.1-2.29-.3-1.13-.03-2.33,.32-3.45,2.85-9.09,3.11-19.12,7.65-27.63,1.61-3.01,3.71-5.75,5.01-8.9,2.7-6.59,1.51-14.17-1.04-20.82-2.55-6.65-6.38-12.73-9.11-19.31-6.03-14.52-6.44-30.65-7.47-46.34-1.36-20.7-3.94-41.32-7.73-61.71l-2.09,.05c-3.09,23.82-6.18,47.84-4.28,71.78,.98,12.32,3.28,24.49,4.86,36.74,.96,7.43,1.64,14.89,2.38,22.35,1.07,10.93,2.15,18.64,3.18,27.97,1.04,9.34,2.08,24.9-15.56,24.9H69.68c-28.01,0-21.01-30.27-18.75-45.58,1.73-11.7,3.55-23.39,4.93-35.15,1.24-10.59,2.12-21.23,3.01-31.86,.7-8.46,1.4-16.96,.61-25.41-1.21-13.01-5.92-25.47-7.53-38.44-.61-4.91-.84-10.09-3.45-14.29-.31,2.03-.62,4.05-.9,6.09-4.83,35.21-.65,71.65-9.89,105.97-2.66,9.89-6.4,19.46-9.17,29.32-1.04,3.71-1.95,7.58-1.4,11.4,.53,3.75,2.42,7.14,4.07,10.54,6.05,12.54,7.6,25.55,9.96,39,.21,1.2-.33,1.58-1.08,1.58-.95,0-2.25-.62-2.8-.96-5.27-3.31-4.87-10.08-6.26-15.44-.51-1.99-1.33-3.91-2.08-5.84-1.41,.15-1.26,.14-2.67,.29-.59,3.94-.94,7.95-2.05,11.74-2.03,6.91,.38,12.02,5.22,16.68,2.23,2.14,4.14,4.65,5.94,7.18,.59,.83,.61,2.26,.43,3.34-.07,.45-1.19,1.15-1.76,1.15-.06,0-.11,0-.15-.02-2.52-.8-5.38-1.34-7.35-2.94-12.99-10.5-20.56-22.86-19.02-40.98,1.57-18.49,.17-37.25-.11-55.89-.22-14.68-2.65-29.63-.61-43.96,3.09-21.65,8.01-43,6.79-65.08-.05-.85,.22-1.71,.26-2.58,.6-13.05,2.13-25.94,1.23-39.2-.99-14.53,3.72-28.25,18.3-35.63,11.37-5.75,23.03-10.91,34.43-16.58,5.7-2.84,11.48-5.76,16.52-9.57,2.71-2.04,5.39-5.95,5.58-9.17,.47-8.02,.09-13.97-.53-22.02-.07-.93-1.76-3.45-3.43-4.69-4.87-3.61-6.94-12.95-6.94-17.1,0-1.04,.74-2.53,1.04-3.11,.78-1.55,1.36-1.81,1.29-3.37-.24-6.03-1.22-12.03-1.4-18.05-.4-13.12,7.26-23.09,19.64-27.18,6.5-2.15,7.77-2.67,13.66-5.36,2.11-1.06,4.23-1.31,5.83-1.31m0-6h0c-3.03,0-5.86,.63-8.41,1.89-5.61,2.56-6.72,3.02-12.97,5.08-15.12,4.99-24.22,17.66-23.76,33.06,.1,3.33,.42,6.61,.74,9.78,.26,2.63,.51,5.13,.63,7.62-.18,.3-.39,.68-.62,1.12-.78,1.55-1.68,3.61-1.68,5.82,0,4.88,2.29,16.66,9.36,21.92,.31,.23,.79,.81,1.1,1.25,.57,7.63,.88,12.98,.45,20.29-.06,.95-1.45,3.41-3.2,4.72-4.45,3.36-9.48,5.95-15.58,8.98-5.26,2.62-10.7,5.18-15.95,7.66-6.08,2.87-12.38,5.84-18.52,8.94-15.21,7.69-22.87,22.39-21.58,41.39,.63,9.22,.03,18.17-.59,27.66-.23,3.55-.48,7.21-.64,10.86,0,.06-.04,.28-.06,.45-.11,.68-.25,1.62-.19,2.74,.91,16.33-1.66,32.12-4.38,48.83-.8,4.92-1.63,10.01-2.35,15.07-1.46,10.2-.79,20.54-.14,30.54,.31,4.74,.62,9.64,.69,14.35,.08,5.17,.24,10.41,.4,15.48,.41,13.15,.84,26.75-.27,39.81-1.57,18.52,5.17,33.18,21.23,46.15,2.49,2.01,5.44,2.86,7.81,3.54,.5,.15,1.01,.29,1.49,.44,.63,.2,1.29,.3,1.97,.3,3.22,0,7.08-2.48,7.69-6.18,.28-1.74,.47-5.08-1.46-7.79-1.09-1.52-2.32-3.19-3.7-4.84,1.01,.37,2.24,.68,3.52,.68,2.2,0,4.15-.88,5.49-2.48,.8-.95,2.05-3,1.5-6.14-.33-1.86-.64-3.71-.95-5.56-1.94-11.53-3.94-23.45-9.52-35.01-.24-.49-.48-.98-.72-1.48-1.28-2.59-2.48-5.03-2.81-7.31-.39-2.75,.4-5.92,1.24-8.93,1.27-4.55,2.81-9.17,4.3-13.64,1.69-5.1,3.45-10.38,4.89-15.74,5.7-21.2,6.45-43.22,7.17-64.51,.11-3.29,.22-6.61,.36-9.95,1.1,4.77,2.03,9.42,2.47,14.12,.74,7.95,.05,16.29-.62,24.36-.86,10.4-1.75,21.16-2.98,31.66-1.12,9.55-2.57,19.26-3.97,28.65-.31,2.11-.63,4.21-.94,6.32-.16,1.09-.35,2.26-.54,3.49-1.89,11.91-4.75,29.9,4.46,40.69,4.69,5.49,11.67,8.27,20.77,8.27h94.41c7.21,0,12.81-2.18,16.65-6.47,1.2-1.34,2.14-2.8,2.89-4.34-.32,1.34-.66,2.65-1.06,3.92-.51,1.61-1.1,4.07-.4,6.76,1.02,3.92,4.77,6.77,8.9,6.77,2.05,0,3.97-.69,5.49-1.94-1.42,2.33-3.16,4.65-4.97,7.06-.95,1.26-1.93,2.57-2.88,3.91-1.33,1.87-1.72,4.29-1.03,6.49,.69,2.2,2.4,3.98,4.57,4.75l4.05,1.45c.8,.29,1.64,.43,2.49,.43,1.6,0,3.18-.53,4.45-1.49,.22-.17,.46-.35,.7-.51,9.73-6.65,20.84-16.86,20.3-36.93-.46-17.27,.43-34.99,1.29-52.13,.34-6.7,.69-13.63,.95-20.47,.09-2.44,.4-4.91,.71-7.54,.15-1.24,.3-2.49,.43-3.73,.03-.26,.04-.52,.04-.78v-22.64c0-.38-.03-.75-.09-1.13-.27-1.74-.5-3.46-.74-5.29-.56-4.22-1.14-8.59-2.25-12.93-.94-3.7-2.17-7.28-3.37-10.74-1.76-5.12-3.43-9.97-4.06-14.78-2.58-19.78-4.11-39.95-5.38-58.81-.78-11.68-1.67-24.92-10.06-36.56-4.55-6.31-10.47-10.62-18.12-13.17-3.8-1.27-7.5-3.26-11.42-5.37-2.06-1.11-4.19-2.26-6.39-3.32-5.25-2.54-11.2-5.42-17.12-7.96-4.93-2.11-5.43-4.88-5.26-7.3,.47-7.02,1.23-13.7,2.52-22.07,.4-.28,.87-.63,1.36-1.05,1.53-1.33,2.66-2.96,3.65-5.28,.2-.45,.41-.92,.63-1.41,1.69-3.77,4.01-8.92,4.01-16.52,0-4.69-1.15-7.01-2.24-8.79-.33-2.39-.07-4.61,.27-7.37,.3-2.52,.65-5.38,.55-8.78-.56-20.7-10.34-32.78-30.79-38.01l-1.43-.36-.46,.11c-.6-.06-1.42-.13-2.38-.13h0Zm67.06,381.67c.07-3.45-.28-6.58-.53-8.78-.39-3.52-.79-6.86-1.18-10.09-.65-5.42-1.33-11.03-1.99-17.81l-.3-3.04c-.62-6.38-1.26-12.98-2.1-19.49-.57-4.41-1.23-8.85-1.88-13.15-1.15-7.65-2.33-15.57-2.95-23.31-.86-10.74-.67-21.59,.08-32.43,.86,7.73,1.54,15.46,2.05,23.18,.1,1.58,.2,3.17,.3,4.76,.89,14.51,1.81,29.51,7.62,43.49,1.35,3.26,2.93,6.36,4.46,9.35,1.71,3.36,3.33,6.53,4.59,9.81,1.72,4.49,3.31,10.98,1.09,16.39-.61,1.48-1.56,3.02-2.56,4.64-.73,1.17-1.48,2.39-2.18,3.71-2.22,4.15-3.52,8.47-4.51,12.76h0Z"/><g><path class="cls-1" d="M174.46,301.75c-.57-.12-1.13,.26-1.25,.83-.12,.57,.26,1.13,.83,1.25,.07,.01,7.11,1.5,7.11,6.39,0,9.48-23.44,14.75-66.04,14.86-.33-.12-.68-.07-.96,0-43.05-.05-66.75-5.33-66.75-14.86,0-4.89,7.04-6.38,7.11-6.39,.58-.12,.95-.67,.83-1.25-.11-.57-.67-.95-1.25-.83-.36,.07-8.81,1.84-8.81,8.47,0,1.59,0,6.42,9.82,10.35,10.79,4.33,30.42,6.56,58.32,6.63,.15,.05,.29,.08,.44,.08,.19,0,.37-.04,.54-.08,.14,0,.27,0,.41,0,0,0,.02,0,.03,0,28.07-.06,47.79-2.28,58.62-6.63,9.82-3.94,9.82-8.77,9.82-10.35,0-6.63-8.45-8.4-8.81-8.47Z"/><polygon class="cls-1" points="103.27 318.92 92.37 326.19 103.27 332.78 103.27 318.92"/></g><line class="cls-2" x1="138.08" y1="123.14" x2="138.08" y2="391.92"/></g></svg>