<?xml version="1.0" encoding="utf-8"?>
<!-- Generator: Adobe Illustrator 26.3.1, SVG Export Plug-In . SVG Version: 6.00 Build 0)  -->
<svg version="1.1" id="Camada_2_00000065760449032737784880000011792096324316952757_"
	 xmlns="http://www.w3.org/2000/svg" xmlns:xlink="http://www.w3.org/1999/xlink" x="0px" y="0px" viewBox="0 0 346.1 332.4"
	 style="enable-background:new 0 0 346.1 332.4;" xml:space="preserve">
<g id="Camada_1-2">
	<g>
		<path d="M274,289c-0.4-6.7-0.9-13.9-1.4-20.9c-0.1-1.1-0.6-2.1-1.4-2.8c-0.7-0.6-1.5-0.9-2.4-0.9c-0.2,0-0.4,0-0.6,0
			c-7.4,1.1-15.1,2.1-23.2,3c-2.1,0.2-3.6,2-3.5,4.1c0.4,6.4,0.8,12.9,1.3,19.2c-23.8,3.2-47.3,4.9-69.8,4.9s-45.7-1.7-68.4-5
			c0.4-6.8,0.7-13,1-19c0.1-2.1-1.4-3.8-3.5-4c-8.1-0.8-15.9-1.8-23.2-3c-0.2,0-0.4,0-0.6,0c-0.9,0-1.8,0.3-2.4,0.9
			c-0.9,0.7-1.4,1.7-1.4,2.8c-0.4,8.4-0.9,17.2-1.5,27.7c-0.4,6.7,1.2,12.2,4.6,16.4c3.4,4.2,8.5,6.9,15.1,8
			c26.7,4.4,53,6.5,80.2,6.5c24.7,0,50.4-1.8,76.4-5.5c8.7-1.2,15.2-4.4,19.3-9.5c4.1-5.1,5.9-12.1,5.4-20.9L274,289L274,289z"/>
		<path d="M327.2,190.5c-11.3-7.4-29.9-13-56.9-17.2c0.2-4.3,0.3-8.1,0.6-11.8c3.3,2,7,3,11,3c3.5,0,7.2-0.8,11.1-2.4
			c13.1-5.5,25.4-13.1,37.7-23.5c10.1-8.5,11.9-19.4,5.1-30.7c-10.9-18.2-21.3-36.5-31.1-53.6c-6.9-12.2-17-21.1-30-26.3
			c-16.8-6.9-33.5-14-47.6-20c-1.7-0.7-5.4-2.3-10-2.3c-5.8,0-11.1,2.3-15.8,6.9c-8.6,8.3-17.8,12.6-27.3,12.6
			c-9.4,0-19.1-4.4-28.2-13c-4.6-4.4-9.7-6.6-15.2-6.6c-3.1,0-6.5,0.7-9.8,2.2c-8.6,3.7-17.5,7.4-26,11l0,0l-0.1,0
			c-7.6,3.2-15.5,6.5-23.3,9.8C59.3,33.5,50.8,40.6,45.3,50c-3.7,6.3-7.3,12.6-11,18.9c-7.8,13.4-15.8,27.3-23.8,40.8
			c-5.6,9.5-4.1,19.6,4.2,26.9c12.8,11.5,26.3,19.9,41,25.9c3.3,1.3,6.6,2,9.8,2c3.9,0,7.7-1.1,11-3.1c0.3,3.7,0.5,7.6,0.6,11.6
			c-16.4,2.6-30.6,5.8-41.1,9.5c-7.5,2.6-30.2,10.5-30.2,29.5c0,9,5,16.6,14.8,22.6c9.1,5.5,22.9,10.1,42.2,13.9
			c29.6,5.9,68.8,9.1,110.3,9.1s80.7-3.2,110.3-9.1c19.3-3.8,33.1-8.3,42.2-13.9c9.8-6,14.8-13.6,14.8-22.6
			C340.5,203,336.1,196.3,327.2,190.5L327.2,190.5z M300.1,212c-6.2,2.1-15.6,4.7-29.9,7.2c-0.1-4.8-0.2-9.7-0.3-14.4
			C284.4,207.3,294,209.9,300.1,212L300.1,212z M239.1,223.3c-20.4,2-43.1,3-66,3s-45.1-1-65.3-3c0.2-3.9,0.3-7.5,0.4-10.9
			c0.3-8.3,0.4-16.4,0.4-24c0.2-1.3,0.2-2.6,0-3.9c0-0.1,0-0.3-0.1-0.4c-0.3-20.8-1.8-39.4-4.7-57c-0.3-1.7-0.7-3.2-1.1-4.7
			l-0.1-0.3c-0.2-0.6-0.3-1.4-0.6-2.2c-1.4-5.9-6.2-10.4-12.1-11.6c-1-0.2-2.1-0.3-3.1-0.3c-4.9,0-9.6,2.4-12.5,6.3
			c-1.7,2.3-3.4,4.5-5,6.7c-2.6,3.4-5.1,6.7-7.6,10.1c-7.1-3.3-13.7-7.5-20.3-12.7c6.8-11.6,13.7-23.4,19.8-34l0.5-0.9
			c3.5-6,7-12,10.5-18c2-3.5,5.6-6.2,11.1-8.6c7.6-3.2,15.4-6.5,22.9-9.6l0.2-0.1c7.1-3,14.4-6,21.7-9.1
			c13.9,11.7,29.6,17.8,45.6,17.8S205.4,50,219,38.3c12.4,5.3,28.1,11.9,43.8,18.4c6.5,2.7,11.1,6.7,14.6,12.9
			c8.9,15.6,18.3,32.1,28.2,48.9c-6.8,5.2-13.4,9.4-20.3,12.7c-2.4-3.4-4.9-6.6-7.5-10l0,0c-1.6-2.1-3.3-4.2-5-6.5
			c-2.9-3.9-7.6-6.3-12.5-6.3c-1,0-1.9,0.1-2.9,0.3c-5.9,1.1-10.6,5.4-12.2,11.1c-4,14.4-4.9,27.9-5.6,38.8
			C238.5,177.9,238.3,199.1,239.1,223.3L239.1,223.3z M77.2,204.7c-0.1,2.4-0.1,4.6-0.2,6.7c-0.1,2.7-0.2,5.3-0.3,8l-0.1,0
			c-14.6-2.5-24.2-5.1-30.5-7.3C52.4,209.9,62.2,207.2,77.2,204.7L77.2,204.7z"/>
	</g>
</g>
</svg>
