<?xml version="1.0" encoding="UTF-8"?><svg id="Camada_2" xmlns="http://www.w3.org/2000/svg" viewBox="0 0 234.57 77.73"><defs><style>.cls-1{fill:#0fb251;}.cls-2{fill:#7d7d7d;}.cls-3{fill:#0f9344;}.cls-4{fill:#fefefe;}</style></defs><g id="Camada_1-2"><g><g><g><path class="cls-2" d="M92.9,42.55v3.17h-11.74v8.17h10.59v3.1h-10.59v8.17h11.74v3.17h-15.05v-25.78h15.05Z"/><path class="cls-2" d="M96.43,50.68h3.17v2.45h.14c.5-.86,1.28-1.58,2.32-2.16,1.04-.58,2.13-.86,3.26-.86,2.16,0,3.82,.62,4.99,1.85,1.16,1.24,1.75,3,1.75,5.28v11.09h-3.31v-10.88c-.07-2.88-1.53-4.32-4.36-4.32-1.32,0-2.43,.53-3.31,1.6-.89,1.07-1.33,2.35-1.33,3.83v9.76h-3.31v-17.65Z"/><path class="cls-2" d="M124.02,68.91c-2.62,0-4.79-.89-6.52-2.67-1.71-1.82-2.56-4.07-2.56-6.73s.85-4.96,2.56-6.73c1.73-1.78,3.9-2.67,6.52-2.67,1.8,0,3.37,.45,4.72,1.35s2.35,2.14,3.03,3.73l-3.03,1.26c-.94-2.21-2.58-3.31-4.93-3.31-1.51,0-2.82,.61-3.92,1.84-1.08,1.22-1.62,2.74-1.62,4.54s.54,3.31,1.62,4.54c1.1,1.22,2.41,1.84,3.92,1.84,2.42,0,4.13-1.1,5.11-3.31l2.95,1.26c-.65,1.58-1.66,2.83-3.04,3.73-1.38,.9-2.98,1.35-4.81,1.35Z"/><path class="cls-2" d="M137.88,68.33h-3.31v-17.65h3.17v2.88h.14c.34-.94,1.03-1.73,2.07-2.39s2.07-.99,3.08-.99,1.78,.14,2.45,.43l-1.01,3.21c-.41-.17-1.06-.25-1.94-.25-1.25,0-2.34,.5-3.26,1.51-.92,1.01-1.39,2.18-1.39,3.53v9.72Z"/><path class="cls-2" d="M163.77,50.68l-11.06,25.42h-3.42l4.1-8.89-7.27-16.53h3.6l5.26,12.68h.07l5.11-12.68h3.6Z"/><path class="cls-2" d="M175.12,68.91c-1.3,0-2.48-.28-3.55-.83s-1.89-1.28-2.47-2.2h-.14l.14,2.45v7.78h-3.31v-25.42h3.17v2.45h.14c.58-.91,1.4-1.64,2.47-2.2,1.07-.55,2.25-.83,3.55-.83,2.33,0,4.3,.91,5.91,2.74,1.66,1.85,2.49,4.07,2.49,6.66s-.83,4.84-2.49,6.66c-1.61,1.82-3.58,2.74-5.91,2.74Zm-.54-3.02c1.58,0,2.92-.6,4-1.8,1.08-1.18,1.62-2.7,1.62-4.57s-.54-3.37-1.62-4.57c-1.08-1.2-2.41-1.8-4-1.8s-2.95,.6-4.03,1.8c-1.06,1.2-1.58,2.73-1.58,4.57s.53,3.41,1.58,4.61c1.08,1.18,2.42,1.76,4.03,1.76Z"/><path class="cls-2" d="M192.8,68.62c-1.44,0-2.63-.44-3.58-1.33-.95-.89-1.43-2.12-1.46-3.71v-9.87h-3.1v-3.03h3.1v-5.4h3.31v5.4h4.32v3.03h-4.32v8.79c0,1.18,.23,1.98,.68,2.4,.46,.42,.97,.63,1.55,.63,.26,0,.52-.03,.77-.09s.49-.14,.7-.23l1.04,2.95c-.86,.31-1.87,.47-3.03,.47Z"/><path class="cls-2" d="M206.3,68.91c-2.59,0-4.73-.89-6.41-2.67-1.68-1.78-2.52-4.02-2.52-6.73s.82-4.93,2.45-6.72c1.63-1.79,3.72-2.68,6.27-2.68s4.7,.85,6.25,2.54c1.55,1.69,2.32,4.06,2.32,7.11l-.04,.36h-13.86c.05,1.73,.62,3.12,1.73,4.18,1.1,1.06,2.42,1.58,3.96,1.58,2.11,0,3.77-1.06,4.97-3.17l2.95,1.44c-.79,1.49-1.89,2.65-3.29,3.49-1.4,.84-3,1.26-4.77,1.26Zm-5.29-11.52h10.12c-.1-1.22-.59-2.24-1.49-3.04-.9-.8-2.11-1.21-3.62-1.21-1.25,0-2.32,.38-3.22,1.15s-1.49,1.8-1.78,3.1Z"/><path class="cls-2" d="M225.25,68.91c-2.3,0-4.29-.91-5.94-2.74-1.63-1.85-2.45-4.07-2.45-6.66s.82-4.81,2.45-6.66c1.66-1.82,3.64-2.74,5.94-2.74,1.3,0,2.48,.28,3.55,.83,1.07,.55,1.89,1.29,2.47,2.2h.14l-.14-2.45v-8.14h3.31v25.78h-3.17v-2.45h-.14c-.58,.91-1.4,1.64-2.47,2.2s-2.25,.83-3.55,.83Zm.54-3.02c1.63,0,2.96-.59,4-1.76,1.08-1.18,1.62-2.71,1.62-4.61s-.54-3.37-1.62-4.57c-1.06-1.2-2.39-1.8-4-1.8s-2.92,.6-4,1.8c-1.08,1.2-1.62,2.73-1.62,4.57s.54,3.4,1.62,4.57c1.08,1.2,2.41,1.8,4,1.8Z"/></g><g><path class="cls-2" d="M85.74,31.19c-1.1,0-2.16-.16-3.17-.47-1.01-.31-1.93-.78-2.77-1.4-.84-.62-1.57-1.39-2.2-2.29-.62-.9-1.12-1.95-1.48-3.15l4.57-1.8c.34,1.3,.92,2.37,1.76,3.22,.84,.85,1.94,1.28,3.31,1.28,.5,0,.99-.07,1.46-.2,.47-.13,.89-.32,1.26-.58,.37-.25,.67-.57,.88-.95,.22-.38,.32-.83,.32-1.33s-.08-.91-.25-1.3c-.17-.38-.45-.74-.85-1.08-.4-.34-.91-.66-1.55-.97-.64-.31-1.42-.64-2.36-.97l-1.58-.58c-.7-.24-1.4-.56-2.11-.97-.71-.41-1.35-.9-1.93-1.48-.58-.58-1.05-1.25-1.42-2.03s-.56-1.66-.56-2.65,.2-1.95,.59-2.83c.4-.88,.96-1.64,1.69-2.3,.73-.66,1.61-1.18,2.63-1.55,1.02-.37,2.15-.56,3.4-.56s2.42,.17,3.37,.52c.95,.35,1.75,.79,2.41,1.33,.66,.54,1.19,1.13,1.6,1.78,.41,.65,.71,1.26,.9,1.84l-4.29,1.8c-.24-.72-.68-1.37-1.31-1.94s-1.51-.86-2.61-.86-1.93,.25-2.63,.74c-.7,.49-1.04,1.13-1.04,1.93s.34,1.42,1.01,1.96c.67,.54,1.74,1.06,3.21,1.57l1.62,.54c1.03,.36,1.97,.77,2.83,1.24,.85,.47,1.58,1.03,2.2,1.67,.61,.65,1.08,1.39,1.4,2.21s.49,1.78,.49,2.86c0,1.35-.27,2.5-.81,3.48-.54,.97-1.23,1.77-2.07,2.4-.84,.62-1.79,1.09-2.84,1.4-1.06,.31-2.09,.47-3.1,.47Z"/><path class="cls-2" d="M104.64,31.19c-1.1,0-2.16-.16-3.17-.47-1.01-.31-1.93-.78-2.77-1.4-.84-.62-1.57-1.39-2.2-2.29-.62-.9-1.12-1.95-1.48-3.15l4.57-1.8c.34,1.3,.92,2.37,1.76,3.22,.84,.85,1.94,1.28,3.31,1.28,.5,0,.99-.07,1.46-.2,.47-.13,.89-.32,1.26-.58,.37-.25,.67-.57,.88-.95,.22-.38,.32-.83,.32-1.33s-.08-.91-.25-1.3c-.17-.38-.45-.74-.85-1.08-.4-.34-.91-.66-1.55-.97-.64-.31-1.42-.64-2.36-.97l-1.58-.58c-.7-.24-1.4-.56-2.11-.97-.71-.41-1.35-.9-1.93-1.48-.58-.58-1.05-1.25-1.42-2.03s-.56-1.66-.56-2.65,.2-1.95,.59-2.83c.4-.88,.96-1.64,1.69-2.3,.73-.66,1.61-1.18,2.63-1.55,1.02-.37,2.15-.56,3.4-.56s2.42,.17,3.37,.52c.95,.35,1.75,.79,2.41,1.33,.66,.54,1.19,1.13,1.6,1.78,.41,.65,.71,1.26,.9,1.84l-4.29,1.8c-.24-.72-.68-1.37-1.31-1.94s-1.51-.86-2.61-.86-1.93,.25-2.63,.74c-.7,.49-1.04,1.13-1.04,1.93s.34,1.42,1.01,1.96c.67,.54,1.74,1.06,3.21,1.57l1.62,.54c1.03,.36,1.97,.77,2.83,1.24,.85,.47,1.58,1.03,2.2,1.67,.61,.65,1.08,1.39,1.4,2.21s.49,1.78,.49,2.86c0,1.35-.27,2.5-.81,3.48-.54,.97-1.23,1.77-2.07,2.4-.84,.62-1.79,1.09-2.84,1.4-1.06,.31-2.09,.47-3.1,.47Z"/><path class="cls-2" d="M115.66,4.83h4.86V26h10.91v4.61h-15.77V4.83Z"/></g></g><g><path class="cls-1" d="M27.68,77.7c-7.66,0-15.31,.05-22.97,.01-2.64-.01-4.68-2.18-4.7-4.87-.03-4.38,0-8.76,0-13.14,0-9.21,0-18.43,0-27.64,0-1.47,0-1.48,1.45-1.48,.55,0,1.1-.01,1.65-.02,.4-.49,.97-.46,1.51-.46,2.29,0,4.59-.04,6.88,.02,10.19-.07,20.38-.02,30.56-.03,.46,0,.91,.04,1.34,.22,.12,.05,.22,.12,.29,.23,.05,.49-.29,.59-.67,.65-.45,.07-.91,.06-1.36,.06-3.76,0-7.52,0-11.28,0-1.91,0-2.22,.31-2.22,2.19,0,4.89,0,9.79,0,14.68,0,.65-.03,1.29-.1,1.94,.24,.47,.1,.85-.27,1.22-.64,.64-1.28,1.28-2.01,1.84-.58,.45-1.03,.44-1.52-.07-1.36-1.44-2.94-2.64-4.3-4.09-.51-.55-1.12-.98-1.68-1.48-.44-.39-.88-.4-1.29,.02-1.05,1.11-2.27,2.04-3.33,3.13-.63,.65-.6,1.04,.1,1.62,1.36,1.11,2.55,2.4,3.84,3.58,2.22,2.04,4.39,4.14,6.61,6.17,.81,.74,1.06,.75,1.87-.02,.28-.27,.55-.56,.85-.8,.48-.38,.89-.38,1.13,.27,.15,1.06,.08,2.13,.08,3.2,0,3.81,.02,7.63,0,11.44,0,.57,.1,1.19-.47,1.6Z"/><path class="cls-3" d="M27.68,77.7c0-5.5,0-11,0-16.51-.31-.4-.03-.62,.24-.89,2.89-2.88,5.93-5.61,8.9-8.42,2.36-2.22,4.68-4.48,7.12-6.62,.7-.61,.68-.99,.03-1.71-1-1.11-2.21-2-3.27-3.05-.51-.5-.96-.33-1.44,.09-1.92,1.7-3.72,3.51-5.63,5.23-1.61,1.45-3.09,3.05-4.79,4.41-.27,.22-.54,.52-.94,.24-.26-.37-.24-.8-.24-1.22,0-5.71,0-11.42,0-17.13,0-1.29,.06-1.34,1.4-1.35,4.41,0,8.83,0,13.24,0,.45,0,.91,.04,1.34-.16,.19-.51,.65-.48,1.06-.49,2-.05,4-.04,6,0,.43,0,.83,.11,1.14,.43l-.03,.04c.53,.2,1.09,.07,1.63,.09,1.25,.05,1.55,.33,1.58,1.56,.02,.58,0,1.17,0,1.75,0,5.97-.12,11.94,.03,17.9,.16,6.21-2.07,11.47-5.9,16.14-3.48,4.24-7.87,7.19-13.1,8.89-1.7,.55-3.46,.55-5.2,.71-.22,.02-.46-.03-.67,.07-.85,0-1.69,0-2.54,0Z"/><path class="cls-2" d="M51.87,30.54c-2.74,.02-5.47,.05-8.21,.07l-.21-.05c-.45-.33-.46-.83-.46-1.32-.01-1.62-.05-3.25,0-4.87,.23-7.17-5.19-13.88-12.6-15.26-9.01-1.68-17.57,4.94-18.24,14.07-.15,1.98-.11,3.95-.16,5.93-.01,.51,.05,1.06-.45,1.42-2.81,.01-5.61,.02-8.42,.03,.1-2.56,0-5.12,.17-7.68,.33-5.3,2.14-10.01,5.54-14.05C14,2.68,20.7-.28,28.72,.02c5.63,.21,10.61,2.27,14.86,6.01,4.68,4.12,7.37,9.3,8.17,15.47,.06,.45,.09,.9,.09,1.36,.02,2.56,.02,5.13,.03,7.69Z"/><path class="cls-1" d="M30.22,77.7c1.46-.29,2.94-.51,4.38-.89,4.32-1.13,8.12-3.2,11.43-6.21,4.93-4.48,7.82-10.02,8.84-16.57,.07-.48,.08-.97,.08-1.46,0-6.43-.02-12.86,.02-19.29,0-1.65-.27-2.67-2.38-2.53-.24,.02-.5-.11-.75-.18,.68,0,1.36,0,2.04,0,1.18,.01,1.24,.08,1.26,1.3,0,.42,0,.84,0,1.27,0,12.98,0,25.96,0,38.95,0,3.71-1.93,5.64-5.64,5.63-6.43,0-12.85-.02-19.28-.03Z"/><path class="cls-4" d="M27.92,50.47c3.77-3.51,7.56-7.01,11.3-10.55,.63-.59,.99-.66,1.62-.01,1.2,1.23,2.49,2.37,3.74,3.55q.98,.92-.04,1.88c-5.46,5.12-10.93,10.25-16.39,15.37-.16,.15-.31,.33-.47,.49-.69,.63-1.4,1.25-2.07,1.91-.35,.34-.61,.36-.98,0-3.97-3.74-7.94-7.47-11.93-11.18-.46-.43-.38-.71,.04-1.09,1.48-1.36,2.95-2.74,4.39-4.14,.44-.43,.71-.36,1.12,.03,2.04,1.95,4.13,3.85,6.16,5.81,.5,.48,.84,.58,1.34,.03,.68-.73,1.44-1.4,2.16-2.1Z"/></g></g></g></svg>